<svg xml:space="preserve" style="enable-background:new 0 0 256.5 253.117;" viewBox="0 0 256.5 253.117" height="253.117px" width="256.5px" y="0px" x="0px" xmlns:xlink="http://www.w3.org/1999/xlink" xmlns="http://www.w3.org/2000/svg" id="Layer_1" version="1.1">
<g id="Layer_1_1_">
	<path d="M253.479,114.938c0-42.077-33.074-76.185-73.871-76.185
		c-0.635,0-1.262,0.03-1.893,0.048C164.834,16.48,141.217,1.515,114.201,1.515c-40.798,0-73.871,34.111-73.871,76.188
		c0,0.546,0.029,1.084,0.04,1.629C18.056,92.439,3,117.175,3,145.555c0,42.075,33.073,76.182,73.872,76.182
		c2.32,0,4.612-0.123,6.878-0.338c13.551,16.93,34.051,27.72,56.998,27.72c37.711,0,68.793-29.146,73.289-66.779
		C237.488,169.572,253.479,144.188,253.479,114.938z" style="opacity:0.67;fill:#D6E2FF;enable-background:new    ;"></path>
	<g>
		<polyline points="127.011,66.195 176.05,44.251 126.675,22.481" style="fill:#FF9EB0;"></polyline>
		<path d="M127.634,67.586l49.038-21.944c0.551-0.246,0.903-0.793,0.901-1.395
			c-0.001-0.603-0.357-1.147-0.909-1.391l-49.374-21.77l0,0c-0.77-0.34-1.669,0.009-2.009,0.779c-0.339,0.771,0.009,1.67,0.78,2.009
			l0,0l49.375,21.77c-0.551-0.243-0.906-0.788-0.908-1.391s0.352-1.149,0.9-1.396L126.39,64.804l0,0
			c-0.769,0.344-1.112,1.245-0.769,2.013C125.965,67.585,126.865,67.93,127.634,67.586L127.634,67.586z" style="fill:#6E6E96;"></path>
		<path d="M126.675,25.354" style="fill:#3399CC;"></path>
		<polygon points="126.733,65.187 126.733,23.624 131.23,25.607 
			131.23,63.173" style="opacity:0.15;fill:#963C3C;enable-background:new    ;"></polygon>
		<path d="M125.621,94.389c-0.829,0-1.5-0.671-1.5-1.5V17.045c0-0.829,0.671-1.5,1.5-1.5s1.5,0.671,1.5,1.5
			v75.844C127.121,93.718,126.45,94.389,125.621,94.389z" style="fill:#6E6E96;"></path>
	</g>
	<g>
		<path d="M221.59,171.598l-44.965-69.667l-52.516,97.357h83.505" style="fill:#C8C8E3;"></path>
		<path d="M207.614,200.788h-83.505c-0.528,0-1.018-0.277-1.288-0.731c-0.271-0.453-0.283-1.016-0.032-1.48
			l52.516-97.357c0.252-0.467,0.731-0.766,1.262-0.787c0.522-0.022,1.031,0.24,1.319,0.686l44.965,69.667
			c0.449,0.696,0.249,1.625-0.447,2.074c-0.696,0.447-1.624,0.25-2.074-0.447l-43.589-67.535l-50.118,92.912h80.992
			c0.828,0,1.5,0.672,1.5,1.5S208.442,200.788,207.614,200.788z" style="fill:#6E6E96;"></path>
	</g>
	<path d="M26.989,201.736c13.143,12.416,30.652,19.998,49.883,19.998c2.32,0,4.612-0.123,6.878-0.336
		c13.551,16.929,34.051,27.719,56.998,27.719c30.912,0,57.359-19.592,68.37-47.381H26.989z" style="fill:#D6F0FF;"></path>
	<g>
		<polygon points="29.233,199.288 76.699,111.287 133.5,199.288" style="fill:#C8C8E3;"></polygon>
		<path d="M133.52,200.788c-0.005,0-0.013,0-0.02,0H29.233c-0.528,0-1.018-0.277-1.288-0.731
			c-0.271-0.453-0.283-1.016-0.032-1.48l47.466-88.001c0.252-0.467,0.731-0.766,1.261-0.787c0.546-0.01,1.032,0.24,1.319,0.686
			l56.685,87.822c0.233,0.264,0.375,0.611,0.375,0.992C135.02,200.116,134.349,200.788,133.52,200.788z M31.746,197.788h99
			l-53.931-83.556L31.746,197.788z" style="fill:#6E6E96;"></path>
	</g>
	<g>
		<polygon points="58.901,199.288 124.895,76.944 203.859,199.288" style="fill:#C8C8E3;"></polygon>
		<path d="M203.879,200.788c-0.005,0-0.012,0-0.02,0H58.901c-0.528,0-1.018-0.277-1.288-0.731
			c-0.271-0.453-0.283-1.016-0.032-1.48l65.994-122.344c0.252-0.467,0.731-0.766,1.262-0.787c0.528-0.002,1.032,0.24,1.319,0.686
			l78.849,122.166c0.233,0.265,0.375,0.611,0.375,0.992C205.379,200.116,204.708,200.788,203.879,200.788z M61.415,197.788h139.691
			L125.011,79.889L61.415,197.788z" style="fill:#6E6E96;"></path>
	</g>
	<polygon points="124.895,76.944 165.814,176.634 124.639,134.784 
		144.393,180.718 83.466,188.494 114.266,96.647 58.901,199.288 203.311,198.409" style="opacity:0.22;fill:#6E6E96;enable-background:new    ;"></polygon>
	<polygon points="76.699,111.287 47.311,188.883 89.971,131.85 
		92.861,136.327 58.901,199.288 29.233,199.288" style="opacity:0.22;fill:#6E6E96;enable-background:new    ;"></polygon>
	<path d="M161.645,133.868l41.666,65.222l4.381,0.024
		c1.197-2.65,2.248-5.386,3.149-8.19h-0.837L161.645,133.868z M176.625,101.931l38.717,73.667c2.15-1.229,4.235-2.563,6.248-4.001
		L176.625,101.931z" style="opacity:0.22;fill:#6E6E96;enable-background:new    ;"></path>
	<rect height="3" width="39.334" style="opacity:0.61;fill:#FFFFFF;enable-background:new    ;" y="215.333" x="114.333"></rect>
	<rect height="3" width="10" style="opacity:0.48;fill:#FFFFFF;enable-background:new    ;" y="218" x="194.334"></rect>
	<rect height="3" width="15.334" style="opacity:0.48;fill:#FFFFFF;enable-background:new    ;" y="221.333" x="78.333"></rect>
	<g style="display:none;" id="Layer_3_1_">
		<g style="display:inline;">
			<g>
				<path d="M85.16,142.542c0-11.563-10.059-20.936-22.467-20.936c-0.194,0-0.385,0.009-0.576,0.014
					c-3.917-6.134-11.102-10.245-19.318-10.245c-12.409,0-22.469,9.372-22.469,20.936c0,0.149,0.009,0.297,0.012,0.446
					c-6.785,3.603-11.365,10.399-11.365,18.198c0,11.562,10.059,20.934,22.468,20.934c0.705,0,1.403-0.033,2.092-0.094
					c4.122,4.65,10.358,7.617,17.335,7.617c11.471,0,20.925-8.01,22.293-18.35C80.297,157.555,85.16,150.579,85.16,142.542z" style="fill:#D7F7E4;"></path>
				<path d="M50.872,180.912c-6.895,0-13.393-2.749-17.95-7.568c-0.499,0.03-0.993,0.045-1.477,0.045
					c-13.216,0-23.968-10.063-23.968-22.434c0-7.768,4.328-14.997,11.357-19.076c0.247-12.173,10.902-22.004,23.964-22.004
					c8.091,0,15.716,3.9,20.112,10.232c13.116,0.11,23.749,10.131,23.749,22.435c0,8.109-4.626,15.515-12.127,19.506
					C72.687,172.857,62.662,180.912,50.872,180.912z M34.159,170.234l0.501,0.565c4.006,4.52,9.916,7.112,16.212,7.112
					c10.575,0,19.52-7.328,20.806-17.046l0.105-0.796l0.72-0.354c6.882-3.385,11.157-9.966,11.157-17.175
					c0-10.717-9.406-19.436-20.967-19.436c-0.115,0-0.229,0.004-0.344,0.008l-1.041,0.027l-0.456-0.714
					c-3.763-5.892-10.68-9.552-18.054-9.552c-11.562,0-20.969,8.719-20.969,19.436l0.029,1.339l-0.814,0.433
					c-6.519,3.461-10.568,9.927-10.568,16.873c0,10.716,9.406,19.434,20.968,19.434c0.637,0,1.296-0.029,1.961-0.088L34.159,170.234
					z" style="fill:#CCCCDE;"></path>
			</g>
			<path d="M62.314,120.853c-0.193,0-0.384,0.009-0.575,0.014
				c-3.141-4.918-8.383-8.534-14.573-9.775c4.898,1.229,9.023,4.208,11.558,8.175c0.165-0.004,2.416,3.886,2.583,3.886
				c10.648,0,15.601,5.738,15.601,15.66c0,6.896-2.583,11.291-8.704,14.302c-1.173,8.875-9.287,15.748-19.129,15.748
				c-5.99,0-11.34-2.544-14.877-6.533c-0.591,0.05-1.189,0.078-1.794,0.078c-10.649,0-19.013-5.048-19.013-14.968
				c0-6.683,2.99-9.973,8.432-13.938c-0.145-0.855-0.75-8.421,1.267-10.437c4.792-4.793,6.963-8.909,11.25-11.038
				c-8.414,3.025-14.385,10.627-14.385,19.536c0,0.147,0.009,0.299,0.012,0.446c-6.787,3.604-11.366,10.396-11.366,18.196
				c0,11.562,10.059,20.938,22.468,20.938c0.707,0,1.403-0.035,2.093-0.098c4.121,4.648,10.356,7.617,17.336,7.617
				c11.469,0,20.924-8.012,22.291-18.354c7.133-3.506,11.997-10.479,11.997-18.521C84.783,130.227,74.724,120.853,62.314,120.853z" style="opacity:0.1;fill:#6E6E96;enable-background:new    ;"></path>
			<g>
				<path d="M30.336,153.865c0,0,11.635,2.277,11.635,13.662c0,0,3.132,19.342-8.976,33.026h27.96
					c-0.277-0.387-24.422-32.644,2.449-51.815C47.016,158.107,30.336,153.865,30.336,153.865z" style="fill:#EDE3DA;"></path>
				<path d="M60.955,202.054h-31.29l2.207-2.494c11.477-12.972,8.648-31.607,8.619-31.794l-0.019-0.238
					c0-9.079-8.398-11.683-10.144-12.124c-0.238-0.053-0.362-0.084-0.362-0.084l0.658-2.926c0,0,0.139,0.026,0.39,0.089
					c0.935,0.203,4.231,0.841,8.802,0.841c5.724,0,14.333-1.021,22.844-5.887l1.616,2.522c-6.629,4.73-10.566,10.708-11.701,17.767
					c-2.416,15.023,8.336,30.229,9.57,31.913l1.748,2.386L60.955,202.054z M36.13,199.054h21.996
					c-3.446-5.395-10.641-18.573-8.514-31.805c0.804-4.999,2.848-9.499,6.1-13.452c-6.069,2.011-11.71,2.526-15.896,2.526
					c-0.463,0-0.915-0.006-1.352-0.018c2.655,2.276,4.974,5.786,5.007,11.104C43.731,169.146,45.9,185.741,36.13,199.054z" style="fill:#CCCCDE;"></path>
			</g>
			<g>
				<path d="M37.703,131.025" style="fill:#D57E58;"></path>
			</g>
			<path d="M56.43,153.833c0,0-17.654,22.793-4.085,46.722h8.611
				C60.955,200.555,43.04,175.518,56.43,153.833z" style="opacity:0.11;fill:#6E6E96;enable-background:new    ;"></path>
		</g>
		<g style="display:inline;">
			<g>
				<path d="M255,141.26c0-10.828-9.42-19.604-21.04-19.604c-0.183,0-0.36,0.008-0.539,0.013
					c-3.669-5.744-10.396-9.595-18.091-9.595c-11.62,0-21.041,8.777-21.041,19.604c0,0.141,0.009,0.279,0.012,0.418
					c-6.354,3.375-10.644,9.739-10.644,17.043c0,10.825,9.421,19.604,21.04,19.604c0.66,0,1.312-0.032,1.96-0.089
					c3.858,4.354,9.698,7.134,16.233,7.134c10.738,0,19.596-7.499,20.875-17.185C250.445,155.316,255,148.786,255,141.26z" style="fill:#D7F7E4;"></path>
				<path d="M222.891,177.288c-6.467,0-12.563-2.573-16.848-7.085c-0.458,0.027-0.902,0.04-1.346,0.04
					c-12.429,0-22.54-9.468-22.54-21.104c0-7.289,4.053-14.077,10.637-17.92c0.262-11.426,10.271-20.646,22.536-20.646
					c7.59,0,14.745,3.652,18.885,9.583c12.312,0.128,22.285,9.545,22.285,21.103c0,7.612-4.335,14.567-11.367,18.328
					C243.377,169.733,233.962,177.288,222.891,177.288z M207.279,167.094l0.501,0.565c3.733,4.213,9.241,6.629,15.11,6.629
					c9.857,0,18.192-6.827,19.388-15.881l0.105-0.795l0.72-0.354c6.413-3.156,10.396-9.286,10.396-15.998
					c0-9.982-8.766-18.104-19.54-18.104c-0.117,0-0.231,0.004-0.346,0.007l-1.001,0.028l-0.456-0.715
					c-3.508-5.491-9.955-8.902-16.827-8.902c-10.775,0-19.541,8.122-19.541,18.104l0.031,1.31l-0.815,0.433
					c-6.074,3.227-9.848,9.25-9.848,15.719c0,9.982,8.766,18.104,19.54,18.104c0.591,0,1.189-0.027,1.829-0.083L207.279,167.094z" style="fill:#CCCCDE;"></path>
			</g>
			<path d="M233.605,120.949c-0.184,0-0.358,0.008-0.539,0.012
				c-2.94-4.606-7.853-7.992-13.646-9.154c4.586,1.15,8.449,3.94,10.822,7.655c0.154-0.004,2.263,3.639,2.419,3.639
				c9.971,0,14.608,5.374,14.608,14.665c0,6.459-2.42,10.573-8.148,13.396c-1.1,8.311-8.698,14.742-17.914,14.742
				c-5.607,0-10.619-2.381-13.934-6.117c-0.557,0.047-1.112,0.072-1.682,0.072c-9.975,0-17.806-4.728-17.806-14.017
				c0-6.257,2.8-9.339,7.896-13.055c-0.138-0.806-0.701-7.885,1.188-9.772c4.485-4.488,6.521-8.343,10.535-10.337
				c-7.88,2.833-13.472,9.952-13.472,18.292c0,0.139,0.006,0.275,0.012,0.418c-6.354,3.373-10.646,9.736-10.646,17.041
				c0,10.824,9.421,19.604,21.041,19.604c0.661,0,1.313-0.032,1.959-0.088c3.859,4.354,9.699,7.133,16.234,7.133
				c10.739,0,19.594-7.5,20.875-17.187c6.68-3.285,11.231-9.813,11.231-17.342C254.646,129.727,245.227,120.949,233.605,120.949z" style="opacity:0.1;fill:#6E6E96;enable-background:new    ;"></path>
			<g>
				<path d="M203.66,151.861c0,0,10.896,2.133,10.896,12.797c0,0,2.934,18.109-8.406,30.927h26.184
					c-0.26-0.358-22.87-30.565,2.294-48.521C219.279,155.836,203.66,151.861,203.66,151.861z" style="fill:#EDE3DA;"></path>
				<path d="M232.334,197.085H202.82l2.207-2.494c10.744-12.145,8.077-29.519,8.049-29.692l-0.02-0.24
					c0-8.432-7.802-10.853-9.426-11.264c-0.225-0.05-0.341-0.08-0.341-0.08l0.658-2.925c0,0,0.132,0.024,0.369,0.084
					c0.876,0.19,3.955,0.786,8.226,0.786c5.348,0,13.39-0.954,21.341-5.498l1.615,2.523c-6.195,4.421-9.87,10.006-10.924,16.602
					c-2.247,14.071,7.8,28.223,8.952,29.79l1.758,2.389L232.334,197.085z M209.273,194.085h20.232
					c-3.271-5.141-9.861-17.346-7.893-29.672c0.735-4.605,2.589-8.76,5.534-12.422c-5.576,1.803-10.748,2.269-14.604,2.269
					c-0.344,0-0.681-0.004-1.009-0.011c2.417,2.149,4.489,5.412,4.522,10.291C216.305,166.203,218.305,181.631,209.273,194.085z" style="fill:#CCCCDE;"></path>
			</g>
			<g>
				<path d="M210.561,130.477" style="fill:#D57E58;"></path>
			</g>
			<path d="M228.096,151.833c0,0-16.531,21.345-3.824,43.752h8.063
				C232.333,195.585,215.557,172.139,228.096,151.833z" style="opacity:0.11;fill:#6E6E96;enable-background:new    ;"></path>
		</g>
		<g style="display:inline;">
			<g>
				<path d="M218.298,143.02c0-16.622-14.461-30.095-32.299-30.095c-0.278,0-0.554,0.012-0.828,0.019
					c-5.632-8.817-15.959-14.729-27.771-14.729c-17.838,0-32.301,13.475-32.301,30.096c0,0.215,0.014,0.429,0.018,0.646
					c-9.755,5.181-16.339,14.945-16.339,26.157c0,16.62,14.462,30.097,32.3,30.097c1.014,0,2.018-0.05,3.008-0.138
					c5.926,6.688,14.889,10.95,24.921,10.95c16.489,0,30.081-11.514,32.048-26.379C211.307,164.602,218.298,154.572,218.298,143.02z" style="fill:#D7F7E4;"></path>
				<path d="M169.007,197.523c-9.84,0-19.103-3.963-25.537-10.897c-0.815,0.057-1.617,0.085-2.392,0.085
					c-18.638,0-33.8-14.174-33.8-31.597c0-11.044,6.23-21.322,16.322-27.036c0.134-17.315,15.246-31.363,33.8-31.363
					c11.535,0,22.398,5.615,28.566,14.71c0.011,0,0.021,0,0.032,0c18.637,0,33.799,14.173,33.799,31.595
					c0,11.516-6.635,22.026-17.371,27.612C199.969,186.018,185.751,197.523,169.007,197.523z M144.707,183.513l0.502,0.565
					c5.881,6.639,14.555,10.445,23.798,10.445c15.531,0,28.669-10.78,30.561-25.075l0.105-0.796l0.72-0.354
					c10.119-4.978,16.405-14.664,16.405-25.279c0-15.768-13.816-28.595-30.799-28.595c-0.179,0-0.355,0.006-0.532,0.011
					l-1.104,0.028l-0.455-0.713c-5.531-8.658-15.688-14.037-26.507-14.037c-16.983,0-30.801,12.828-30.801,28.596
					c0,0.108,0.004,0.217,0.009,0.325l0.028,1.213l-0.815,0.434c-9.587,5.091-15.543,14.606-15.543,24.832
					c0,15.769,13.817,28.597,30.8,28.597c0.922,0,1.89-0.044,2.875-0.132L144.707,183.513z" style="fill:#CCCCDE;"></path>
			</g>
			<path d="M185.456,111.841c-0.276,0-0.552,0.012-0.827,0.019
				c-4.516-7.071-12.051-12.269-20.949-14.052c7.041,1.766,12.971,6.049,16.614,11.751c0.237-0.006,3.474,5.586,3.713,5.586
				c15.308,0,22.429,8.248,22.429,22.511c0,9.914-3.715,16.231-12.513,20.562c-1.687,12.754-13.353,22.635-27.5,22.635
				c-8.61,0-16.302-3.655-21.387-9.396c-0.851,0.071-1.71,0.114-2.58,0.114c-15.31,0-27.332-7.254-27.332-21.516
				c0-9.604,4.298-14.337,12.12-20.039c-0.209-1.234-1.077-12.104,1.82-15.002c6.89-6.89,10.011-12.808,16.174-15.868
				c-12.096,4.349-20.679,15.277-20.679,28.08c0,0.215,0.011,0.429,0.017,0.646c-9.756,5.178-16.34,14.947-16.34,26.156
				c0,16.621,14.461,30.097,32.3,30.097c1.017,0,2.017-0.049,3.008-0.135c5.925,6.688,14.89,10.948,24.922,10.948
				c16.487,0,30.078-11.515,32.046-26.379c10.254-5.043,17.244-15.069,17.244-26.623
				C217.756,125.314,203.295,111.841,185.456,111.841z" style="opacity:0.1;fill:#6E6E96;enable-background:new    ;"></path>
			<g>
				<path d="M139.484,159.296c0,0,16.727,3.272,16.727,19.644c0,0,4.504,27.806-12.904,47.479h40.195
					c-0.398-0.555-35.107-46.922,3.521-74.483C163.464,165.396,139.484,159.296,139.484,159.296z" style="fill:#EDE3DA;"></path>
				<path d="M183.502,227.919h-43.525l2.207-2.494c16.743-18.923,12.591-45.975,12.547-46.245l-0.02-0.24
					c0-13.557-12.515-17.422-15.086-18.071c-0.336-0.074-0.511-0.118-0.511-0.118l0.658-2.926c0,0,0.192,0.037,0.538,0.123
					c1.35,0.295,6.158,1.228,12.813,1.228c8.306,0,20.799-1.481,33.155-8.542l1.615,2.523c-9.683,6.909-15.433,15.65-17.091,25.981
					c-3.511,21.875,12.089,43.914,13.88,46.355l1.75,2.387L183.502,227.919z M146.496,224.919h34.145
					c-4.574-6.925-15.961-26.556-12.799-46.256c1.263-7.87,4.703-14.87,10.258-20.905c-9.522,3.547-18.479,4.417-24.976,4.417
					c-1.404,0-2.727-0.039-3.958-0.104c4.314,3.1,8.506,8.287,8.545,16.75C158.048,181.028,161.4,205.69,146.496,224.919z" style="fill:#CCCCDE;"></path>
			</g>
			<g>
				<path d="M150.077,126.465" style="fill:#D57E58;"></path>
			</g>
			<path d="M176.997,159.251c0,0-25.378,32.767-5.873,67.164h12.378
				C183.502,226.415,157.748,190.423,176.997,159.251z" style="opacity:0.11;fill:#6E6E96;enable-background:new    ;"></path>
		</g>
		<g style="display:inline;">
			<g>
				<path d="M146.461,144.131c0-13.645-11.873-24.707-26.517-24.707c-0.229,0-0.454,0.01-0.68,0.016
					c-4.624-7.239-13.102-12.092-22.8-12.092c-14.644,0-26.518,11.063-26.518,24.707c0,0.178,0.012,0.354,0.015,0.529
					c-8.01,4.251-13.414,12.271-13.414,21.477c0,13.646,11.872,24.707,26.518,24.707c0.832,0,1.655-0.041,2.469-0.106
					c4.864,5.485,12.224,8.985,20.46,8.985c13.537,0,24.695-9.45,26.309-21.653C140.721,161.85,146.461,153.617,146.461,144.131z" style="fill:#D7F7E4;"></path>
				<path d="M105.994,189.146c-8.109,0-15.748-3.248-21.079-8.938c-0.648,0.039-1.259,0.059-1.851,0.059
					c-15.449,0-28.018-11.757-28.018-26.207c0-9.119,5.111-17.604,13.401-22.354c0.2-14.291,12.691-25.858,28.016-25.858
					c9.509,0,18.468,4.606,23.595,12.076c15.396,0.059,27.902,11.793,27.902,26.207c0,9.511-5.454,18.196-14.288,22.848
					C131.576,179.672,119.825,189.146,105.994,189.146z M86.16,177.106l0.497,0.56c4.778,5.39,11.827,8.48,19.337,8.48
					c12.617,0,23.288-8.749,24.821-20.35l0.105-0.795l0.72-0.354c8.216-4.045,13.32-11.906,13.32-20.517
					c0-12.797-11.223-23.207-25.017-23.207c-0.145,0-0.287,0.005-0.429,0.009l-1.059,0.028L118,120.248
					c-4.492-7.031-12.744-11.399-21.536-11.399c-13.795,0-25.018,10.411-25.018,23.207l0.03,1.423l-0.812,0.432
					c-7.783,4.13-12.617,11.852-12.617,20.151c0,12.797,11.223,23.207,25.018,23.207c0.73,0,1.498-0.033,2.349-0.102L86.16,177.106z" style="fill:#CCCCDE;"></path>
			</g>
			<path d="M119.498,118.535c-0.228,0-0.452,0.009-0.679,0.015
				c-3.707-5.805-9.894-10.072-17.199-11.537c5.78,1.45,10.648,4.966,13.641,9.647c0.194-0.005,2.851,4.586,3.048,4.586
				c12.567,0,18.414,6.771,18.414,18.48c0,8.139-3.05,13.325-10.271,16.881c-1.384,10.472-10.961,18.584-22.576,18.584
				c-7.069,0-13.384-3.004-17.559-7.715c-0.698,0.061-1.404,0.096-2.118,0.096c-12.568,0-22.438-5.957-22.438-17.664
				c0-7.885,3.528-11.771,9.949-16.452c-0.171-1.015-0.884-9.938,1.496-12.316c5.655-5.657,8.218-10.515,13.277-13.028
				c-9.93,3.571-16.978,12.542-16.978,23.053c0,0.177,0.01,0.353,0.015,0.528c-8.011,4.25-13.415,12.271-13.415,21.477
				c0,13.645,11.873,24.706,26.518,24.706c0.834,0,1.655-0.04,2.469-0.108c4.864,5.488,12.224,8.988,20.461,8.988
				c13.536,0,24.693-9.451,26.311-21.656c8.418-4.141,14.158-12.371,14.158-21.854C146.016,129.598,134.143,118.535,119.498,118.535
				z" style="opacity:0.1;fill:#6E6E96;enable-background:new    ;"></path>
			<g>
				<path d="M81.757,157.494c0,0,13.731,2.688,13.731,16.128c0,0,3.697,22.823-10.595,38.978h33
					c-0.328-0.455-28.824-38.521,2.89-61.151C101.443,162.502,81.757,157.494,81.757,157.494z" style="fill:#EDE3DA;"></path>
				<path d="M117.893,214.1h-36.33l2.207-2.494c13.636-15.412,10.273-37.523,10.237-37.744l-0.019-0.239
					c0-10.926-10.094-14.049-12.179-14.576c-0.278-0.062-0.422-0.098-0.422-0.098l0.658-2.926c0,0,0.161,0.03,0.451,0.103
					c1.105,0.241,5.025,1.001,10.455,1.001c6.786,0,16.995-1.211,27.088-6.98l1.615,2.523c-7.892,5.632-12.577,12.753-13.924,21.167
					c-2.861,17.866,9.887,35.854,11.351,37.847l1.753,2.388L117.893,214.1z M88.055,211.1h26.991
					c-3.932-6.047-12.823-21.844-10.278-37.738c0.989-6.177,3.596-11.703,7.777-16.517c-7.478,2.623-14.465,3.281-19.595,3.281
					c-0.833,0-1.63-0.017-2.39-0.046c3.334,2.627,6.39,6.832,6.426,13.424C97.28,175.44,99.933,195.348,88.055,211.1z" style="fill:#CCCCDE;"></path>
			</g>
			<g>
				<path d="M90.453,130.541" style="fill:#D57E58;"></path>
			</g>
			<path d="M112.553,157.458c0,0-20.835,26.899-4.821,55.142h10.162
				C117.894,212.6,96.75,183.049,112.553,157.458z" style="opacity:0.11;fill:#6E6E96;enable-background:new    ;"></path>
		</g>
		<g style="display:inline;">
			<g>
				<path d="M253.684,168.268c0-12.345-10.74-22.35-23.988-22.35c-0.202,0-0.406,0.008-0.61,0.014
					c-4.187-6.549-11.854-10.938-20.625-10.938c-13.248,0-23.985,10.007-23.985,22.35c0,0.161,0.012,0.318,0.014,0.479
					c-7.244,3.849-12.135,11.104-12.135,19.431c0,12.348,10.736,22.354,23.985,22.354c0.753,0,1.497-0.039,2.229-0.104
					c4.4,4.969,11.062,8.135,18.512,8.135c12.245,0,22.339-8.553,23.799-19.593C248.49,184.295,253.684,176.85,253.684,168.268z" style="fill:#D7F7E4;"></path>
				<path d="M217.08,209.139c-7.354,0-14.28-2.938-19.127-8.084c-0.557,0.035-1.09,0.053-1.614,0.053
					c-14.053,0-25.485-10.7-25.485-23.854c0-8.272,4.622-15.974,12.125-20.309c0.228-12.967,11.571-23.451,25.481-23.451
					c8.62,0,16.746,4.166,21.42,10.925c13.97,0.093,25.304,10.756,25.304,23.849c0,8.632-4.936,16.519-12.936,20.763
					C240.308,200.55,229.636,209.139,217.08,209.139z M199.19,197.943l0.501,0.566c4.294,4.849,10.632,7.629,17.389,7.629
					c11.341,0,20.933-7.862,22.312-18.289l0.105-0.795l0.719-0.354c7.382-3.638,11.968-10.701,11.968-18.433
					c0-11.496-10.088-20.85-22.488-20.85c-0.146,0-0.294,0.005-0.441,0.009l-0.976,0.028l-0.457-0.716
					c-4.04-6.319-11.459-10.245-19.361-10.245c-12.398,0-22.485,9.354-22.485,20.85l0.024,1.375l-0.807,0.429
					c-6.994,3.716-11.339,10.654-11.339,18.106c0,11.499,10.087,20.854,22.485,20.854c0.664,0,1.351-0.032,2.098-0.098
					L199.19,197.943z" style="fill:#CCCCDE;"></path>
			</g>
			<path d="M229.292,145.111c-0.206,0-0.409,0.011-0.614,0.016
				c-3.354-5.251-8.949-9.111-15.558-10.438c5.229,1.312,9.633,4.492,12.339,8.728c0.175-0.004,2.579,4.149,2.757,4.149
				c11.368,0,16.655,6.123,16.655,16.718c0,7.362-2.757,12.055-9.291,15.271c-1.252,9.473-9.915,16.813-20.423,16.813
				c-6.396,0-12.106-2.72-15.884-6.979c-0.631,0.055-1.271,0.086-1.916,0.086c-11.368,0-20.299-5.389-20.299-15.979
				c0-7.135,3.189-10.646,9.002-14.885c-0.156-0.918-0.804-8.987,1.353-11.142c5.116-5.116,7.435-9.513,12.011-11.784
				c-8.98,3.229-15.357,11.346-15.357,20.854c0,0.159,0.013,0.316,0.017,0.479c-7.246,3.847-12.137,11.104-12.137,19.429
				c0,12.343,10.737,22.35,23.987,22.35c0.754,0,1.496-0.035,2.231-0.1c4.401,4.966,11.06,8.132,18.509,8.132
				c12.245,0,22.338-8.553,23.799-19.592c7.615-3.743,12.812-11.191,12.812-19.771C253.279,155.118,242.541,145.111,229.292,145.111
				z" style="opacity:0.1;fill:#6E6E96;enable-background:new    ;"></path>
			<g>
				<path d="M195.15,180.355c0,0,12.422,2.431,12.422,14.588c0,0,3.345,20.646-9.584,35.259h29.853
					c-0.296-0.41-26.073-34.847,2.615-55.317C212.96,184.887,195.15,180.355,195.15,180.355z" style="fill:#EDE3DA;"></path>
				<path d="M227.841,231.702h-33.183l2.207-2.494c12.288-13.89,9.258-33.826,9.227-34.026l-0.02-0.238
					c0-9.771-9.034-12.57-10.906-13.045c-0.254-0.056-0.386-0.089-0.386-0.089l0.658-2.926c0,0,0.148,0.028,0.414,0.095
					c0.999,0.218,4.531,0.9,9.425,0.9c6.122,0,15.33-1.092,24.435-6.296l1.615,2.522c-7.106,5.071-11.325,11.482-12.537,19.054
					c-2.579,16.108,8.921,32.332,10.241,34.129l1.754,2.389L227.841,231.702z M201.134,228.702h23.868
					c-3.634-5.641-11.454-19.779-9.175-34.017c0.872-5.444,3.125-10.332,6.725-14.611c-6.594,2.236-12.737,2.805-17.274,2.805
					c-0.6,0-1.179-0.009-1.737-0.026c2.908,2.41,5.497,6.182,5.532,11.973C209.345,196.638,211.695,214.473,201.134,228.702z" style="fill:#CCCCDE;"></path>
			</g>
			<g>
				<path d="M203.018,155.975" style="fill:#D57E58;"></path>
			</g>
			<path d="M223.01,180.322c0,0-18.847,24.334-4.361,49.88h9.192
				C227.841,230.202,208.714,203.473,223.01,180.322z" style="opacity:0.11;fill:#6E6E96;enable-background:new    ;"></path>
		</g>
		<g style="display:inline;">
			<g>
				<path d="M89.418,166.416c0-13.111-11.408-23.738-25.479-23.738c-0.22,0-0.436,0.008-0.653,0.014
					c-4.443-6.954-12.589-11.614-21.907-11.614c-14.071,0-25.48,10.629-25.48,23.737c0,0.17,0.011,0.336,0.015,0.507
					c-7.695,4.086-12.889,11.795-12.889,20.64c0,13.107,11.407,23.737,25.479,23.737c0.8,0,1.59-0.041,2.372-0.104
					c4.674,5.271,11.745,8.639,19.659,8.639c13.007,0,23.729-9.082,25.279-20.81C83.903,183.439,89.418,175.531,89.418,166.416z" style="fill:#D7F7E4;"></path>
				<path d="M50.535,209.732c-7.796,0-15.142-3.122-20.277-8.591c-0.62,0.038-1.198,0.057-1.754,0.057
					c-14.876,0-26.979-11.321-26.979-25.237c0-8.772,4.911-16.938,12.877-21.518c0.213-13.745,12.233-24.866,26.977-24.866
					c9.146,0,17.764,4.425,22.703,11.601c14.81,0.073,26.836,11.367,26.836,25.238c0,9.149-5.242,17.508-13.734,21.992
					C75.152,200.621,63.844,209.732,50.535,209.732z M31.501,198.038l0.497,0.561c4.583,5.169,11.339,8.134,18.537,8.134
					c12.094,0,22.322-8.386,23.792-19.506l0.105-0.795l0.719-0.354c7.875-3.878,12.767-11.412,12.767-19.661
					c0-12.263-10.757-22.238-23.979-22.238c-0.162,0-0.321,0.005-0.48,0.01l-0.98,0.026l-0.457-0.715
					c-4.304-6.737-12.214-10.922-20.643-10.922c-13.223,0-23.98,9.976-23.98,22.237l0.036,1.397l-0.817,0.435
					c-7.459,3.96-12.093,11.361-12.093,19.314c0,12.262,10.757,22.237,23.979,22.237c0.689,0,1.425-0.032,2.251-0.1L31.501,198.038z" style="fill:#CCCCDE;"></path>
			</g>
			<path d="M63.511,141.822c-0.219,0-0.435,0.01-0.652,0.015
				c-3.562-5.577-9.506-9.678-16.525-11.085c5.553,1.393,10.231,4.771,13.106,9.27c0.186-0.004,2.739,4.406,2.928,4.406
				c12.076,0,17.692,6.506,17.692,17.758c0,7.82-2.929,12.806-9.87,16.222c-1.33,10.063-10.531,17.854-21.693,17.854
				c-6.792,0-12.859-2.886-16.871-7.412c-0.67,0.058-1.348,0.092-2.035,0.092c-12.076,0-21.561-5.723-21.561-16.975
				c0-7.574,3.391-11.308,9.561-15.807c-0.165-0.975-0.85-9.549,1.437-11.836c5.435-5.434,7.896-10.103,12.758-12.516
				c-9.541,3.43-16.313,12.051-16.313,22.146c0,0.17,0.01,0.338,0.014,0.508c-7.696,4.084-12.889,11.792-12.889,20.639
				c0,13.106,11.407,23.735,25.479,23.735c0.801,0,1.591-0.039,2.373-0.104c4.674,5.272,11.745,8.639,19.659,8.639
				c13.006,0,23.728-9.081,25.278-20.809c8.089-3.979,13.604-11.892,13.604-21.002C88.991,152.449,77.583,141.822,63.511,141.822z" style="opacity:0.1;fill:#6E6E96;enable-background:new    ;"></path>
			<g>
				<path d="M27.248,179.256c0,0,13.193,2.583,13.193,15.496c0,0,3.553,21.932-10.179,37.45h31.707
					c-0.314-0.437-27.694-37.015,2.777-58.759C46.163,184.066,27.248,179.256,27.248,179.256z" style="fill:#EDE3DA;"></path>
				<path d="M61.969,233.702H26.932l2.207-2.494c13.083-14.784,9.855-36.005,9.821-36.217l-0.019-0.239
					c0-10.454-9.661-13.443-11.658-13.948c-0.266-0.059-0.405-0.094-0.405-0.094l0.658-2.926c0,0,0.155,0.029,0.434,0.099
					c1.061,0.231,4.819,0.96,10.029,0.96c6.514,0,16.314-1.163,26.002-6.701l1.616,2.522c-7.567,5.4-12.06,12.228-13.353,20.293
					c-2.748,17.136,9.488,34.414,10.893,36.328l1.751,2.388L61.969,233.702z M33.418,230.702h25.708
					c-3.81-5.884-12.263-21.012-9.824-36.22c0.941-5.872,3.401-11.134,7.34-15.726c-7.116,2.464-13.756,3.086-18.643,3.086
					c-0.734,0-1.44-0.014-2.115-0.038c3.159,2.54,6.021,6.566,6.057,12.829C42.226,196.521,44.755,215.578,33.418,230.702z" style="fill:#CCCCDE;"></path>
			</g>
			<g>
				<path d="M35.603,153.357" style="fill:#D57E58;"></path>
			</g>
			<path d="M56.838,179.221c0,0-20.02,25.848-4.633,52.981h9.764
				C61.969,232.202,41.654,203.811,56.838,179.221z" style="opacity:0.11;fill:#6E6E96;enable-background:new    ;"></path>
		</g>
	</g>
	<g>
		<path d="M245.586,85.79c0-0.069,0.006-0.136,0.006-0.206c0-7.241-6.388-13.111-14.27-13.111
			c-6.782,0-12.461,4.353-13.906,10.184c-0.223-0.017-0.448-0.028-0.675-0.028c-4.688,0-8.487,3.492-8.487,7.801
			c0,0.923,0.178,1.809,0.497,2.63c-1.313,1.708-2.091,3.795-2.091,6.047c0,5.709,4.969,10.349,11.15,10.474v0.005h21.924
			c7.514,0,13.604-5.598,13.604-12.505C253.34,92.099,250.171,87.801,245.586,85.79z" style="fill:#FFFFFF;"></path>
		<path d="M239.734,111.086h-21.924c-0.054,0-0.107-0.003-0.16-0.008c-6.898-0.205-12.49-5.549-12.49-11.971
			c0-2.244,0.663-4.405,1.926-6.297c-0.221-0.776-0.332-1.573-0.332-2.379c0-4.991,4.243-9.077,9.547-9.292
			c2.062-6.042,8.065-10.165,15.021-10.165c8.425,0,15.328,6.153,15.749,13.864c4.75,2.454,7.769,7.164,7.768,12.244
			C254.839,104.803,248.063,111.086,239.734,111.086z M217.932,108.086h21.803c6.675,0,12.104-4.937,12.104-11.005
			c0.001-4.198-2.69-8.091-6.855-9.917c-0.545-0.239-0.897-0.778-0.897-1.374l0.004-0.167c0.002-6.441-5.727-11.65-12.768-11.65
			c-5.915,0-11.151,3.804-12.45,9.045c-0.177,0.711-0.829,1.192-1.571,1.135c-0.185-0.014-0.371-0.024-0.56-0.024
			c-3.853,0-6.987,2.827-6.987,6.301c0,0.71,0.133,1.412,0.395,2.086c0.19,0.489,0.111,1.042-0.208,1.458
			c-1.165,1.514-1.78,3.289-1.78,5.132c0,4.841,4.343,8.867,9.681,8.975C217.871,108.082,217.902,108.083,217.932,108.086z" style="fill:#CCCCDE;"></path>
	</g>
	<g id="Layer_7_3_">
		<path d="M48.404,63.045c0-0.08,0.007-0.166,0.007-0.248c0-8.774-7.742-15.891-17.288-15.891
			c-8.221,0-15.098,5.272-16.851,12.34c-0.269-0.02-0.542-0.031-0.816-0.031c-5.681,0-10.284,4.232-10.284,9.448
			c0,1.12,0.213,2.193,0.602,3.19c-1.596,2.07-2.535,4.596-2.535,7.325c0,6.917,6.021,12.54,13.513,12.691v0.006h26.563
			c9.105,0,16.488-6.784,16.488-15.153C57.803,70.692,53.959,65.481,48.404,63.045z" style="fill:#FFFFFF;"></path>
		<path d="M41.315,93.375H14.752c-0.058,0-0.115-0.003-0.171-0.01C6.384,93.129-0.261,86.792-0.261,79.178
			c0-2.706,0.814-5.308,2.364-7.575c-0.286-0.954-0.431-1.939-0.431-2.939c0-5.942,5.121-10.794,11.479-10.945
			c2.386-7.308,9.6-12.312,17.972-12.312c10.104,0,18.37,7.421,18.773,16.684c5.746,2.896,9.407,8.541,9.407,14.632
			C59.303,85.905,51.234,93.375,41.315,93.375z M14.885,90.375h26.43c8.265,0,14.988-6.125,14.988-13.653
			c0-5.209-3.337-10.039-8.502-12.304c-0.545-0.239-0.897-0.778-0.897-1.374l0.005-0.188c0.002-7.995-7.08-14.45-15.786-14.45
			c-7.311,0-13.786,4.71-15.395,11.201c-0.176,0.709-0.844,1.184-1.567,1.135c-0.232-0.018-0.468-0.027-0.705-0.027
			c-4.844,0-8.784,3.565-8.784,7.948c0,0.906,0.168,1.795,0.5,2.645c0.191,0.49,0.112,1.044-0.209,1.461
			c-1.455,1.886-2.223,4.103-2.223,6.409c0,6.037,5.403,11.058,12.043,11.192C14.817,90.37,14.851,90.372,14.885,90.375z" style="fill:#CCCCDE;"></path>
	</g>
	<path d="M140.748,253.117c28.939,0,53.959-17.174,66.072-42.166l-172.489-3.118
		c12.243,9.287,26.176,17.901,42.541,17.901c2.32,0,4.612-0.122,6.878-0.336C97.301,242.327,117.801,253.117,140.748,253.117z" style="fill:#D6F0FF;"></path>
	<path d="M206.82,200.951H33.15c-11.4,0,1.181,6.882,1.181,6.882
		h168.714C204.416,205.615,205.674,203.316,206.82,200.951z" style="opacity:0.1;fill:#6E6E96;enable-background:new    ;"></path>
	<rect height="3" width="12.667" style="fill:#FFFFFF;" y="222" x="169"></rect>
	<rect height="3" width="34.667" style="fill:#FFFFFF;" y="240.667" x="123.667"></rect>
	<rect height="3" width="25.424" style="fill:#FFFFFF;" y="217.333" x="87.576"></rect>
	<rect height="3" width="20.417" style="fill:#FFFFFF;" y="224.227" x="125.667"></rect>
	<g id="Layer_7_1_">
		<path d="M64.669,125.765c-3.129-2.876-7.451-4.655-12.225-4.655c-8.221,0-15.098,5.273-16.852,12.341
			c-0.269-0.02-0.541-0.03-0.816-0.03c-5.68,0-10.283,4.231-10.283,9.447c0,1.121,0.213,2.192,0.602,3.19
			c-1.596,2.069-2.535,4.597-2.535,7.324c0,6.917,6.021,12.54,13.514,12.691v0.006h6.01" style="fill:#FFFFFF;"></path>
		<path d="M42.084,167.58h-6.01c-0.058,0-0.115-0.003-0.17-0.01c-8.198-0.235-14.844-6.573-14.844-14.188
			c0-2.707,0.814-5.309,2.364-7.575c-0.286-0.954-0.431-1.94-0.431-2.939c0-5.941,5.121-10.792,11.477-10.943
			c2.387-7.31,9.602-12.315,17.974-12.315c4.995,0,9.697,1.794,13.24,5.051c0.61,0.561,0.65,1.51,0.089,2.12
			c-0.56,0.608-1.51,0.65-2.12,0.089c-2.988-2.747-6.97-4.26-11.21-4.26c-7.31,0-13.785,4.711-15.396,11.203
			c-0.176,0.709-0.832,1.197-1.565,1.135c-0.232-0.017-0.469-0.026-0.707-0.026c-4.843,0-8.783,3.565-8.783,7.947
			c0,0.905,0.168,1.795,0.5,2.646c0.191,0.49,0.111,1.045-0.21,1.461c-1.454,1.886-2.223,4.102-2.223,6.408
			c0,6.037,5.403,11.058,12.044,11.191c0.035,0.001,0.069,0.003,0.103,0.006h5.877c0.829,0,1.5,0.672,1.5,1.5
			S42.913,167.58,42.084,167.58z" style="fill:#6E6E96;"></path>
	</g>
	<polygon points="83.466,190.494 125.25,101.559 165.814,178.634 124.895,78.944" style="fill:#D6D6EB;"></polygon>
	<g>
		<path d="M108.669,152.926c0-0.096,0.008-0.187,0.008-0.281c0-9.877-8.716-17.893-19.472-17.893
			c-9.252,0-17,5.938-18.975,13.895c-0.307-0.023-0.612-0.035-0.921-0.035c-6.398,0-11.583,4.767-11.583,10.643
			c0,1.259,0.242,2.471,0.68,3.588c-1.795,2.33-2.854,5.18-2.854,8.25c0,7.791,6.78,14.123,15.212,14.292v0.009h29.915
			c10.253,0,18.567-7.639,18.567-17.064C119.25,161.535,114.926,155.67,108.669,152.926z" style="fill:#FFFFFF;"></path>
		<path d="M58.661,159.934c-0.217-0.554-0.378-1.132-0.487-1.728
			c-0.013,0.206-0.021,0.412-0.021,0.621c0,0.551,0.055,1.091,0.144,1.62C58.417,160.273,58.533,160.1,58.661,159.934z
			 M109.096,152.499c0-0.095,0.008-0.187,0.008-0.28c0-8.068-5.815-14.891-13.807-17.121c6.261,2.672,10.604,8.497,10.604,15.256
			c0,0.088-0.008,3.381-0.008,3.471c5.88,2.578,9.943,4.885,9.94,11.267c0,8.857-7.812,16.036-17.448,16.036H70.274v-0.008
			c-7.387-0.148-13.422-5.33-14.207-11.964c-0.057,0.497-0.088,1-0.088,1.511c0,7.79,6.78,14.122,15.212,14.292v0.008h29.915
			c10.254,0,18.567-7.64,18.567-17.063C119.677,161.109,115.353,155.244,109.096,152.499z" style="opacity:0.39;fill:#9FE1FF;enable-background:new    ;"></path>
		<path d="M100.679,186.893H70.764c-0.068,0-0.135-0.005-0.201-0.014
			c-9.121-0.268-16.512-7.316-16.512-15.787c0-3.038,0.923-5.959,2.679-8.498c-0.335-1.082-0.504-2.202-0.504-3.34
			c0-6.633,5.759-12.04,12.88-12.142c2.62-8.22,10.707-13.86,20.099-13.86c11.32,0,20.573,8.336,20.959,18.718
			c6.464,3.213,10.586,9.536,10.582,16.359C120.746,178.564,111.744,186.893,100.679,186.893z M70.927,183.893h29.752
			c9.411,0,17.067-6.982,17.067-15.564c0.003-5.942-3.796-11.448-9.68-14.028c-0.545-0.239-0.897-0.778-0.897-1.374l0.005-0.204
			c0.002-9.116-8.06-16.47-17.969-16.47c-8.317,0-15.685,5.364-17.519,12.756c-0.177,0.711-0.837,1.19-1.57,1.135
			c-0.269-0.021-0.536-0.031-0.807-0.031c-5.56,0-10.083,4.102-10.083,9.143c0,1.043,0.194,2.065,0.577,3.04
			c0.192,0.49,0.113,1.046-0.208,1.464c-1.663,2.158-2.542,4.694-2.542,7.334c0,6.902,6.165,12.641,13.743,12.792
			C70.839,183.885,70.883,183.888,70.927,183.893z" style="fill:#6E6E96;"></path>
	</g>
	<path d="M210.75,63.892h-23.333c-0.828,0-1.5-0.671-1.5-1.5s0.672-1.5,1.5-1.5h23.333
		c0.828,0,1.5,0.671,1.5,1.5S211.578,63.892,210.75,63.892z" style="fill:#FFFFFF;"></path>
	<path d="M201.084,73.226H174.75c-0.828,0-1.5-0.671-1.5-1.5s0.672-1.5,1.5-1.5h26.334
		c0.828,0,1.5,0.671,1.5,1.5S201.912,73.226,201.084,73.226z" style="fill:#FFFFFF;"></path>
	<path d="M219.417,73.226h-6.667c-0.828,0-1.5-0.671-1.5-1.5s0.672-1.5,1.5-1.5h6.667
		c0.828,0,1.5,0.671,1.5,1.5S220.245,73.226,219.417,73.226z" style="fill:#FFFFFF;"></path>
	<path d="M63.417,105.226h-22c-0.829,0-1.5-0.671-1.5-1.5s0.671-1.5,1.5-1.5h22c0.829,0,1.5,0.671,1.5,1.5
		S64.246,105.226,63.417,105.226z" style="fill:#FFFFFF;"></path>
	<path d="M82.75,105.226h-8c-0.829,0-1.5-0.671-1.5-1.5s0.671-1.5,1.5-1.5h8c0.829,0,1.5,0.671,1.5,1.5
		S83.579,105.226,82.75,105.226z" style="fill:#FFFFFF;"></path>
	<path d="M76.75,94.559h-14c-0.829,0-1.5-0.671-1.5-1.5s0.671-1.5,1.5-1.5h14c0.829,0,1.5,0.671,1.5,1.5
		S77.579,94.559,76.75,94.559z" style="fill:#FFFFFF;"></path>
</g>
<g id="Layer_2_1_">
</g>
</svg>
