<svg xml:space="preserve" style="enable-background:new 0 0 256.5 253.117;" viewBox="0 0 256.5 253.117" height="253.117px" width="256.5px" y="0px" x="0px" xmlns:xlink="http://www.w3.org/1999/xlink" xmlns="http://www.w3.org/2000/svg" id="Layer_1" version="1.1">
<g style="opacity:0.44;enable-background:new    ;">
	<path d="M252.479,119.326c0-40.701-33.074-73.693-73.871-73.693c-0.635,0-1.262,0.029-1.893,0.046
		c-12.881-21.591-36.498-36.067-63.514-36.067c-40.798,0-73.871,32.995-73.871,73.696c0,0.529,0.029,1.049,0.04,1.576
		C17.056,97.563,2,121.49,2,148.941c0,40.699,33.073,73.688,73.872,73.688c2.32,0,4.612-0.118,6.878-0.325
		c13.551,16.375,35.051,26.813,57.998,26.813c37.711,0,67.793-28.192,72.289-64.596
		C236.488,172.174,252.479,147.618,252.479,119.326z" style="fill:#B58F8F;"></path>
</g>
<path d="M2.569,139.834C2.2,142.818,2,145.857,2,148.941c0,40.699,33.073,73.688,73.872,73.688
	c2.32,0,4.612-0.118,6.878-0.325c13.551,16.375,35.051,26.813,57.998,26.813c37.711,0,67.793-28.192,72.289-64.596
	c17.551-9.242,30.922-25.322,36.539-44.688L2.569,139.834L2.569,139.834z" style="fill:#FAF0E6;"></path>
<g>
	<polygon points="126.959,120.721 179.475,45.56 242.312,120.721" style="fill:#CECEDB;"></polygon>
	<path d="M242.332,122.221c-0.005,0-0.013,0.001-0.02,0H126.959c-0.559,0-1.072-0.311-1.33-0.807
		c-0.258-0.496-0.22-1.094,0.101-1.552l52.516-75.161c0.268-0.383,0.698-0.62,1.165-0.64c0.467-0.015,0.916,0.179,1.215,0.537
		l62.709,75.006c0.306,0.275,0.498,0.673,0.498,1.117C243.832,121.549,243.161,122.221,242.332,122.221z M129.837,119.221h109.267
		l-59.522-71.194L129.837,119.221z" style="fill:#CCCCDE;"></path>
</g>
<g>
	<polygon points="32.083,120.721 79.549,52.783 136.35,120.721" style="fill:#CECEDB;"></polygon>
	<path d="M136.369,122.221c-0.005,0-0.013,0.001-0.02,0H32.083c-0.559,0-1.072-0.311-1.33-0.807
		s-0.22-1.094,0.101-1.552l47.466-67.938c0.268-0.383,0.698-0.62,1.165-0.64c0.483-0.012,0.917,0.178,1.216,0.537l56.671,67.783
		c0.306,0.275,0.498,0.673,0.498,1.117C137.869,121.549,137.198,122.221,136.369,122.221z M34.961,119.221h98.18L79.656,55.25
		L34.961,119.221z" style="fill:#CCCCDE;"></path>
</g>
<g>
	<polygon points="61.751,120.721 127.744,26.27 206.71,120.721" style="fill:#CECEDB;"></polygon>
	<path d="M206.729,122.221c-0.005,0-0.012,0.001-0.02,0H61.751c-0.559,0-1.072-0.311-1.33-0.807
		s-0.22-1.094,0.101-1.552l65.993-94.451c0.268-0.383,0.698-0.62,1.165-0.64c0.484-0.016,0.917,0.179,1.215,0.537l78.837,94.296
		c0.306,0.275,0.498,0.673,0.498,1.117C208.229,121.549,207.559,122.221,206.729,122.221z M64.629,119.221h138.872l-75.65-90.484
		L64.629,119.221z" style="fill:#CCCCDE;"></path>
</g>
<g style="opacity:0.1;enable-background:new    ;">
	<polygon points="127.744,26.27 168.665,103.232 127.489,70.924 147.241,106.384 86.316,112.388 
		117.115,41.481 61.751,120.721 206.159,120.043" style="fill:#6E6E96;"></polygon>
</g>
<g style="opacity:0.1;enable-background:new    ;">
	<polygon points="79.549,52.783 50.16,112.688 92.821,68.657 95.711,72.115 61.751,120.721 32.083,120.721" style="fill:#6E6E96;"></polygon>
</g>
<g style="opacity:0.1;enable-background:new    ;">
	<polygon points="164.493,70.216 212.854,114.264 226.245,114.264 179.475,45.56 242.312,120.721 
		206.159,120.568" style="fill:#6E6E96;"></polygon>
</g>
<path d="M2.489,140.5h246.883c2.015-6.707,3.106-13.812,3.106-21.174c0-8.174-1.354-16.028-3.816-23.375
	H24.571C12.569,107.508,4.483,123.077,2.489,140.5z" style="fill:#C4DBE8;"></path>
<rect height="3" width="224.091" style="fill:#CCCCDE;" y="94.451" x="24.571"></rect>
<rect height="3" width="246.883" style="fill:#CCCCDE;" y="139" x="2.489"></rect>
<rect height="3" width="46" style="fill:#FFFFFF;" y="121" x="31.333"></rect>
<g style="opacity:0.61;enable-background:new    ;">
	<rect height="3" width="39.334" style="fill:#FFFFFF;" y="104.333" x="113.333"></rect>
</g>
<rect height="3" width="34.667" style="fill:#FFFFFF;" y="129.667" x="180.667"></rect>
<g style="opacity:0.48;enable-background:new    ;">
	<rect height="3" width="10" style="fill:#FFFFFF;" y="107" x="193.334"></rect>
</g>
<g style="opacity:0.48;enable-background:new    ;">
	<rect height="3" width="15.334" style="fill:#FFFFFF;" y="110.333" x="77.333"></rect>
</g>
<g style="opacity:0.48;enable-background:new    ;">
	<rect height="3" width="5.333" style="fill:#FFFFFF;" y="126.333" x="6.667"></rect>
</g>
<g style="opacity:0.1;enable-background:new    ;">
	<path d="M250.598,102.833c-0.535-2.339-1.183-4.634-1.936-6.882H24.571
		c-2.242,2.159-4.345,4.458-6.299,6.882H250.598z" style="fill:#6E6E96;"></path>
</g>
<g style="opacity:0.38;enable-background:new    ;">
	<polygon points="3,133.5 252,133.5 249.372,140.5 2,138.834" style="fill:#FFFFFF;"></polygon>
</g>
<g style="display:none;" id="Layer_3_1_">
	<g style="display:inline;">
		<path d="M84.16,142.542c0-11.563-10.059-20.936-22.467-20.936
			c-0.194,0-0.385,0.009-0.576,0.014c-3.917-6.134-11.102-10.245-19.318-10.245c-12.409,0-22.469,9.372-22.469,20.936
			c0,0.149,0.009,0.297,0.012,0.446c-6.785,3.603-11.365,10.399-11.365,18.198c0,11.562,10.059,20.934,22.468,20.934
			c0.705,0,1.403-0.033,2.092-0.094c4.122,4.65,10.358,7.617,17.335,7.617c11.471,0,20.925-8.01,22.293-18.35
			C79.297,157.555,84.16,150.579,84.16,142.542z" style="fill:#D7F7E4;stroke:#CCCCDE;stroke-width:3;"></path>
		<path d="M61.314,120.853c-0.193,0-0.384,0.009-0.575,0.014
			c-3.141-4.918-8.383-8.534-14.573-9.775c4.898,1.229,9.023,4.208,11.558,8.175c0.165-0.004,2.416,3.886,2.583,3.886
			c10.648,0,15.601,5.738,15.601,15.66c0,6.896-2.583,11.291-8.704,14.302c-1.173,8.875-9.287,15.748-19.129,15.748
			c-5.99,0-11.34-2.544-14.877-6.532c-0.591,0.05-1.189,0.077-1.794,0.077c-10.649,0-19.013-5.048-19.013-14.968
			c0-6.683,2.99-9.973,8.432-13.938c-0.145-0.855-0.75-8.421,1.267-10.437c4.792-4.793,6.963-8.909,11.25-11.038
			c-8.414,3.025-14.385,10.627-14.385,19.536c0,0.147,0.009,0.3,0.012,0.447c-6.787,3.604-11.366,10.396-11.366,18.195
			c0,11.562,10.059,20.938,22.468,20.938c0.707,0,1.403-0.035,2.093-0.098c4.121,4.648,10.356,7.617,17.336,7.617
			c11.469,0,20.924-8.012,22.291-18.354c7.133-3.507,11.997-10.479,11.997-18.521C83.783,130.227,73.724,120.853,61.314,120.853z" style="opacity:0.1;fill:#6E6E96;enable-background:new    ;"></path>
		<path d="M29.336,153.865c0,0,11.635,2.277,11.635,13.662
			c0,0,3.132,19.342-8.976,33.026h27.96c-0.277-0.388-24.422-32.645,2.449-51.815C46.016,158.107,29.336,153.865,29.336,153.865z" style="fill:#EDE3DA;stroke:#CCCCDE;stroke-width:3;"></path>
		<g>
			<path d="M36.703,131.025" style="fill:#D57E58;"></path>
		</g>
		<path d="M55.43,153.833c0,0-17.654,22.793-4.085,46.722h8.611
			C59.955,200.555,42.04,175.518,55.43,153.833z" style="opacity:0.11;fill:#6E6E96;enable-background:new    ;"></path>
	</g>
	<g style="display:inline;">
		<path d="M254,141.26c0-10.828-9.42-19.604-21.04-19.604
			c-0.183,0-0.36,0.008-0.539,0.013c-3.669-5.744-10.396-9.595-18.091-9.595c-11.62,0-21.041,8.777-21.041,19.604
			c0,0.141,0.009,0.279,0.012,0.418c-6.354,3.375-10.644,9.739-10.644,17.043c0,10.825,9.421,19.604,21.04,19.604
			c0.66,0,1.312-0.032,1.96-0.089c3.858,4.354,9.698,7.134,16.233,7.134c10.737,0,19.596-7.499,20.875-17.185
			C249.445,155.316,254,148.786,254,141.26z" style="fill:#D7F7E4;stroke:#CCCCDE;stroke-width:3;"></path>
		<path d="M232.605,120.949c-0.185,0-0.358,0.008-0.539,0.012
			c-2.94-4.606-7.854-7.992-13.646-9.154c4.586,1.15,8.449,3.94,10.822,7.655c0.154-0.004,2.263,3.639,2.419,3.639
			c9.971,0,14.608,5.374,14.608,14.665c0,6.459-2.42,10.573-8.148,13.396c-1.1,8.311-8.698,14.742-17.914,14.742
			c-5.607,0-10.619-2.381-13.934-6.117c-0.558,0.047-1.112,0.072-1.683,0.072c-9.975,0-17.806-4.729-17.806-14.017
			c0-6.258,2.8-9.34,7.896-13.056c-0.139-0.807-0.701-7.885,1.188-9.772c4.484-4.488,6.521-8.343,10.533-10.337
			c-7.879,2.833-13.471,9.952-13.471,18.292c0,0.14,0.006,0.275,0.012,0.418c-6.354,3.373-10.646,9.736-10.646,17.041
			c0,10.824,9.421,19.604,21.041,19.604c0.661,0,1.313-0.032,1.959-0.09c3.859,4.355,9.699,7.135,16.234,7.135
			c10.739,0,19.594-7.5,20.875-17.188c6.68-3.285,11.231-9.812,11.231-17.342C253.646,129.727,244.227,120.949,232.605,120.949z" style="opacity:0.1;fill:#6E6E96;enable-background:new    ;"></path>
		<path d="M202.66,151.861c0,0,10.896,2.133,10.896,12.797
			c0,0,2.934,18.109-8.406,30.927h26.184c-0.26-0.358-22.87-30.565,2.294-48.521C218.279,155.836,202.66,151.861,202.66,151.861z" style="fill:#EDE3DA;stroke:#CCCCDE;stroke-width:3;"></path>
		<g>
			<path d="M209.561,130.477" style="fill:#D57E58;"></path>
		</g>
		<path d="M227.096,151.833c0,0-16.531,21.345-3.824,43.752h8.063
			C231.333,195.585,214.557,172.139,227.096,151.833z" style="opacity:0.11;fill:#6E6E96;enable-background:new    ;"></path>
	</g>
	<g style="display:inline;">
		<path d="M217.298,143.02c0-16.622-14.461-30.095-32.299-30.095
			c-0.278,0-0.554,0.012-0.828,0.019c-5.632-8.817-15.959-14.729-27.771-14.729c-17.838,0-32.301,13.475-32.301,30.096
			c0,0.215,0.014,0.429,0.018,0.646c-9.755,5.182-16.339,14.945-16.339,26.156c0,16.621,14.462,30.098,32.3,30.098
			c1.014,0,2.018-0.05,3.008-0.139c5.926,6.688,14.889,10.951,24.921,10.951c16.489,0,30.081-11.515,32.048-26.379
			C210.307,164.602,217.298,154.572,217.298,143.02z" style="fill:#D7F7E4;stroke:#CCCCDE;stroke-width:3;"></path>
		<path d="M184.456,111.841c-0.276,0-0.552,0.012-0.827,0.019
			c-4.516-7.071-12.051-12.269-20.949-14.052c7.041,1.766,12.971,6.049,16.614,11.751c0.237-0.006,3.474,5.586,3.713,5.586
			c15.308,0,22.429,8.248,22.429,22.511c0,9.914-3.715,16.231-12.513,20.562c-1.687,12.754-13.353,22.635-27.5,22.635
			c-8.61,0-16.302-3.655-21.387-9.396c-0.851,0.071-1.71,0.114-2.58,0.114c-15.31,0-27.332-7.254-27.332-21.516
			c0-9.604,4.298-14.337,12.12-20.039c-0.209-1.234-1.077-12.104,1.82-15.002c6.89-6.89,10.011-12.808,16.174-15.868
			c-12.096,4.349-20.679,15.277-20.679,28.08c0,0.215,0.011,0.429,0.017,0.646c-9.756,5.178-16.34,14.947-16.34,26.156
			c0,16.621,14.461,30.097,32.3,30.097c1.017,0,2.017-0.049,3.008-0.136c5.925,6.688,14.89,10.949,24.922,10.949
			c16.487,0,30.078-11.516,32.046-26.379c10.254-5.043,17.244-15.07,17.244-26.623C216.756,125.314,202.295,111.841,184.456,111.841
			z" style="opacity:0.1;fill:#6E6E96;enable-background:new    ;"></path>
		<path d="M138.484,159.296c0,0,16.727,3.272,16.727,19.644
			c0,0,4.504,27.807-12.904,47.479h40.195c-0.398-0.556-35.107-46.922,3.521-74.483
			C162.464,165.396,138.484,159.296,138.484,159.296z" style="fill:#EDE3DA;stroke:#CCCCDE;stroke-width:3;"></path>
		<g>
			<path d="M149.077,126.465" style="fill:#D57E58;"></path>
		</g>
		<path d="M175.997,159.251c0,0-25.378,32.767-5.873,67.164h12.378
			C182.502,226.415,156.748,190.423,175.997,159.251z" style="opacity:0.11;fill:#6E6E96;enable-background:new    ;"></path>
	</g>
	<g style="display:inline;">
		<path d="M145.461,144.131c0-13.645-11.873-24.707-26.517-24.707
			c-0.229,0-0.454,0.01-0.68,0.016c-4.624-7.239-13.102-12.092-22.8-12.092c-14.644,0-26.518,11.063-26.518,24.707
			c0,0.178,0.012,0.354,0.015,0.529c-8.01,4.251-13.414,12.271-13.414,21.477c0,13.646,11.872,24.707,26.518,24.707
			c0.832,0,1.655-0.041,2.469-0.105c4.864,5.484,12.224,8.984,20.46,8.984c13.537,0,24.695-9.45,26.309-21.652
			C139.721,161.85,145.461,153.617,145.461,144.131z" style="fill:#D7F7E4;stroke:#CCCCDE;stroke-width:3;"></path>
		<path d="M118.498,118.535c-0.228,0-0.452,0.009-0.679,0.015
			c-3.707-5.805-9.894-10.072-17.199-11.537c5.78,1.45,10.648,4.966,13.641,9.647c0.194-0.005,2.851,4.586,3.048,4.586
			c12.567,0,18.414,6.771,18.414,18.48c0,8.139-3.05,13.325-10.271,16.881c-1.384,10.472-10.961,18.584-22.576,18.584
			c-7.069,0-13.384-3.004-17.559-7.715c-0.698,0.061-1.404,0.096-2.118,0.096c-12.568,0-22.438-5.957-22.438-17.664
			c0-7.885,3.528-11.771,9.949-16.452c-0.171-1.015-0.884-9.938,1.496-12.316c5.655-5.657,8.218-10.515,13.277-13.028
			c-9.93,3.571-16.978,12.542-16.978,23.053c0,0.177,0.01,0.353,0.015,0.528c-8.011,4.25-13.415,12.271-13.415,21.477
			c0,13.645,11.873,24.706,26.518,24.706c0.834,0,1.655-0.04,2.469-0.108c4.864,5.488,12.224,8.988,20.461,8.988
			c13.536,0,24.693-9.451,26.311-21.656c8.418-4.141,14.158-12.371,14.158-21.854C145.016,129.598,133.143,118.535,118.498,118.535z" style="opacity:0.1;fill:#6E6E96;enable-background:new    ;"></path>
		<path d="M80.757,157.494c0,0,13.731,2.688,13.731,16.128
			c0,0,3.697,22.823-10.595,38.978h33c-0.328-0.455-28.824-38.521,2.89-61.151C100.443,162.502,80.757,157.494,80.757,157.494z" style="fill:#EDE3DA;stroke:#CCCCDE;stroke-width:3;"></path>
		<g>
			<path d="M89.453,130.541" style="fill:#D57E58;"></path>
		</g>
		<path d="M111.553,157.458c0,0-20.835,26.899-4.821,55.142h10.162
			C116.894,212.6,95.75,183.049,111.553,157.458z" style="opacity:0.11;fill:#6E6E96;enable-background:new    ;"></path>
	</g>
	<g style="display:inline;">
		<path d="M252.684,168.268c0-12.345-10.74-22.35-23.988-22.35
			c-0.201,0-0.405,0.008-0.609,0.014c-4.188-6.549-11.854-10.938-20.625-10.938c-13.248,0-23.984,10.007-23.984,22.35
			c0,0.161,0.012,0.318,0.014,0.479c-7.244,3.85-12.135,11.104-12.135,19.432c0,12.349,10.735,22.354,23.984,22.354
			c0.753,0,1.497-0.039,2.229-0.104c4.4,4.97,11.062,8.136,18.513,8.136c12.245,0,22.339-8.554,23.799-19.594
			C247.49,184.295,252.684,176.85,252.684,168.268z" style="fill:#D7F7E4;stroke:#CCCCDE;stroke-width:3;"></path>
		<path d="M228.292,145.111c-0.206,0-0.409,0.011-0.614,0.016
			c-3.354-5.251-8.949-9.111-15.558-10.438c5.229,1.312,9.633,4.492,12.339,8.728c0.175-0.004,2.579,4.149,2.757,4.149
			c11.368,0,16.655,6.123,16.655,16.718c0,7.362-2.757,12.055-9.291,15.271c-1.252,9.473-9.915,16.813-20.423,16.813
			c-6.396,0-12.106-2.72-15.884-6.979c-0.631,0.055-1.271,0.086-1.916,0.086c-11.368,0-20.299-5.389-20.299-15.979
			c0-7.135,3.188-10.646,9.002-14.885c-0.156-0.918-0.805-8.987,1.353-11.142c5.116-5.116,7.435-9.514,12.011-11.784
			c-8.98,3.229-15.357,11.346-15.357,20.854c0,0.158,0.014,0.316,0.018,0.479c-7.246,3.847-12.139,11.104-12.139,19.429
			c0,12.344,10.738,22.351,23.988,22.351c0.754,0,1.496-0.034,2.231-0.101c4.401,4.967,11.06,8.133,18.509,8.133
			c12.245,0,22.338-8.554,23.799-19.593c7.615-3.742,12.812-11.19,12.812-19.771C252.279,155.118,241.541,145.111,228.292,145.111z" style="opacity:0.1;fill:#6E6E96;enable-background:new    ;"></path>
		<path d="M194.15,180.355c0,0,12.422,2.431,12.422,14.588
			c0,0,3.345,20.646-9.584,35.259h29.853c-0.296-0.41-26.073-34.847,2.615-55.317C211.96,184.887,194.15,180.355,194.15,180.355z" style="fill:#EDE3DA;stroke:#CCCCDE;stroke-width:3;"></path>
		<g>
			<path d="M202.018,155.975" style="fill:#D57E58;"></path>
		</g>
		<path d="M222.01,180.322c0,0-18.847,24.334-4.361,49.88h9.192
			C226.841,230.202,207.714,203.473,222.01,180.322z" style="opacity:0.11;fill:#6E6E96;enable-background:new    ;"></path>
	</g>
	<g style="display:inline;">
		<path d="M88.418,166.416c0-13.111-11.408-23.738-25.479-23.738
			c-0.22,0-0.436,0.008-0.653,0.014c-4.443-6.954-12.589-11.613-21.907-11.613c-14.071,0-25.48,10.629-25.48,23.736
			c0,0.17,0.011,0.336,0.015,0.507c-7.695,4.086-12.889,11.795-12.889,20.641c0,13.106,11.407,23.736,25.479,23.736
			c0.8,0,1.59-0.041,2.372-0.104c4.674,5.271,11.745,8.639,19.659,8.639c13.007,0,23.729-9.082,25.279-20.81
			C82.903,183.439,88.418,175.531,88.418,166.416z" style="fill:#D7F7E4;stroke:#CCCCDE;stroke-width:3;"></path>
		<path d="M62.511,141.822c-0.219,0-0.435,0.01-0.652,0.015
			c-3.562-5.577-9.506-9.678-16.525-11.085c5.553,1.393,10.231,4.771,13.106,9.27c0.186-0.004,2.739,4.406,2.928,4.406
			c12.076,0,17.692,6.506,17.692,17.758c0,7.82-2.929,12.806-9.87,16.222c-1.33,10.063-10.531,17.854-21.693,17.854
			c-6.792,0-12.859-2.886-16.871-7.412c-0.67,0.058-1.348,0.092-2.035,0.092c-12.076,0-21.561-5.723-21.561-16.975
			c0-7.574,3.391-11.308,9.561-15.807c-0.165-0.975-0.85-9.549,1.437-11.836c5.435-5.434,7.896-10.103,12.758-12.516
			c-9.541,3.43-16.313,12.051-16.313,22.146c0,0.17,0.01,0.338,0.014,0.508c-7.696,4.084-12.889,11.792-12.889,20.64
			c0,13.105,11.407,23.734,25.479,23.734c0.801,0,1.591-0.039,2.373-0.104c4.674,5.271,11.745,8.639,19.659,8.639
			c13.006,0,23.728-9.081,25.278-20.809c8.089-3.979,13.604-11.893,13.604-21.002C87.991,152.449,76.583,141.822,62.511,141.822z" style="opacity:0.1;fill:#6E6E96;enable-background:new    ;"></path>
		<path d="M26.248,179.256c0,0,13.193,2.583,13.193,15.496
			c0,0,3.553,21.932-10.179,37.45h31.707c-0.314-0.437-27.694-37.015,2.777-58.759C45.163,184.066,26.248,179.256,26.248,179.256z" style="fill:#EDE3DA;stroke:#CCCCDE;stroke-width:3;"></path>
		<g>
			<path d="M34.603,153.357" style="fill:#D57E58;"></path>
		</g>
		<path d="M55.838,179.221c0,0-20.02,25.848-4.633,52.981h9.764
			C60.969,232.202,40.654,203.811,55.838,179.221z" style="opacity:0.11;fill:#6E6E96;enable-background:new    ;"></path>
	</g>
</g>
<g style="display:none;" id="Layer_3">
	<g style="display:inline;">
		<path d="M85.16,142.542c0-11.563-10.059-20.936-22.467-20.936
			c-0.194,0-0.385,0.009-0.576,0.014c-3.917-6.134-11.102-10.245-19.318-10.245c-12.409,0-22.469,9.372-22.469,20.936
			c0,0.149,0.009,0.297,0.012,0.446c-6.785,3.603-11.365,10.399-11.365,18.198c0,11.562,10.059,20.934,22.468,20.934
			c0.705,0,1.403-0.033,2.092-0.094c4.122,4.65,10.358,7.617,17.335,7.617c11.471,0,20.925-8.01,22.293-18.35
			C80.297,157.555,85.16,150.579,85.16,142.542z" style="fill:#D7F7E4;stroke:#CCCCDE;stroke-width:3;"></path>
		<path d="M62.314,120.853c-0.193,0-0.384,0.009-0.575,0.014
			c-3.141-4.918-8.383-8.534-14.573-9.775c4.898,1.229,9.023,4.208,11.558,8.175c0.165-0.004,2.416,3.886,2.583,3.886
			c10.648,0,15.601,5.738,15.601,15.66c0,6.896-2.583,11.291-8.704,14.302c-1.173,8.875-9.287,15.748-19.129,15.748
			c-5.99,0-11.34-2.544-14.877-6.533c-0.591,0.05-1.189,0.078-1.794,0.078c-10.649,0-19.013-5.048-19.013-14.968
			c0-6.683,2.99-9.973,8.432-13.938c-0.145-0.855-0.75-8.421,1.267-10.437c4.792-4.793,6.963-8.909,11.25-11.038
			c-8.414,3.025-14.385,10.627-14.385,19.536c0,0.147,0.009,0.299,0.012,0.446c-6.787,3.604-11.366,10.396-11.366,18.196
			c0,11.562,10.059,20.938,22.468,20.938c0.707,0,1.403-0.035,2.093-0.098c4.121,4.648,10.356,7.617,17.336,7.617
			c11.469,0,20.924-8.012,22.291-18.354c7.133-3.506,11.997-10.479,11.997-18.521C84.783,130.227,74.724,120.853,62.314,120.853z" style="opacity:0.1;fill:#6E6E96;enable-background:new    ;"></path>
		<path d="M30.336,153.865c0,0,11.635,2.277,11.635,13.662
			c0,0,3.132,19.342-8.976,33.026h27.96c-0.277-0.387-24.422-32.644,2.449-51.815C47.016,158.107,30.336,153.865,30.336,153.865z" style="fill:#EDE3DA;stroke:#CCCCDE;stroke-width:3;"></path>
		<g>
			<path d="M37.703,131.025" style="fill:#D57E58;"></path>
		</g>
		<path d="M56.43,153.833c0,0-17.654,22.793-4.085,46.722h8.611
			C60.955,200.555,43.04,175.518,56.43,153.833z" style="opacity:0.11;fill:#6E6E96;enable-background:new    ;"></path>
	</g>
	<g style="display:inline;">
		<path d="M255,141.26c0-10.828-9.42-19.604-21.04-19.604
			c-0.183,0-0.36,0.008-0.539,0.013c-3.669-5.744-10.396-9.595-18.091-9.595c-11.62,0-21.041,8.777-21.041,19.604
			c0,0.141,0.009,0.279,0.012,0.418c-6.354,3.375-10.644,9.739-10.644,17.043c0,10.825,9.421,19.604,21.04,19.604
			c0.66,0,1.312-0.032,1.96-0.089c3.858,4.354,9.698,7.134,16.233,7.134c10.738,0,19.596-7.499,20.875-17.185
			C250.445,155.316,255,148.786,255,141.26z" style="fill:#D7F7E4;stroke:#CCCCDE;stroke-width:3;"></path>
		<path d="M233.605,120.949c-0.184,0-0.358,0.008-0.539,0.012
			c-2.94-4.606-7.853-7.992-13.646-9.154c4.586,1.15,8.449,3.94,10.822,7.655c0.154-0.004,2.263,3.639,2.419,3.639
			c9.971,0,14.608,5.374,14.608,14.665c0,6.459-2.42,10.573-8.148,13.396c-1.1,8.311-8.698,14.742-17.914,14.742
			c-5.607,0-10.619-2.381-13.934-6.117c-0.557,0.047-1.112,0.072-1.682,0.072c-9.975,0-17.806-4.728-17.806-14.017
			c0-6.257,2.8-9.339,7.896-13.055c-0.138-0.806-0.701-7.885,1.188-9.772c4.485-4.488,6.521-8.343,10.535-10.337
			c-7.88,2.833-13.472,9.952-13.472,18.292c0,0.139,0.006,0.275,0.012,0.418c-6.354,3.373-10.646,9.736-10.646,17.041
			c0,10.824,9.421,19.604,21.041,19.604c0.661,0,1.313-0.032,1.959-0.088c3.859,4.354,9.699,7.133,16.234,7.133
			c10.739,0,19.594-7.5,20.875-17.187c6.68-3.285,11.231-9.813,11.231-17.342C254.646,129.727,245.227,120.949,233.605,120.949z" style="opacity:0.1;fill:#6E6E96;enable-background:new    ;"></path>
		<path d="M203.66,151.861c0,0,10.896,2.133,10.896,12.797
			c0,0,2.934,18.109-8.406,30.927h26.184c-0.26-0.358-22.87-30.565,2.294-48.521C219.279,155.836,203.66,151.861,203.66,151.861z" style="fill:#EDE3DA;stroke:#CCCCDE;stroke-width:3;"></path>
		<g>
			<path d="M210.561,130.477" style="fill:#D57E58;"></path>
		</g>
		<path d="M228.096,151.833c0,0-16.531,21.345-3.824,43.752h8.063
			C232.333,195.585,215.557,172.139,228.096,151.833z" style="opacity:0.11;fill:#6E6E96;enable-background:new    ;"></path>
	</g>
	<g style="display:inline;">
		<path d="M218.298,143.02c0-16.622-14.461-30.095-32.299-30.095
			c-0.278,0-0.554,0.012-0.828,0.019c-5.632-8.817-15.959-14.729-27.771-14.729c-17.838,0-32.301,13.475-32.301,30.096
			c0,0.215,0.014,0.429,0.018,0.646c-9.755,5.181-16.339,14.945-16.339,26.157c0,16.62,14.462,30.097,32.3,30.097
			c1.014,0,2.018-0.05,3.008-0.138c5.926,6.688,14.889,10.95,24.921,10.95c16.489,0,30.081-11.514,32.048-26.379
			C211.307,164.602,218.298,154.572,218.298,143.02z" style="fill:#D7F7E4;stroke:#CCCCDE;stroke-width:3;"></path>
		<path d="M185.456,111.841c-0.276,0-0.552,0.012-0.827,0.019
			c-4.516-7.071-12.051-12.269-20.949-14.052c7.041,1.766,12.971,6.049,16.614,11.751c0.237-0.006,3.474,5.586,3.713,5.586
			c15.308,0,22.429,8.248,22.429,22.511c0,9.914-3.715,16.231-12.513,20.562c-1.687,12.754-13.353,22.635-27.5,22.635
			c-8.61,0-16.302-3.655-21.387-9.396c-0.851,0.071-1.71,0.114-2.58,0.114c-15.31,0-27.332-7.254-27.332-21.516
			c0-9.604,4.298-14.337,12.12-20.039c-0.209-1.234-1.077-12.104,1.82-15.002c6.89-6.89,10.011-12.808,16.174-15.868
			c-12.096,4.349-20.679,15.277-20.679,28.08c0,0.215,0.011,0.429,0.017,0.646c-9.756,5.178-16.34,14.947-16.34,26.156
			c0,16.621,14.461,30.097,32.3,30.097c1.017,0,2.017-0.049,3.008-0.135c5.925,6.688,14.89,10.948,24.922,10.948
			c16.487,0,30.078-11.515,32.046-26.379c10.254-5.043,17.244-15.069,17.244-26.623
			C217.756,125.314,203.295,111.841,185.456,111.841z" style="opacity:0.1;fill:#6E6E96;enable-background:new    ;"></path>
		<path d="M139.484,159.296c0,0,16.727,3.272,16.727,19.644
			c0,0,4.504,27.806-12.904,47.479h40.195c-0.398-0.555-35.107-46.922,3.521-74.483
			C163.464,165.396,139.484,159.296,139.484,159.296z" style="fill:#EDE3DA;stroke:#CCCCDE;stroke-width:3;"></path>
		<g>
			<path d="M150.077,126.465" style="fill:#D57E58;"></path>
		</g>
		<path d="M176.997,159.251c0,0-25.378,32.767-5.873,67.164h12.378
			C183.502,226.415,157.748,190.423,176.997,159.251z" style="opacity:0.11;fill:#6E6E96;enable-background:new    ;"></path>
	</g>
	<g style="display:inline;">
		<path d="M146.461,144.131c0-13.645-11.873-24.707-26.517-24.707
			c-0.229,0-0.454,0.01-0.68,0.016c-4.624-7.239-13.102-12.092-22.8-12.092c-14.644,0-26.518,11.063-26.518,24.707
			c0,0.178,0.012,0.354,0.015,0.529c-8.01,4.251-13.414,12.271-13.414,21.477c0,13.646,11.872,24.707,26.518,24.707
			c0.832,0,1.655-0.041,2.469-0.106c4.864,5.485,12.224,8.985,20.46,8.985c13.537,0,24.695-9.45,26.309-21.653
			C140.721,161.85,146.461,153.617,146.461,144.131z" style="fill:#D7F7E4;stroke:#CCCCDE;stroke-width:3;"></path>
		<path d="M119.498,118.535c-0.228,0-0.452,0.009-0.679,0.015
			c-3.707-5.805-9.894-10.072-17.199-11.537c5.78,1.45,10.648,4.966,13.641,9.647c0.194-0.005,2.851,4.586,3.048,4.586
			c12.567,0,18.414,6.771,18.414,18.48c0,8.139-3.05,13.325-10.271,16.881c-1.384,10.472-10.961,18.584-22.576,18.584
			c-7.069,0-13.384-3.004-17.559-7.715c-0.698,0.061-1.404,0.096-2.118,0.096c-12.568,0-22.438-5.957-22.438-17.664
			c0-7.885,3.528-11.771,9.949-16.452c-0.171-1.015-0.884-9.938,1.496-12.316c5.655-5.657,8.218-10.515,13.277-13.028
			c-9.93,3.571-16.978,12.542-16.978,23.053c0,0.177,0.01,0.353,0.015,0.528c-8.011,4.25-13.415,12.271-13.415,21.477
			c0,13.645,11.873,24.706,26.518,24.706c0.834,0,1.655-0.04,2.469-0.108c4.864,5.488,12.224,8.988,20.461,8.988
			c13.536,0,24.693-9.451,26.311-21.656c8.418-4.141,14.158-12.371,14.158-21.854C146.016,129.598,134.143,118.535,119.498,118.535z" style="opacity:0.1;fill:#6E6E96;enable-background:new    ;"></path>
		<path d="M81.757,157.494c0,0,13.731,2.688,13.731,16.128
			c0,0,3.697,22.823-10.595,38.978h33c-0.328-0.455-28.824-38.521,2.89-61.151C101.443,162.502,81.757,157.494,81.757,157.494z" style="fill:#EDE3DA;stroke:#CCCCDE;stroke-width:3;"></path>
		<g>
			<path d="M90.453,130.541" style="fill:#D57E58;"></path>
		</g>
		<path d="M112.553,157.458c0,0-20.835,26.899-4.821,55.142h10.162
			C117.894,212.6,96.75,183.049,112.553,157.458z" style="opacity:0.11;fill:#6E6E96;enable-background:new    ;"></path>
	</g>
	<g style="display:inline;">
		<path d="M253.684,168.268c0-12.345-10.74-22.35-23.988-22.35
			c-0.202,0-0.406,0.008-0.61,0.014c-4.187-6.549-11.854-10.938-20.625-10.938c-13.248,0-23.985,10.007-23.985,22.35
			c0,0.161,0.012,0.318,0.014,0.479c-7.244,3.849-12.135,11.104-12.135,19.431c0,12.348,10.736,22.354,23.985,22.354
			c0.753,0,1.497-0.039,2.229-0.104c4.4,4.969,11.062,8.135,18.512,8.135c12.245,0,22.339-8.553,23.799-19.593
			C248.49,184.295,253.684,176.85,253.684,168.268z" style="fill:#D7F7E4;stroke:#CCCCDE;stroke-width:3;"></path>
		<path d="M229.292,145.111c-0.206,0-0.409,0.011-0.614,0.016
			c-3.354-5.251-8.949-9.111-15.558-10.438c5.229,1.312,9.633,4.492,12.339,8.728c0.175-0.004,2.579,4.149,2.757,4.149
			c11.368,0,16.655,6.123,16.655,16.718c0,7.362-2.757,12.055-9.291,15.271c-1.252,9.473-9.915,16.813-20.423,16.813
			c-6.396,0-12.106-2.72-15.884-6.979c-0.631,0.055-1.271,0.086-1.916,0.086c-11.368,0-20.299-5.389-20.299-15.979
			c0-7.135,3.189-10.646,9.002-14.885c-0.156-0.918-0.804-8.987,1.353-11.142c5.116-5.116,7.435-9.513,12.011-11.784
			c-8.98,3.229-15.357,11.346-15.357,20.854c0,0.159,0.013,0.316,0.017,0.479c-7.246,3.847-12.137,11.104-12.137,19.429
			c0,12.343,10.737,22.35,23.987,22.35c0.754,0,1.496-0.035,2.231-0.1c4.401,4.966,11.06,8.132,18.509,8.132
			c12.245,0,22.338-8.553,23.799-19.592c7.615-3.743,12.812-11.191,12.812-19.771C253.279,155.118,242.541,145.111,229.292,145.111z" style="opacity:0.1;fill:#6E6E96;enable-background:new    ;"></path>
		<path d="M195.15,180.355c0,0,12.422,2.431,12.422,14.588
			c0,0,3.345,20.646-9.584,35.259h29.853c-0.296-0.41-26.073-34.847,2.615-55.317C212.96,184.887,195.15,180.355,195.15,180.355z" style="fill:#EDE3DA;stroke:#CCCCDE;stroke-width:3;"></path>
		<g>
			<path d="M203.018,155.975" style="fill:#D57E58;"></path>
		</g>
		<path d="M223.01,180.322c0,0-18.847,24.334-4.361,49.88h9.192
			C227.841,230.202,208.714,203.473,223.01,180.322z" style="opacity:0.11;fill:#6E6E96;enable-background:new    ;"></path>
	</g>
	<g style="display:inline;">
		<path d="M89.418,166.416c0-13.111-11.408-23.738-25.479-23.738
			c-0.22,0-0.436,0.008-0.653,0.014c-4.443-6.954-12.589-11.614-21.907-11.614c-14.071,0-25.48,10.629-25.48,23.737
			c0,0.17,0.011,0.336,0.015,0.507c-7.695,4.086-12.889,11.795-12.889,20.64c0,13.107,11.407,23.737,25.479,23.737
			c0.8,0,1.59-0.041,2.372-0.104c4.674,5.271,11.745,8.639,19.659,8.639c13.007,0,23.729-9.082,25.279-20.81
			C83.903,183.439,89.418,175.531,89.418,166.416z" style="fill:#D7F7E4;stroke:#CCCCDE;stroke-width:3;"></path>
		<path d="M63.511,141.822c-0.219,0-0.435,0.01-0.652,0.015
			c-3.562-5.577-9.506-9.678-16.525-11.085c5.553,1.393,10.231,4.771,13.106,9.27c0.186-0.004,2.739,4.406,2.928,4.406
			c12.076,0,17.692,6.506,17.692,17.758c0,7.82-2.929,12.806-9.87,16.222c-1.33,10.063-10.531,17.854-21.693,17.854
			c-6.792,0-12.859-2.886-16.871-7.412c-0.67,0.058-1.348,0.092-2.035,0.092c-12.076,0-21.561-5.723-21.561-16.975
			c0-7.574,3.391-11.308,9.561-15.807c-0.165-0.975-0.85-9.549,1.437-11.836c5.435-5.434,7.896-10.103,12.758-12.516
			c-9.541,3.43-16.313,12.051-16.313,22.146c0,0.17,0.01,0.338,0.014,0.508c-7.696,4.084-12.889,11.792-12.889,20.639
			c0,13.106,11.407,23.735,25.479,23.735c0.801,0,1.591-0.039,2.373-0.104c4.674,5.272,11.745,8.639,19.659,8.639
			c13.006,0,23.728-9.081,25.278-20.809c8.089-3.979,13.604-11.892,13.604-21.002C88.991,152.449,77.583,141.822,63.511,141.822z" style="opacity:0.1;fill:#6E6E96;enable-background:new    ;"></path>
		<path d="M27.248,179.256c0,0,13.193,2.583,13.193,15.496
			c0,0,3.553,21.932-10.179,37.45h31.707c-0.314-0.437-27.694-37.015,2.777-58.759C46.163,184.066,27.248,179.256,27.248,179.256z" style="fill:#EDE3DA;stroke:#CCCCDE;stroke-width:3;"></path>
		<g>
			<path d="M35.603,153.357" style="fill:#D57E58;"></path>
		</g>
		<path d="M56.838,179.221c0,0-20.02,25.848-4.633,52.981h9.764
			C61.969,232.202,41.654,203.811,56.838,179.221z" style="opacity:0.11;fill:#6E6E96;enable-background:new    ;"></path>
	</g>
</g>
<g>
	<g>
		<path d="M102.591,140.361c0-13.709-11.93-24.821-26.645-24.821c-0.23,0-0.457,0.006-0.682,0.013
			c-4.646-7.271-13.165-12.147-22.909-12.147c-14.718,0-26.647,11.114-26.647,24.825c0,0.177,0.011,0.354,0.015,0.529
			c-8.046,4.271-13.478,12.328-13.478,21.58c0,13.71,11.929,24.822,26.643,24.822c0.837,0,1.664-0.038,2.481-0.107
			c4.888,5.521,12.283,9.028,20.557,9.028c13.604,0,24.814-9.5,26.436-21.759C96.824,158.163,102.591,149.893,102.591,140.361z" style="fill:#D7F7E4;"></path>
		<path d="M61.926,185.583c-8.153,0-15.826-3.264-21.175-8.979c-0.63,0.039-1.254,0.059-1.863,0.059
			c-15.518,0-28.143-11.809-28.143-26.322c0-9.161,5.136-17.686,13.465-22.458c0.201-14.355,12.75-25.977,28.145-25.977
			c9.554,0,18.556,4.629,23.707,12.135c15.466,0.059,28.029,11.844,28.029,26.321c0,9.557-5.481,18.28-14.359,22.949
			C87.625,176.062,75.82,185.583,61.926,185.583z M41.993,173.496l0.5,0.564c4.795,5.416,11.879,8.522,19.434,8.522
			c12.681,0,23.406-8.794,24.949-20.455l0.105-0.796l0.72-0.354c8.26-4.062,13.391-11.962,13.391-20.617
			c0-12.859-11.28-23.321-25.145-23.321c-0.215,0-0.426,0.006-0.636,0.012l-0.851,0.026L74,116.36
			c-4.515-7.066-12.809-11.455-21.645-11.455c-13.866,0-25.147,10.464-25.147,23.325c0,0.093,0.004,0.186,0.007,0.277l0.031,1.142
			l-0.82,0.436c-7.822,4.152-12.681,11.913-12.681,20.255c0,12.86,11.279,23.322,25.143,23.322c0.764,0,1.556-0.034,2.354-0.103
			L41.993,173.496z" style="fill:#CCCCDE;"></path>
	</g>
	<path d="M75.499,114.643c-0.227,0-0.454,0.011-0.682,0.018
		c-3.725-5.834-9.94-10.122-17.282-11.594c5.808,1.46,10.7,4.991,13.707,9.697c0.194-0.007,2.864,4.609,3.061,4.609
		c12.629,0,18.502,6.803,18.502,18.564c0,8.183-3.064,13.391-10.321,16.963c-1.393,10.521-11.015,18.675-22.685,18.675
		c-7.102,0-13.446-3.017-17.642-7.751c-0.701,0.062-1.41,0.097-2.128,0.097c-12.627,0-22.546-5.985-22.546-17.749
		c0-7.923,3.546-11.824,10-16.523c-0.171-1.021-0.888-9.986,1.504-12.381c5.682-5.685,8.256-10.566,13.34-13.088
		c-9.977,3.588-17.057,12.602-17.057,23.163c0,0.176,0.006,0.354,0.014,0.529c-8.049,4.271-13.481,12.327-13.481,21.582
		c0,13.708,11.929,24.818,26.645,24.818c0.837,0,1.666-0.037,2.481-0.105c4.888,5.521,12.284,9.027,20.558,9.027
		c13.599,0,24.812-9.5,26.435-21.762c8.458-4.156,14.227-12.43,14.227-21.957C102.144,125.757,90.213,114.643,75.499,114.643z" style="opacity:0.1;fill:#6E6E96;enable-background:new    ;"></path>
	<g>
		<path d="M37.578,153.786c0,0,13.797,2.704,13.797,16.208c0,0,3.715,22.936-10.643,39.16h33.155
			c-0.328-0.45-28.96-38.707,2.907-61.446C57.358,158.818,37.578,153.786,37.578,153.786z" style="fill:#EDE3DA;"></path>
		<path d="M73.887,210.654H37.401l2.207-2.494c13.701-15.482,10.321-37.704,10.286-37.927l-0.019-0.239
			c0-10.986-10.15-14.126-12.246-14.656c-0.277-0.062-0.421-0.098-0.421-0.098l0.659-2.926c0,0,0.16,0.03,0.449,0.103
			c1.11,0.242,5.048,1.006,10.507,1.006c6.821,0,17.081-1.218,27.227-7.018l1.616,2.523c-7.94,5.666-12.65,12.834-13.999,21.304
			c-1.523,9.569,1.539,19.211,4.376,25.614c3.012,6.799,6.391,11.52,7.038,12.397l1.762,2.39L73.887,210.654z M43.895,207.654
			h27.139c-3.941-6.041-12.88-21.876-10.33-37.894c0.991-6.227,3.617-11.797,7.835-16.645c-7.524,2.644-14.556,3.307-19.716,3.307
			c-0.844,0-1.652-0.017-2.422-0.047c3.356,2.639,6.438,6.866,6.474,13.5C53.168,171.817,55.838,191.831,43.895,207.654z" style="fill:#CCCCDE;"></path>
	</g>
	<g>
		<path d="M46.316,126.705" style="fill:#D57E58;"></path>
	</g>
	<path d="M68.521,153.753c0,0-20.933,27.026-4.846,55.403h10.212
		C73.887,209.154,52.644,179.467,68.521,153.753z" style="opacity:0.11;fill:#6E6E96;enable-background:new    ;"></path>
</g>
<g>
	<g>
		<path d="M237.743,147.635c0-12.261-10.669-22.198-23.829-22.198c-0.205,0-0.408,0.005-0.609,0.011
			c-4.156-6.502-11.772-10.864-20.488-10.864c-13.159,0-23.827,9.94-23.827,22.202c0,0.157,0.009,0.315,0.013,0.474
			c-7.193,3.819-12.052,11.025-12.052,19.299c0,12.26,10.666,22.198,23.823,22.198c0.75,0,1.488-0.034,2.223-0.096
			c4.368,4.935,10.98,8.073,18.383,8.073c12.166,0,22.189-8.496,23.643-19.459C232.585,163.555,237.743,156.158,237.743,147.635z" style="fill:#D7F7E4;"></path>
		<path d="M201.379,188.234c-7.31,0-14.19-2.916-19.001-8.025c-0.544,0.032-1.074,0.048-1.604,0.048
			c-13.963,0-25.323-10.631-25.323-23.698c0-8.221,4.591-15.872,12.043-20.178c0.23-12.883,11.502-23.297,25.323-23.297
			c8.565,0,16.641,4.138,21.285,10.854c13.881,0.094,25.142,10.688,25.142,23.697c0,8.579-4.904,16.414-12.854,20.626
			C224.456,179.702,213.852,188.234,201.379,188.234z M183.62,177.104l0.499,0.563c4.258,4.81,10.548,7.567,17.26,7.567
			c11.259,0,20.783-7.806,22.155-18.156l0.105-0.795l0.72-0.354c7.33-3.606,11.884-10.616,11.884-18.295
			c0-11.413-10.017-20.698-22.329-20.698c-0.189,0-0.377,0.004-0.562,0.01l-0.852,0.027l-0.459-0.718
			c-4.011-6.274-11.377-10.172-19.225-10.172c-12.312,0-22.327,9.287-22.327,20.702l0.035,1.363l-0.819,0.436
			c-6.942,3.686-11.255,10.573-11.255,17.974c0,11.413,10.015,20.698,22.323,20.698c0.685,0,1.371-0.029,2.098-0.091L183.62,177.104
			z" style="fill:#CCCCDE;"></path>
	</g>
	<path d="M213.516,124.633c-0.203,0-0.406,0.01-0.61,0.016
		c-3.331-5.216-8.89-9.052-15.454-10.368c5.191,1.306,9.568,4.464,12.258,8.672c0.174-0.005,2.562,4.123,2.734,4.123
		c11.296,0,16.548,6.083,16.548,16.602c0,7.318-2.74,11.976-9.229,15.17c-1.246,9.41-9.852,16.7-20.287,16.7
		c-6.352,0-12.023-2.696-15.775-6.931c-0.629,0.055-1.262,0.086-1.902,0.086c-11.294,0-20.164-5.354-20.164-15.873
		c0-7.085,3.174-10.575,8.943-14.777c-0.154-0.912-0.794-8.933,1.345-11.073c5.081-5.083,7.384-9.449,11.931-11.704
		c-8.922,3.209-15.254,11.268-15.254,20.715c0,0.155,0.008,0.312,0.012,0.473c-7.196,3.82-12.055,11.024-12.055,19.302
		c0,12.258,10.668,22.195,23.827,22.195c0.749,0,1.49-0.033,2.22-0.096c4.371,4.938,10.984,8.074,18.385,8.074
		c12.162,0,22.188-8.496,23.642-19.461c7.563-3.718,12.724-11.117,12.724-19.638C237.343,134.572,226.672,124.633,213.516,124.633z" style="opacity:0.1;fill:#6E6E96;enable-background:new    ;"></path>
	<g>
		<path d="M179.602,159.641c0,0,12.34,2.418,12.34,14.494c0,0,3.322,20.51-9.52,35.021h29.65
			c-0.295-0.403-25.897-34.614,2.6-54.95C197.292,164.141,179.602,159.641,179.602,159.641z" style="fill:#EDE3DA;"></path>
		<path d="M212.072,210.655h-32.98l2.207-2.494c12.202-13.788,9.193-33.589,9.162-33.788l-0.02-0.238
			c0-9.703-8.971-12.481-10.83-12.952c-0.25-0.055-0.38-0.088-0.38-0.088l0.658-2.926c0,0,0.146,0.027,0.408,0.093
			c0.992,0.217,4.498,0.896,9.36,0.896c6.08,0,15.227-1.085,24.27-6.254l1.615,2.522c-7.067,5.044-11.259,11.422-12.456,18.957
			c-2.594,16.332,9.657,33.157,10.181,33.865l1.765,2.392L212.072,210.655z M185.567,207.655h23.66
			c-3.611-5.59-11.354-19.57-9.104-33.743c0.86-5.414,3.094-10.275,6.666-14.531c-6.54,2.213-12.631,2.776-17.132,2.776
			c-0.585,0-1.15-0.009-1.696-0.025c2.883,2.396,5.444,6.142,5.479,11.885C193.713,175.82,196.044,193.526,185.567,207.655z" style="fill:#CCCCDE;"></path>
	</g>
	<g>
		<path d="M187.416,135.421" style="fill:#D57E58;"></path>
	</g>
	<path d="M207.273,159.609c0,0-18.719,24.17-4.334,49.547h9.133
		C212.072,209.154,193.075,182.605,207.273,159.609z" style="opacity:0.11;fill:#6E6E96;enable-background:new    ;"></path>
</g>
<g>
	<g>
		<path d="M203.038,129.243c0-15.051-13.099-27.252-29.255-27.252c-0.252,0-0.501,0.007-0.748,0.014
			c-5.102-7.983-14.455-13.338-25.152-13.338c-16.16,0-29.258,12.203-29.258,27.258c0,0.191,0.012,0.388,0.017,0.581
			c-8.834,4.689-14.797,13.535-14.797,23.693c0,15.053,13.097,27.253,29.25,27.253c0.92,0,1.827-0.042,2.725-0.117
			c5.367,6.06,13.486,9.912,22.57,9.912c14.938,0,27.246-10.431,29.024-23.89C196.705,148.789,203.038,139.708,203.038,129.243z" style="fill:#D7F7E4;"></path>
		<path d="M158.391,178.747c-8.934,0-17.34-3.585-23.189-9.862c-0.715,0.045-1.421,0.067-2.105,0.067
			c-16.956,0-30.75-12.898-30.75-28.753c0-10.032,5.64-19.366,14.781-24.572c0.17-15.721,13.902-28.46,30.756-28.46
			c10.468,0,20.329,5.084,25.95,13.324c16.936,0.025,30.705,12.914,30.705,28.752c0,10.46-6.015,20.009-15.752,25.101
			C186.521,168.312,173.602,178.747,158.391,178.747z M136.444,165.777l0.499,0.563c5.295,5.978,13.112,9.406,21.447,9.406
			c13.997,0,25.836-9.71,27.537-22.586l0.105-0.796l0.72-0.354c9.12-4.485,14.785-13.209,14.785-22.769
			c0-14.2-12.451-25.752-27.755-25.752c-0.238,0-0.474,0.007-0.706,0.013l-0.849,0.023l-0.457-0.715
			c-4.985-7.8-14.139-12.646-23.889-12.646c-15.306,0-27.758,11.555-27.758,25.758c0,0.101,0.004,0.203,0.008,0.305l0.032,1.166
			l-0.82,0.435c-8.635,4.584-14,13.156-14,22.369c0,14.2,12.449,25.753,27.75,25.753c0.838,0,1.713-0.038,2.6-0.112L136.444,165.777
			z" style="fill:#CCCCDE;"></path>
	</g>
	<path d="M173.293,101.006c-0.248,0-0.499,0.011-0.749,0.019
		c-4.091-6.405-10.915-11.113-18.976-12.729c6.377,1.603,11.748,5.48,15.05,10.647c0.213-0.008,3.146,5.061,3.36,5.061
		c13.864,0,20.312,7.469,20.312,20.382c0,8.984-3.364,14.703-11.331,18.625c-1.53,11.556-12.094,20.505-24.905,20.505
		c-7.799,0-14.765-3.313-19.371-8.512c-0.771,0.064-1.547,0.104-2.336,0.104c-13.865,0-24.755-6.57-24.755-19.485
		c0-8.698,3.894-12.983,10.979-18.143c-0.188-1.119-0.975-10.965,1.651-13.595c6.238-6.241,9.065-11.6,14.647-14.37
		c-10.954,3.94-18.728,13.835-18.728,25.432c0,0.191,0.007,0.387,0.015,0.582c-8.838,4.689-14.801,13.535-14.801,23.697
		c0,15.051,13.097,27.252,29.253,27.252c0.92,0,1.83-0.043,2.726-0.119c5.367,6.062,13.485,9.914,22.571,9.914
		c14.932,0,27.242-10.432,29.023-23.896c9.285-4.563,15.619-13.646,15.619-24.106C202.547,113.209,189.445,101.006,173.293,101.006z" style="opacity:0.1;fill:#6E6E96;enable-background:new    ;"></path>
	<g>
		<path d="M131.658,143.982c0,0,15.148,2.97,15.148,17.795c0,0,4.076,25.183-11.688,42.996h36.401
			c-0.359-0.494-31.797-42.496,3.191-67.463C153.375,149.51,131.658,143.982,131.658,143.982z" style="fill:#EDE3DA;"></path>
		<path d="M171.52,206.273h-39.731l2.207-2.494c15.118-17.084,11.37-41.518,11.331-41.763l-0.02-0.239
			c0-12.173-11.243-15.648-13.559-16.234c-0.302-0.066-0.46-0.106-0.46-0.106l0.659-2.926c0,0,0.174,0.033,0.488,0.111
			c1.221,0.267,5.56,1.109,11.572,1.109c7.505,0,18.795-1.34,29.959-7.723l1.615,2.522c-8.749,6.244-13.94,14.144-15.429,23.479
			c-1.679,10.537,1.687,21.147,4.806,28.192c3.311,7.479,7.037,12.688,7.75,13.656l1.761,2.39L171.52,206.273z M138.295,203.273
			h30.364c-4.233-6.439-14.295-23.999-11.468-41.734c1.113-6.988,4.111-13.221,8.942-18.62c-8.44,3.055-16.353,3.812-22.126,3.812
			c-1.097,0-2.139-0.026-3.12-0.071c3.798,2.855,7.381,7.528,7.419,14.999C148.62,163.725,151.602,185.881,138.295,203.273z" style="fill:#CCCCDE;"></path>
	</g>
	<g>
		<path d="M141.252,114.25" style="fill:#D57E58;"></path>
	</g>
	<path d="M165.631,143.947c0,0-22.982,29.674-5.32,60.828h11.213
		C171.521,204.773,148.199,172.18,165.631,143.947z" style="opacity:0.11;fill:#6E6E96;enable-background:new    ;"></path>
</g>
<g style="opacity:0.35;enable-background:new    ;">
	<path d="M231.667,131.729c-4.737-4.414-11.019-6.856-17.7-6.897c-3.334-4.819-8.433-8.303-14.211-9.892
		c-5.434-8.125-15.08-13.546-26.062-13.556c-5.621-8.234-15.467-13.325-25.93-13.325c-16.859,0-30.589,12.749-30.75,28.476
		c-7.113,4.052-12.098,10.6-13.965,18.03c-3.164-11.255-14.118-19.588-27.123-19.63c-5.152-7.502-14.139-12.138-23.689-12.138
		c-15.4,0-27.945,11.629-28.138,25.99c-8.327,4.772-13.472,13.285-13.472,22.444c0,14.515,12.625,26.322,28.143,26.322
		c0.611,0,1.239-0.027,1.871-0.065c2.587,2.766,5.72,4.95,9.184,6.479c-0.816,7.583-3.361,17.205-10.335,25.089l-2.207,2.492h39.431
		l-1.733-2.382c-1.06-1.438-7.828-10.955-10.632-22.798c12.774-1.079,23.29-10.206,25.261-22.182
		c6.788-3.571,11.585-9.513,13.471-16.383c3.243,12.627,15.412,22.039,29.896,22.039c0.688,0,1.396-0.029,2.112-0.074
		c2.861,3.069,6.336,5.494,10.183,7.174c-0.888,8.365-3.682,19.013-11.396,27.729l-2.207,2.494h42.681l-1.733-2.383
		c-1.171-1.591-8.679-12.14-11.739-25.252c2.542-0.2,4.999-0.702,7.338-1.452c3.678,1.947,7.92,3.066,12.439,3.066
		c0.517,0,1.059-0.037,1.597-0.066c2.295,2.439,5.063,4.377,8.122,5.741c-0.741,6.735-3.018,15.252-9.193,22.231l-2.207,2.493
		h35.926l-1.73-2.382c-0.939-1.277-6.916-9.682-9.439-20.158c11.377-1.04,20.713-9.182,22.518-19.857
		c7.96-4.209,12.882-12.037,12.882-20.623C239.124,142.172,236.477,136.208,231.667,131.729z" style="fill:#423434;"></path>
</g>
<g>
	<polyline points="129.037,121.916 215.213,250.062 49.551,250.062 129.037,121.916" style="fill:#BDDED3;"></polyline>
	<g>
		<path d="M95.85,248.445c0-32.563,16.003-53.896,36.979-53.896c20.978,0,38.979,21.333,38.979,53.896" style="fill:#98B3A9;"></path>
		<path d="M173.309,248.445h-3c0-29.871-16.112-52.396-37.479-52.396c-20.89,0-35.479,21.546-35.479,52.396
			h-3c0-32.616,15.823-55.396,38.479-55.396C155.906,193.049,173.309,216.864,173.309,248.445z" style="fill:#6E6E96;"></path>
	</g>
	<polygon points="56.904,246.445 131.02,152.04 209.275,246.445 
		129.773,128.578" style="opacity:0.15;fill:#6E6E96;enable-background:new    ;"></polygon>
	<path d="M132.828,210.466c17.326,0,32.934,14.563,37.492,37.979
		h1.486c0-32.563-18.002-53.896-38.979-53.896c-20.975,0-36.979,21.333-36.979,53.896h1.486
		C101.898,225.029,115.503,210.466,132.828,210.466z" style="opacity:0.3;fill:#6E6E96;enable-background:new    ;"></path>
	<polygon points="131.02,152.04 191.34,246.445 209.275,246.445" style="opacity:0.19;fill:#6E6E96;enable-background:new    ;"></polygon>
	<polygon points="131.02,152.04 180.936,204.126 209.275,246.445" style="fill:#BDDED3;"></polygon>
	<polygon points="71.977,246.445 92.558,209.792 56.904,246.445" style="opacity:0.17;fill:#6E6E96;enable-background:new    ;"></polygon>
	<path d="M215.213,251.562H49.551c-0.546,0-1.049-0.297-1.313-0.774c-0.264-0.479-0.248-1.062,0.043-1.524
		l80.425-127.873l-10.209-15.507c-0.456-0.692-0.264-1.622,0.428-2.078c0.692-0.454,1.622-0.263,2.078,0.428l9.458,14.366
		l9.02-14.34c0.441-0.703,1.368-0.911,2.068-0.471c0.701,0.441,0.912,1.367,0.471,2.068l-9.746,15.496l84.192,127.883
		c0.304,0.461,0.329,1.051,0.067,1.537C216.271,251.26,215.765,251.562,215.213,251.562z M52.266,248.562H212.43l-81.911-124.418
		L52.266,248.562z" style="fill:#6E6E96;"></path>
</g>
<g style="opacity:0.49;enable-background:new    ;">
	<path d="M87.418,43.815c5.441-1.4,8.717-6.947,7.317-12.389c-0.647-2.517-2.189-4.562-4.191-5.904
		c3.91,0.759,7.233,3.69,8.292,7.803c1.466,5.697-1.963,11.503-7.66,12.97c-3.912,1.006-7.875-0.295-10.449-3.054
		C82.757,44.152,85.096,44.413,87.418,43.815z" style="fill:#FFFFFF;"></path>
</g>
</svg>
