<svg viewBox="0 0 280 280" xmlns:xlink="http://www.w3.org/1999/xlink" xmlns="http://www.w3.org/2000/svg" id="Layer_1"><defs><style>.cls-1,.cls-2{fill:#fff;}.cls-1,.cls-7{stroke:#ef9100;stroke-width:4px;}.cls-1,.cls-6,.cls-7{stroke-miterlimit:10;}.cls-3{clip-path:url(#clip-path);}.cls-4{fill:#b0fffc;}.cls-5{fill:#dffff1;}.cls-6,.cls-7{fill:none;}.cls-6{stroke:#ffcf8b;stroke-width:0.97px;}</style><clipPath id="clip-path"><circle r="130" cy="140.42" cx="142.89" class="cls-1"></circle></clipPath></defs><circle r="130" cy="140.42" cx="142.89" class="cls-2"></circle><g class="cls-3"><path d="M115.24,190.69h0c-.23,0-.46,0-.69,0a10.83,10.83,0,0,1,4.12-7.11c2.84-2.05,7.09-2.18,9.73.12a6.52,6.52,0,0,1,2.07,5.25,5.46,5.46,0,0,1-1.91,4c-1.58,1.29-4.32,1.37-5.36-.37,1.52,2.55,2.82,5,4.41,7.11a18.26,18.26,0,0,0,8,6.38,29.31,29.31,0,0,0,7.66,2c.27-.05.53-.12.8-.19,22.14-5.64,38.48-16.65,50.67-35.94a215,215,0,0,0,15.76-31.14h0c2.58-6.08,5-12.21,7.5-18.33.41-1,.83-2.07,1.25-3.1h0l1-2.43h0c.73-1.76,1.45-3.52,2.19-5.27h0c2-4.62,4-9.19,6.11-13.7,3.05-6.41,6.53-12.85,11.21-18.1A40.81,40.81,0,0,1,244,75.7c.84-.69,1.72-1.35,2.63-2,.74-.49,1.5-1,2.27-1.39a32.52,32.52,0,0,1,3.7-1.82A42.32,42.32,0,0,1,260,68.17a80.07,80.07,0,0,1,20.7-1.38s20.49,3.48,29.91,15.63c2.52,3.26-7.38-3.74-11.33-4.8C278.79,72.14,259,76,245,92.21c-6.71,7.76-11.24,17.13-15.45,26.48-13.08,29-22.94,62.87-47.17,84.89-9,8.19-20.75,14.1-32.92,13.6-5.85-.25-11.52-1.94-17.13-3.61a29,29,0,0,1-5.91-2.48,24.33,24.33,0,0,1-8.86-8.47c-.45-.71-.86-1.45-1.24-2.2a17.59,17.59,0,0,1-2-7.65,13.26,13.26,0,0,1,.11-1.67C114.75,191,115,190.84,115.24,190.69Z" class="cls-4"></path><path d="M299.34,64.93a50.38,50.38,0,0,1,11.22,17.49c-9.42-12.15-29.91-15.63-29.91-15.63A80.07,80.07,0,0,0,260,68.17a42.32,42.32,0,0,0-7.36,2.34,32.52,32.52,0,0,0-3.7,1.82c-.77.43-1.53.9-2.27,1.39-.91.63-1.79,1.29-2.63,2a40.81,40.81,0,0,0-4.28,4.14c-4.68,5.25-8.16,11.69-11.21,18.1-2.15,4.51-4.16,9.08-6.11,13.7h0c-.74,1.75-1.46,3.51-2.19,5.27h0l-1,2.43h0c-.42,1-.84,2.06-1.25,3.1-.44.66-.92,1.29-1.42,1.9a11.15,11.15,0,0,1-3.67,3.11,5.92,5.92,0,0,1-1.94.55,5.38,5.38,0,0,1-3.69-1.16,6.24,6.24,0,0,1-2.43-4.2,7.81,7.81,0,0,1,4.17-7.38c.42-.23.86-.42,1.3-.61s.81-.36,1.2-.56a6,6,0,0,0,1.6-1.09,6.52,6.52,0,0,0,1.31-2.06c.21-.5.38-1,.55-1.52.41-1.22.83-2.43,1.25-3.65h0c.83-2.34,1.68-4.68,2.59-7,.39-1,.8-2,1.21-3a84.8,84.8,0,0,1,9.23-17c.77-1.08,1.58-2.13,2.43-3.14a51,51,0,0,1,5-5.27S268,44.77,299.24,65Z" class="cls-5"></path><path d="M299.34,64.93l-.1.1c-31.22-20.26-62.57,5.35-62.57,5.35a51,51,0,0,0-5,5.27c-.85,1-1.66,2.06-2.43,3.14a84.8,84.8,0,0,0-9.23,17c-.41,1-.82,2-1.21,3-.91,2.32-1.76,4.66-2.59,7h0c-.42,1.22-.84,2.43-1.25,3.65-.17.51-.34,1-.55,1.52a6.52,6.52,0,0,1-1.31,2.06,6,6,0,0,1-1.6,1.09c-.39.2-.8.38-1.2.56.15-.82.3-1.64.43-2.46a28.29,28.29,0,0,0,.46-8.82,23.61,23.61,0,0,0,1.82-3.18c.58-1.2,1.1-2.45,1.61-3.67q.48-1.14,1-2.25c.84-2,1.71-3.89,2.63-5.8.44-.95.91-1.88,1.38-2.82a0,0,0,0,0,0,0A87.08,87.08,0,0,1,225,76.31c.62-.9,1.25-1.79,1.91-2.65s1.31-1.7,2-2.52c.43-.5.85-1,1.28-1.47a49.84,49.84,0,0,1,6.64-6.1h0a36.9,36.9,0,0,1,16.56-7.32s12.32-5.52,32.8-1.32l.22-.35c.77.49,1.53,1,2.29,1.51A67,67,0,0,1,299.34,64.93Z" class="cls-4"></path><path d="M197,102.63a6.14,6.14,0,0,1,2.54-5.74l.29-.16c1.45-.77,3.46-.76,4.46.4a.08.08,0,0,1,0,0,1.88,1.88,0,0,1,.16.23h0a0,0,0,0,1,0,0l.07.12h0c.69-1.72,1.37-3.45,2.07-5.17.77-1.9,1.55-3.8,2.37-5.67,1-2.24,2-4.46,3.1-6.63.66-1.31,1.33-2.59,2-3.86.6-1,1.21-2.09,1.85-3.11.48-.76,1-1.51,1.47-2.26.28-.42.57-.84.87-1.25s.61-.87.94-1.29c.58-.78,1.2-1.55,1.83-2.31.9-1.08,1.85-2.14,2.85-3.16a47.25,47.25,0,0,1,3.83-3.52A37.69,37.69,0,0,1,243,51.46s9.75-4.15,28.76-4.06l.14-.38a83.6,83.6,0,0,1,14.58,7.55l-.22.35c-20.48-4.2-32.8,1.32-32.8,1.32a36.9,36.9,0,0,0-16.56,7.32h0a49.84,49.84,0,0,0-6.64,6.1c-.43.48-.85,1-1.28,1.47-.69.82-1.36,1.66-2,2.52s-1.29,1.75-1.91,2.65a87.08,87.08,0,0,0-5.46,9.35,0,0,0,0,1,0,0c-.47.94-.94,1.87-1.38,2.82-.92,1.91-1.79,3.85-2.63,5.8q-.48,1.11-1,2.25c-.51,1.22-1,2.47-1.61,3.67a23.61,23.61,0,0,1-1.82,3.18,15.34,15.34,0,0,1-1.17,1.49c-.16.19-.34.36-.51.54a10,10,0,0,1-1.47,1.2,8.26,8.26,0,0,1-7.33,1.28,3.66,3.66,0,0,1-.61-.27A6,6,0,0,1,197,102.63Z" class="cls-5"></path><path d="M193.67,95.51c.54-1.38,1.07-2.75,1.62-4.13s1.22-3.06,1.86-4.58c.53-1.31,1.08-2.6,1.64-3.9.76-1.71,1.55-3.42,2.37-5.09,1-2,2-3.9,3.09-5.8.25-.43.5-.84.75-1.26.54-.9,1.11-1.77,1.7-2.64.4-.59.82-1.17,1.25-1.74h0q1.29-1.74,2.7-3.38c1.07-1.24,2.2-2.44,3.37-3.6.62-.6,1.24-1.19,1.88-1.76.92-.83,1.87-1.64,2.84-2.42,10.81-8.6,24.61-13.53,38.46-11.94.77.1,1.54.2,2.31.33a55.79,55.79,0,0,1,6.89,1.55c1.85.54,3.68,1.17,5.48,1.87l-.14.38c-19-.09-28.76,4.06-28.76,4.06A37.69,37.69,0,0,0,227.8,59.3,47.25,47.25,0,0,0,224,62.82c-1,1-1.95,2.08-2.85,3.16-.63.76-1.25,1.53-1.83,2.31-.33.42-.63.86-.94,1.29s-.59.83-.87,1.25c-.51.75-1,1.5-1.47,2.26-.64,1-1.25,2.06-1.85,3.11-.71,1.27-1.38,2.55-2,3.86C211,82.23,210,84.45,209,86.69c-.82,1.87-1.6,3.77-2.37,5.67-.7,1.72-1.38,3.45-2.07,5.17h0l-.07-.12a0,0,0,0,0,0,0h0a1.88,1.88,0,0,0-.16-.23.08.08,0,0,0,0,0c-1-1.16-3-1.17-4.46-.4l-.29.16a6.14,6.14,0,0,0-2.54,5.74,47.21,47.21,0,0,1-6.15.43,6.44,6.44,0,0,0,.37-1.35h0a5.89,5.89,0,0,0-.63-3.8A6.11,6.11,0,0,0,185.76,95h0a5.63,5.63,0,0,0-3.39.7A7.45,7.45,0,0,0,180,97.9a10.15,10.15,0,0,1-1.29-5.27h0a15,15,0,0,1,.36-3.2c.65-3,2.24-6,5-7.23a5.57,5.57,0,0,1,2.38-.51,5.73,5.73,0,0,1,3.72,1.3h0a4.06,4.06,0,0,1,1.31,2.1,3.91,3.91,0,0,1,.1.58,4.43,4.43,0,0,1-4.73,4.53A6.3,6.3,0,0,0,188,92.55,8.43,8.43,0,0,0,193.67,95.51Z" class="cls-4"></path><path d="M150.74,194.13a65.85,65.85,0,0,0,28.57-20.82c3.32-4.24,6.82-8.12,10.12-12.36a107.58,107.58,0,0,0,17.81-34.09,5.38,5.38,0,0,0,3.69,1.16,5.92,5.92,0,0,0,1.94-.55,11.15,11.15,0,0,0,3.67-3.11c.5-.61,1-1.24,1.42-1.9-2.47,6.12-4.92,12.25-7.5,18.33h0a215,215,0,0,1-15.76,31.14c-12.19,19.29-28.53,30.3-50.67,35.94-.27.07-.53.14-.8.19a29.31,29.31,0,0,1-7.66-2,18.26,18.26,0,0,1-8-6.38,92.81,92.81,0,0,0,23.13-5.55Z" class="cls-5"></path><path d="M148.68,182.62c23.17-11.67,42.68-37.7,49.37-62.35,4.76-1.44,8.85-5.42,9.55-10.32l.42-3.33a10,10,0,0,0,1.47-1.2c.17-.18.35-.35.51-.54a15.34,15.34,0,0,0,1.17-1.49,28.29,28.29,0,0,1-.46,8.82c-.13.82-.28,1.64-.43,2.46-.44.19-.88.38-1.3.61a7.81,7.81,0,0,0-4.17,7.38,6.24,6.24,0,0,0,2.43,4.2A107.58,107.58,0,0,1,189.43,161c-3.3,4.24-6.8,8.12-10.12,12.36a65.85,65.85,0,0,1-28.57,20.82h0l-.26.06A17,17,0,0,1,136.82,191a16.3,16.3,0,0,1-2.85-2.84,17,17,0,0,1-3.64-9.58,12.41,12.41,0,0,1,.26-3.44,10.3,10.3,0,0,1,.75-2.1,12.73,12.73,0,0,1,3.86-4.58,12.38,12.38,0,0,1,7.5-2.64,9.71,9.71,0,0,1,3.83.85,8.33,8.33,0,0,1,3.23,2.52,6.91,6.91,0,0,1,1,6.81,5.48,5.48,0,0,1-5.86,3.2,4.54,4.54,0,0,1-3.42-5.44,1.56,1.56,0,0,1,.66-.85,1,1,0,0,0-.46-.13c-2.1,0-3.72,2.18-3.69,4.28a8.25,8.25,0,0,0,2.76,5.49,4.44,4.44,0,0,0,1.65,1.18,5.21,5.21,0,0,0,2.89-.2l3.39-.91Z" class="cls-4"></path><path d="M198.05,120.27c-.38.11-.76.21-1.14.29a17,17,0,0,1-13.3-2.78l-.18-.13c-4.59-3.35-7.26-8.94-5.61-15a15.39,15.39,0,0,1,1.33-3.34A13.94,13.94,0,0,1,180,97.9a7.45,7.45,0,0,1,2.37-2.24,5.63,5.63,0,0,1,3.39-.7h0a6.11,6.11,0,0,1,4.82,2.94,5.89,5.89,0,0,1,.63,3.8h0c-.19.45-.37.89-.55,1.34s-.41,1-.6,1.44a5.58,5.58,0,0,1-1.78,1.6c-.67.37-1.62.56-2.1,0a7.19,7.19,0,0,0,2.17,2.35,10,10,0,0,0,7.49,1.5,13.68,13.68,0,0,0,4.85-2,8.26,8.26,0,0,0,7.33-1.28L207.6,110C206.9,114.85,202.81,118.83,198.05,120.27Z" class="cls-4"></path><path d="M200.08,107.63a3.66,3.66,0,0,0,.61.27,13.68,13.68,0,0,1-4.85,2,10,10,0,0,1-7.49-1.5,7.19,7.19,0,0,1-2.17-2.35c.48.59,1.43.4,2.1,0a5.58,5.58,0,0,0,1.78-1.6,6.39,6.39,0,0,0,.78-1.43,47.21,47.21,0,0,0,6.15-.43A6,6,0,0,0,200.08,107.63Z" class="cls-5"></path><path d="M196.91,120.56c.38-.08.76-.18,1.14-.29-6.69,24.65-26.2,50.68-49.37,62.35h0l-3.39.91a5.21,5.21,0,0,1-2.89.2,4.44,4.44,0,0,1-1.65-1.18,8.25,8.25,0,0,1-2.76-5.49c0-2.1,1.59-4.3,3.69-4.28a1,1,0,0,1,.46.13,1.56,1.56,0,0,0-.66.85,4.54,4.54,0,0,0,3.42,5.44,5.48,5.48,0,0,0,5.86-3.2,6.91,6.91,0,0,0-1-6.81,8.33,8.33,0,0,0-3.23-2.52,93.83,93.83,0,0,0,19.54-13.83,95.47,95.47,0,0,0,7.28-7.49c1.38-1.58,14.53-20.74,15.82-22.43l-.07-.1a20.47,20.47,0,0,0,2.63-2A17.16,17.16,0,0,0,196.91,120.56Z" class="cls-5"></path><path d="M119.3,162.48c1.08-.2,2.15-.41,3.22-.64A91.64,91.64,0,0,0,135.45,158h0a96.84,96.84,0,0,0,21.78-11.74,99.28,99.28,0,0,0,8-6.36q2.85-2.52,5.5-5.25,1.62-1.67,3.15-3.41c1.25-1.43,2.47-2.88,3.64-4.38.2-.25.4-.5.59-.76a19.13,19.13,0,0,0,8.25-1.72,21.12,21.12,0,0,0,2.76-1.51l.07.1c-1.29,1.69-14.44,20.85-15.82,22.43a95.47,95.47,0,0,1-7.28,7.49,93.83,93.83,0,0,1-19.54,13.83,9.71,9.71,0,0,0-3.83-.85,12.38,12.38,0,0,0-7.5,2.64,12.73,12.73,0,0,0-3.86,4.58,88.91,88.91,0,0,1-22.4,4,14.44,14.44,0,0,1-2.11-3.47,13.57,13.57,0,0,1-1.56-6.17,7.23,7.23,0,0,1,.26-1.72,5.84,5.84,0,0,1,2.7-3.66c-.39,1.33,1.37,2.35,2.74,2.15a5.07,5.07,0,0,0,4-5.3,6.48,6.48,0,0,0-4.32-5.38,7.31,7.31,0,0,0-1.5-.37,27.79,27.79,0,0,1,2.17-4.37,15.68,15.68,0,0,1,3.3-3.88,11.77,11.77,0,0,1,2.88-1.78,11.28,11.28,0,0,1,7-.63,9.13,9.13,0,0,1,6.05,4.4,6.66,6.66,0,0,1-.59,7.24,5.32,5.32,0,0,1-6.93.92c-.33-.89-.65-1.79-1-2.69a6.71,6.71,0,0,0-3.84,5.38A6.34,6.34,0,0,0,119.3,162.48Z" class="cls-4"></path><path d="M191.73,120.83a20.47,20.47,0,0,1-2.63,2,21.12,21.12,0,0,1-2.76,1.51,19.13,19.13,0,0,1-8.25,1.72l-.93,0a16,16,0,0,1-3.22-.59,13.63,13.63,0,0,1-1.66-.59h0a13.88,13.88,0,0,1-7.53-7.54,8.82,8.82,0,0,1-.53-2.11,9.77,9.77,0,0,1,.16-3.37,6,6,0,0,1,3.87-4.68,5.37,5.37,0,0,1,3.95.35,5.26,5.26,0,0,1,2.18,2c1.2,2,.16,5.44-2.22,5.42a8.28,8.28,0,0,0,8,3.67,10.8,10.8,0,0,0,3.32-.93l.18.13A17.08,17.08,0,0,0,191.73,120.83Z" class="cls-5"></path><path d="M150.47,194.2l.26-.06a92.81,92.81,0,0,1-23.13,5.55c-1.59-2.14-2.89-4.56-4.41-7.11,1,1.74,3.78,1.66,5.36.37a5.46,5.46,0,0,0,1.91-4c1.19-.23,2.35-.5,3.51-.8h0a16.3,16.3,0,0,0,2.85,2.84A17,17,0,0,0,150.47,194.2Z" class="cls-5"></path><path d="M81,161.36c0-.11,0-.22,0-.33a10.29,10.29,0,0,1,1.68-4.73,24.05,24.05,0,0,0,.49,3A13.58,13.58,0,0,0,85,163.8c1.74,2.69,4.66,4.36,7.64,5.52a36.08,36.08,0,0,0,6,1.79,12.61,12.61,0,0,1-1.55-4.74,11.37,11.37,0,0,1,.19-3.77h0a12.17,12.17,0,0,1,6.33-8.44,9.54,9.54,0,0,1,5.57-1,7.31,7.31,0,0,1,1.5.37,6.48,6.48,0,0,1,4.32,5.38,5.07,5.07,0,0,1-4,5.3c-1.37.2-3.13-.82-2.74-2.15a5.84,5.84,0,0,0-2.7,3.66,7.23,7.23,0,0,0-.26,1.72,13.57,13.57,0,0,0,1.56,6.17,14.44,14.44,0,0,0,2.11,3.47,88.91,88.91,0,0,0,22.4-4,10.3,10.3,0,0,0-.75,2.1,12.41,12.41,0,0,0-.26,3.44,17,17,0,0,0,3.64,9.58h0c-1.16.3-2.32.57-3.51.8a6.52,6.52,0,0,0-2.07-5.25c-2.64-2.3-6.89-2.17-9.73-.12a10.83,10.83,0,0,0-4.12,7.11,106.32,106.32,0,0,1-11.43-.28c-3-1.95-5.13-5.22-3.81-8.82a2.51,2.51,0,0,0,1.83,2.91,3.67,3.67,0,0,0,3.57-1.34c2.12-2.51.91-6.8-2-8.41s-6.65-.84-9.21,1.22a8.55,8.55,0,0,0-1.82,2h0a9.9,9.9,0,0,1-2.6-1.07,11.76,11.76,0,0,1-1.93-1.43,18.68,18.68,0,0,1-3.78-5A17.05,17.05,0,0,1,81,161.36Z" class="cls-5"></path><path d="M106.5,200.15c3.28.23,6.57.33,9.85.27.38.75.79,1.49,1.24,2.2a24.33,24.33,0,0,0,8.86,8.47,1.81,1.81,0,0,0-.23,0A128.34,128.34,0,0,1,72.93,206c-9.6-3.07-24.14-8.3-30.25-17a19.45,19.45,0,0,1-2.8-7,12.54,12.54,0,0,1-.13-6.26,7.18,7.18,0,0,1,1.11-2.19,7.73,7.73,0,0,1,5.11-3l.63-.06a8.14,8.14,0,0,1,6.86,3.34c1.35,1.88,1.78,4.67.31,6.46s-5,1.42-5.54-.85A2.75,2.75,0,0,0,48,180c-.49,1.51.31,3.28,1.27,4.62a21,21,0,0,0,22.31,7.71,122.59,122.59,0,0,0,34.93,7.86Z" class="cls-4"></path><path d="M99.3,181.62c-1.32,3.6.84,6.87,3.81,8.82a11.4,11.4,0,0,0,4.39,1.76,11.64,11.64,0,0,0,7-1.1,13.26,13.26,0,0,0-.11,1.67,17.59,17.59,0,0,0,2,7.65c-3.28.06-6.57,0-9.85-.27h0c-1-.18-2-.41-3-.69-6.08-1.77-9.56-5.32-11.39-10.48a26.52,26.52,0,0,1-1.17-4.76,10.28,10.28,0,0,1,0-4.65A6.25,6.25,0,0,1,91.7,178h0a8.55,8.55,0,0,1,1.82-2c2.56-2.06,6.34-2.83,9.21-1.22s4.08,5.9,2,8.41a3.67,3.67,0,0,1-3.57,1.34A2.51,2.51,0,0,1,99.3,181.62Z" class="cls-4"></path><path d="M95.83,144.26A13.38,13.38,0,0,0,93,150.7a7.75,7.75,0,0,0-1.88-3,9.28,9.28,0,0,0-6.81-2.45,21.12,21.12,0,0,1,1-2.27c.21-.4.43-.8.66-1.19a18.41,18.41,0,0,1,4.23-4.9,12.07,12.07,0,0,1,4.28-2.22c3.66-1,8.06.22,10,3.49s.3,8.3-3.39,9.18a3.69,3.69,0,0,1-2.16-.07,2.94,2.94,0,0,1-1.81-2.87Z" class="cls-4"></path><path d="M71.56,192.29a129.64,129.64,0,0,1-16.92-7.93A57.27,57.27,0,0,1,48,180a2.75,2.75,0,0,1,.25-.56c.5,2.27,4.05,2.65,5.54.85s1-4.58-.31-6.46a8.14,8.14,0,0,0-6.86-3.34c-3.69-5.88-6.27-13.18-1.74-18.57.36.41.72.82,1.09,1.21h0a2.55,2.55,0,0,0,1.7,2.51,2.2,2.2,0,0,0,.84.09c1.57,1.5,3.22,2.94,4.92,4.29a22.76,22.76,0,0,0,0,5.28,22,22,0,0,0,1.09,5.22c3.86,10.42,22.27,14.93,31.78,17.25,1.93.47,3.88.89,5.83,1.25h0c1.83,5.16,5.31,8.71,11.39,10.48,1,.28,2,.51,3,.69A122.59,122.59,0,0,1,71.56,192.29Z" class="cls-5"></path><path d="M98,118.53a6.58,6.58,0,0,1,.61,5.8,3.63,3.63,0,0,1-2.88,2.47,2.09,2.09,0,0,1-1.47-.58,1.65,1.65,0,0,1-.48-2A6,6,0,0,0,90,126.68a7.88,7.88,0,0,0-1,1.76,8.34,8.34,0,0,0-.31,5,11.21,11.21,0,0,0,.84,2.31c.2.39.4.76.63,1.13A18.41,18.41,0,0,0,86,141.8c-.23.39-.45.79-.66,1.19a9.15,9.15,0,0,1-4.28-4.4,2.75,2.75,0,0,1-.14-.3,13.24,13.24,0,0,1-.8-2.6,20.92,20.92,0,0,1-.3-4.62c0-.62.08-1.24.13-1.86l.06-.53c0-.13,0-.27,0-.41a20,20,0,0,1,.79-3.76c.13-.38.27-.76.43-1.13a12.62,12.62,0,0,1,1.86-3,16,16,0,0,1,3.08-2.79,10.72,10.72,0,0,1,7.13-2.11,6.82,6.82,0,0,1,1.6.4A6.25,6.25,0,0,1,98,118.53Z" class="cls-5"></path><path d="M97.24,162.59h0a11.37,11.37,0,0,0-.19,3.77,12.61,12.61,0,0,0,1.55,4.74,36.08,36.08,0,0,1-6-1.79c-3-1.16-5.9-2.83-7.64-5.52a13.58,13.58,0,0,1-1.75-4.46,24.05,24.05,0,0,1-.49-3,7.9,7.9,0,0,1,3.64-3c.48-.19,1.11-.29,1.44.11a1.59,1.59,0,0,1,.21,1.06c0,2,2.35,4.05,4,2.83a3.17,3.17,0,0,0,.8-1.08,6.66,6.66,0,0,0,.31-.73,12.43,12.43,0,0,0,1.46,3.9A12.11,12.11,0,0,0,97.24,162.59Z" class="cls-4"></path><path d="M62.1,166a71,71,0,0,0,11.12,5.45c.91.35,1.81.67,2.71,1a15.08,15.08,0,0,1-2.41-5.14,27,27,0,0,1-1-6.13,19.47,19.47,0,0,1,.61-5.94c.09-.32.19-.63.29-.95,1.42-4.17,4.81-7.81,9.11-8.78a9.85,9.85,0,0,1,1.8-.23,9.28,9.28,0,0,1,6.81,2.45,7.75,7.75,0,0,1,1.88,3h0a13.47,13.47,0,0,0,.08,4.78,6.66,6.66,0,0,1-.31.73,3.17,3.17,0,0,1-.8,1.08c-1.6,1.22-3.94-.82-4-2.83a1.59,1.59,0,0,0-.21-1.06c-.33-.4-1-.3-1.44-.11a7.9,7.9,0,0,0-3.64,3A10.29,10.29,0,0,0,81,161c0,.11,0,.22,0,.33a17.05,17.05,0,0,0,2.38,9.13,18.68,18.68,0,0,0,3.78,5,11.76,11.76,0,0,0,1.93,1.43A9.9,9.9,0,0,0,91.7,178a6.25,6.25,0,0,0-.75,1.59,10.28,10.28,0,0,0,0,4.65A26.52,26.52,0,0,0,92.08,189h0c-2-.36-3.9-.78-5.83-1.25-9.51-2.32-27.92-6.83-31.78-17.25a22,22,0,0,1-1.09-5.22,22.76,22.76,0,0,1,0-5.28,10.13,10.13,0,0,1,3.32-6.75,5.74,5.74,0,0,1,.47-.35,7.58,7.58,0,0,1,8.28-.1,7.63,7.63,0,0,1,3.28,7.07c0,.19-.06.39-.1.59A5.18,5.18,0,0,1,66.33,164a3.28,3.28,0,0,1-4-.48A7.39,7.39,0,0,0,62.1,166Z" class="cls-4"></path><path d="M75.93,139a6.73,6.73,0,0,1,.11,1.85,5.38,5.38,0,0,1-1.89,3.87A3.57,3.57,0,0,1,70,145a16.42,16.42,0,0,0,3.08,10.26,19.47,19.47,0,0,0-.61,5.94,27,27,0,0,0,1,6.13,15.08,15.08,0,0,0,2.41,5.14c-.9-.31-1.8-.63-2.71-1A71,71,0,0,1,62.1,166a7.39,7.39,0,0,1,.24-2.51,3.28,3.28,0,0,0,4,.48,5.18,5.18,0,0,0,2.33-3.53c0-.2.07-.4.1-.59a7.63,7.63,0,0,0-3.28-7.07,7.44,7.44,0,0,0-4-1.18,24.47,24.47,0,0,1-.85-7.11,19.79,19.79,0,0,1,.63-5,9.56,9.56,0,0,1,2.21-4.14,7.11,7.11,0,0,1,.63-.6,7.45,7.45,0,0,1,8-.9,7.33,7.33,0,0,1,2.66,2.41A7.54,7.54,0,0,1,75.93,139Z" class="cls-5"></path><path d="M56.73,153.23A10.13,10.13,0,0,0,53.41,160c-1.7-1.35-3.35-2.79-4.92-4.29a5.15,5.15,0,0,0,3-1.76,13,13,0,0,0,2.06-2.62A22.15,22.15,0,0,0,56.73,153.23Z" class="cls-4"></path><path d="M48.18,141.43c3.77.7,7,4.63,6,8.33a6.55,6.55,0,0,1-.63,1.55,13,13,0,0,1-2.06,2.62,5.15,5.15,0,0,1-3,1.76,2.2,2.2,0,0,1-.84-.09,2.55,2.55,0,0,1-1.7-2.51h0a5.41,5.41,0,0,1,.69-2.93,12.18,12.18,0,0,0-1.78,1.72c-4.53,5.39-2,12.69,1.74,18.57l-.63.06a7.73,7.73,0,0,0-5.11,3c-7.62-8.21-12.06-18.82-3-28.19a13.32,13.32,0,0,1,1.41-1.29,12.46,12.46,0,0,1,5.86-2.68A9.13,9.13,0,0,1,48.18,141.43Z" class="cls-4"></path><path d="M48.63,124.57a7,7,0,0,1-1,4.53,11.91,11.91,0,0,1-.83,1.26c-.8,1-2.16,2-3.3,1.77a1.65,1.65,0,0,1-.85-.41,24.64,24.64,0,0,0,2.49,9.67,12.46,12.46,0,0,0-5.86,2.68,30.64,30.64,0,0,1-3.69-10.28,16,16,0,0,1,.53-8,9.32,9.32,0,0,1,.54-1.16,8.92,8.92,0,0,1,2-2.57,7.19,7.19,0,0,1,3.11-1.61,6,6,0,0,1,2.15-.08,5.52,5.52,0,0,1,4.48,3.41,5.67,5.67,0,0,1,.21.81Z" class="cls-4"></path><path d="M134,188.18c-1.16.3-2.32.57-3.51.8" class="cls-6"></path><path d="M74.45,177.82c-3.16-1.33-6.4-2.71-8.9-5.07A10.82,10.82,0,0,1,62.1,166a7.39,7.39,0,0,1,.24-2.51,3.28,3.28,0,0,0,4,.48,5.18,5.18,0,0,0,2.33-3.53c0-.2.07-.4.1-.59a7.63,7.63,0,0,0-3.28-7.07,7.58,7.58,0,0,0-8.28.1,5.74,5.74,0,0,0-.47.35A10.13,10.13,0,0,0,53.41,160a22.76,22.76,0,0,0,0,5.28,22,22,0,0,0,1.09,5.22c3.86,10.42,22.27,14.93,31.78,17.25,1.93.47,3.88.89,5.83,1.25" class="cls-6"></path><path d="M103.1,190.43h0a106.32,106.32,0,0,0,11.43.28c.23,0,.46,0,.69,0h0" class="cls-6"></path><path d="M148.68,182.62c23.17-11.67,42.68-37.7,49.37-62.35,0-.1,0-.19.07-.28" class="cls-6"></path><path d="M44.86,151.88c.36.41.72.82,1.09,1.21" class="cls-6"></path><path d="M56.73,153.23a22.15,22.15,0,0,1-3.21-1.92" class="cls-6"></path><path d="M45.14,141.39a24.64,24.64,0,0,1-2.49-9.67,1.65,1.65,0,0,0,.85.41c1.14.2,2.5-.74,3.3-1.77a11.91,11.91,0,0,0,.83-1.26,7,7,0,0,0,1-4.53h0a5.67,5.67,0,0,0-.21-.81A5.52,5.52,0,0,0,44,120.35a6,6,0,0,0-2.15.08A7.19,7.19,0,0,0,38.69,122a8.92,8.92,0,0,0-2,2.57,9.32,9.32,0,0,0-.54,1.16,16,16,0,0,0-.53,8,30.64,30.64,0,0,0,3.69,10.28" class="cls-6"></path><path d="M62.1,166a71,71,0,0,0,11.12,5.45c.91.35,1.81.67,2.71,1" class="cls-6"></path><path d="M146.53,166.68a93.83,93.83,0,0,0,19.54-13.83,95.47,95.47,0,0,0,7.28-7.49c1.38-1.58,14.53-20.74,15.82-22.43" class="cls-6"></path><path d="M108.94,177.1a88.91,88.91,0,0,0,22.4-4" class="cls-6"></path><path d="M53.41,160c-1.7-1.35-3.35-2.79-4.92-4.29" class="cls-6"></path><path d="M210.28,114.67c.15-.82.3-1.64.43-2.46a28.29,28.29,0,0,0,.46-8.82c0-.12,0-.24,0-.36" class="cls-6"></path><path d="M40.86,173.55c-7.62-8.21-12.06-18.82-3-28.19a13.32,13.32,0,0,1,1.41-1.29,12.46,12.46,0,0,1,5.86-2.68,9.13,9.13,0,0,1,3,0c3.77.7,7,4.63,6,8.33a6.55,6.55,0,0,1-.63,1.55,13,13,0,0,1-2.06,2.62,5.15,5.15,0,0,1-3,1.76,2.2,2.2,0,0,1-.84-.09,2.55,2.55,0,0,1-1.7-2.51h0a5.41,5.41,0,0,1,.69-2.93,12.18,12.18,0,0,0-1.78,1.72c-4.53,5.39-2,12.69,1.74,18.57" class="cls-6"></path><path d="M106.5,200.15c3.28.23,6.57.33,9.85.27" class="cls-6"></path><path d="M48,180a57.27,57.27,0,0,0,6.66,4.4,129.64,129.64,0,0,0,16.92,7.93,122.59,122.59,0,0,0,34.93,7.86" class="cls-6"></path><path d="M150.74,194.13a65.85,65.85,0,0,0,28.57-20.82c3.32-4.24,6.82-8.12,10.12-12.36a107.58,107.58,0,0,0,17.81-34.09" class="cls-6"></path><path d="M127.6,199.69a92.81,92.81,0,0,0,23.13-5.55" class="cls-6"></path><path d="M72,192.17c-.14,0-.28.09-.43.12a21,21,0,0,1-22.31-7.71c-1-1.34-1.76-3.11-1.27-4.62a2.75,2.75,0,0,1,.25-.56c.5,2.27,4.05,2.65,5.54.85s1-4.58-.31-6.46a8.14,8.14,0,0,0-6.86-3.34l-.63.06a7.73,7.73,0,0,0-5.11,3,7.18,7.18,0,0,0-1.11,2.19,12.54,12.54,0,0,0,.13,6.26,19.45,19.45,0,0,0,2.8,7c6.11,8.66,20.65,13.89,30.25,17a128.34,128.34,0,0,0,53.29,5.12,1.81,1.81,0,0,1,.23,0" class="cls-6"></path><path d="M143.23,208.06c.27-.05.53-.12.8-.19,22.14-5.64,38.48-16.65,50.67-35.94a215,215,0,0,0,15.76-31.14h0c2.58-6.08,5-12.21,7.5-18.33.41-1,.83-2.07,1.25-3.1h0l1-2.43h0c.73-1.76,1.45-3.52,2.19-5.27h0c2-4.62,4-9.19,6.11-13.7,3.05-6.41,6.53-12.85,11.21-18.1A40.81,40.81,0,0,1,244,75.7c.84-.69,1.72-1.35,2.63-2,.74-.49,1.5-1,2.27-1.39a32.52,32.52,0,0,1,3.7-1.82A42.32,42.32,0,0,1,260,68.17a80.07,80.07,0,0,1,20.7-1.38s20.49,3.48,29.91,15.63c2.52,3.26-7.38-3.74-11.33-4.8C278.79,72.14,259,76,245,92.21c-6.71,7.76-11.24,17.13-15.45,26.48-13.08,29-22.94,62.87-47.17,84.89-9,8.19-20.75,14.1-32.92,13.6-5.85-.25-11.52-1.94-17.13-3.61a29,29,0,0,1-5.91-2.48,24.33,24.33,0,0,1-8.86-8.47c-.45-.71-.86-1.45-1.24-2.2a17.59,17.59,0,0,1-2-7.65,13.26,13.26,0,0,1,.11-1.67c0-.13,0-.26.05-.38a10.83,10.83,0,0,1,4.12-7.11c2.84-2.05,7.09-2.18,9.73.12a6.52,6.52,0,0,1,2.07,5.25,5.46,5.46,0,0,1-1.91,4c-1.58,1.29-4.32,1.37-5.36-.37,1.52,2.55,2.82,5,4.41,7.11a18.26,18.26,0,0,0,8,6.38,29.31,29.31,0,0,0,7.66,2,47.61,47.61,0,0,0,6.31.38c6.05,0,12.58-1,16.82-5.34" class="cls-6"></path><path d="M178.09,126.06c-.19.26-.39.51-.59.76-1.17,1.5-2.39,3-3.64,4.38q-1.53,1.74-3.15,3.41-2.66,2.73-5.5,5.25a99.28,99.28,0,0,1-8,6.36A96.84,96.84,0,0,1,135.45,158h0a91.64,91.64,0,0,1-12.93,3.88c-1.07.23-2.14.44-3.22.64" class="cls-6"></path><path d="M190.06,104.49c.19-.48.4-1,.6-1.44s.36-.89.55-1.34" class="cls-6"></path><path d="M310.56,82.42a50.38,50.38,0,0,0-11.22-17.49,67,67,0,0,0-10.59-8.85c-.76-.51-1.52-1-2.29-1.51A83.6,83.6,0,0,0,271.88,47c-1.8-.7-3.63-1.33-5.48-1.87a55.79,55.79,0,0,0-6.89-1.55c-.77-.13-1.54-.23-2.31-.33-13.85-1.59-27.65,3.34-38.46,11.94-1,.78-1.92,1.59-2.84,2.42-.64.57-1.26,1.16-1.88,1.76-1.17,1.16-2.3,2.36-3.37,3.6q-1.41,1.63-2.7,3.38h0c-.43.57-.85,1.15-1.25,1.74-.59.87-1.16,1.74-1.7,2.64-.25.42-.5.83-.75,1.26-1.1,1.9-2.12,3.83-3.09,5.8-.82,1.67-1.61,3.38-2.37,5.09-.56,1.3-1.11,2.59-1.64,3.9-.64,1.52-1.25,3-1.86,4.58s-1.08,2.75-1.62,4.13" class="cls-6"></path><path d="M97.24,162.6a11.37,11.37,0,0,0-.19,3.77,12.61,12.61,0,0,0,1.55,4.74" class="cls-6"></path><path d="M110.05,178.19a7.63,7.63,0,0,1-1.11-1.09,14.44,14.44,0,0,1-2.11-3.47,13.57,13.57,0,0,1-1.56-6.17,7.23,7.23,0,0,1,.26-1.72,5.84,5.84,0,0,1,2.7-3.66c-.39,1.33,1.37,2.35,2.74,2.15a5.07,5.07,0,0,0,4-5.3,6.48,6.48,0,0,0-4.32-5.38,7.31,7.31,0,0,0-1.5-.37,9.54,9.54,0,0,0-5.57,1,12.17,12.17,0,0,0-6.33,8.44" class="cls-6"></path><path d="M129.79,162.45a6.57,6.57,0,0,1-5.52,2.42,6.46,6.46,0,0,1-5-2.36l0,0a6.34,6.34,0,0,1-1.14-4.71,6.71,6.71,0,0,1,3.84-5.38c.32.9.64,1.8,1,2.69a5.32,5.32,0,0,0,6.93-.92,6.66,6.66,0,0,0,.59-7.24,9.13,9.13,0,0,0-6.05-4.4,11.28,11.28,0,0,0-7,.63,11.77,11.77,0,0,0-2.88,1.78,15.68,15.68,0,0,0-3.3,3.88,27.79,27.79,0,0,0-2.17,4.37" class="cls-6"></path><path d="M93,150.7a7.75,7.75,0,0,0-1.88-3,9.28,9.28,0,0,0-6.81-2.45,9.85,9.85,0,0,0-1.8.23c-4.3,1-7.69,4.61-9.11,8.78-.1.32-.2.63-.29.95a19.47,19.47,0,0,0-.61,5.94,27,27,0,0,0,1,6.13,15.08,15.08,0,0,0,2.41,5.14" class="cls-6"></path><path d="M91.7,178a9.9,9.9,0,0,1-2.6-1.07,11.76,11.76,0,0,1-1.93-1.43,18.68,18.68,0,0,1-3.78-5A17.05,17.05,0,0,1,81,161.36c0-.11,0-.22,0-.33a10.29,10.29,0,0,1,1.68-4.73,7.9,7.9,0,0,1,3.64-3c.48-.19,1.11-.29,1.44.11a1.59,1.59,0,0,1,.21,1.06c0,2,2.35,4.05,4,2.83a3.17,3.17,0,0,0,.8-1.08,6.66,6.66,0,0,0,.31-.73,7.32,7.32,0,0,0-.08-4.78" class="cls-6"></path><path d="M97.12,144.41a2.94,2.94,0,0,0,1.81,2.87,3.69,3.69,0,0,0,2.16.07c3.69-.88,5.32-5.91,3.39-9.18s-6.32-4.51-10-3.49a12.07,12.07,0,0,0-4.28,2.22A18.41,18.41,0,0,0,86,141.8c-.23.39-.45.79-.66,1.19a21.12,21.12,0,0,0-1,2.27" class="cls-6"></path><path d="M82.71,156.3a24.05,24.05,0,0,0,.49,3A13.58,13.58,0,0,0,85,163.8c1.74,2.69,4.66,4.36,7.64,5.52a36.08,36.08,0,0,0,6,1.79" class="cls-6"></path><path d="M97.24,162.6h0a12.11,12.11,0,0,1-2.72-3.2,12.43,12.43,0,0,1-1.46-3.9,13.47,13.47,0,0,1-.08-4.78h0a13.38,13.38,0,0,1,2.85-6.44l.31-.36c.8-.89,2.27-1.66,3.06-.77" class="cls-6"></path><path d="M61.51,151.6a24.47,24.47,0,0,1-.85-7.11,19.79,19.79,0,0,1,.63-5,9.56,9.56,0,0,1,2.21-4.14,7.11,7.11,0,0,1,.63-.6,7.45,7.45,0,0,1,8-.9,7.33,7.33,0,0,1,2.66,2.41A7.54,7.54,0,0,1,75.93,139a6.73,6.73,0,0,1,.11,1.85,5.38,5.38,0,0,1-1.89,3.87A3.57,3.57,0,0,1,70,145a16.42,16.42,0,0,0,3.08,10.26" class="cls-6"></path><path d="M82.31,161.76c-.44-.12-.87-.25-1.3-.4" class="cls-6"></path><path d="M85.33,143a9.15,9.15,0,0,1-4.28-4.4,2.75,2.75,0,0,1-.14-.3,13.24,13.24,0,0,1-.8-2.6,20.92,20.92,0,0,1-.3-4.62c0-.62.08-1.24.13-1.86l.06-.53c0-.13,0-.27,0-.41a20,20,0,0,1,.79-3.76c.13-.38.27-.76.43-1.13a12.62,12.62,0,0,1,1.86-3,16,16,0,0,1,3.08-2.79,10.72,10.72,0,0,1,7.13-2.11,6.82,6.82,0,0,1,1.6.4,6.25,6.25,0,0,1,3,2.61,6.58,6.58,0,0,1,.61,5.8,3.63,3.63,0,0,1-2.88,2.47,2.09,2.09,0,0,1-1.47-.58,1.65,1.65,0,0,1-.48-2A6,6,0,0,0,90,126.68a7.88,7.88,0,0,0-1,1.76,8.34,8.34,0,0,0-.31,5,11.21,11.21,0,0,0,.84,2.31c.2.39.4.76.63,1.13" class="cls-6"></path><path d="M286.24,54.92c-20.48-4.2-32.8,1.32-32.8,1.32a36.9,36.9,0,0,0-16.56,7.32h0a49.84,49.84,0,0,0-6.64,6.1c-.43.48-.85,1-1.28,1.47-.69.82-1.36,1.66-2,2.52s-1.29,1.75-1.91,2.65a87.08,87.08,0,0,0-5.46,9.35,0,0,0,0,1,0,0c-.47.94-.94,1.87-1.38,2.82-.92,1.91-1.79,3.85-2.63,5.8q-.48,1.11-1,2.25c-.51,1.22-1,2.47-1.61,3.67a23.61,23.61,0,0,1-1.82,3.18,15.34,15.34,0,0,1-1.17,1.49c-.16.19-.34.36-.51.54a10,10,0,0,1-1.47,1.2,8.26,8.26,0,0,1-7.33,1.28,3.66,3.66,0,0,1-.61-.27,6,6,0,0,1-3.09-5,6.14,6.14,0,0,1,2.54-5.74l.29-.16c1.45-.77,3.46-.76,4.46.4a.08.08,0,0,1,0,0,1.88,1.88,0,0,1,.16.23h0a0,0,0,0,1,0,0l.07.12h0c.69-1.72,1.37-3.45,2.07-5.17.77-1.9,1.55-3.8,2.37-5.67,1-2.24,2-4.46,3.1-6.63.66-1.31,1.33-2.59,2-3.86.6-1,1.21-2.09,1.85-3.11.48-.76,1-1.51,1.47-2.26.28-.42.57-.84.87-1.25s.61-.87.94-1.29c.58-.78,1.2-1.55,1.83-2.31.9-1.08,1.85-2.14,2.85-3.16a47.25,47.25,0,0,1,3.83-3.52A37.69,37.69,0,0,1,243,51.46s9.75-4.15,28.76-4.06" class="cls-6"></path><path d="M218,122.46c-.44.66-.92,1.29-1.42,1.9a11.15,11.15,0,0,1-3.67,3.11,5.92,5.92,0,0,1-1.94.55,5.38,5.38,0,0,1-3.69-1.16,6.24,6.24,0,0,1-2.43-4.2,7.81,7.81,0,0,1,4.17-7.38c.42-.23.86-.42,1.3-.61s.81-.36,1.2-.56a6,6,0,0,0,1.6-1.09,6.52,6.52,0,0,0,1.31-2.06c.21-.5.38-1,.55-1.52.41-1.22.83-2.43,1.25-3.65h0c.83-2.34,1.68-4.68,2.59-7,.39-1,.8-2,1.21-3a84.8,84.8,0,0,1,9.23-17c.77-1.08,1.58-2.13,2.43-3.14a51,51,0,0,1,5-5.27S268,44.77,299.24,65" class="cls-6"></path><path d="M200.69,107.9a13.68,13.68,0,0,1-4.85,2,10,10,0,0,1-7.49-1.5,7.19,7.19,0,0,1-2.17-2.35c.48.59,1.43.4,2.1,0a5.58,5.58,0,0,0,1.78-1.6,6.55,6.55,0,0,0,1.15-2.78h0a5.89,5.89,0,0,0-.63-3.8A6.11,6.11,0,0,0,185.76,95h0a5.63,5.63,0,0,0-3.39.7A7.45,7.45,0,0,0,180,97.9a13.94,13.94,0,0,0-.85,1.39,15.39,15.39,0,0,0-1.33,3.34c-1.65,6.08,1,11.67,5.61,15l.18.13a17,17,0,0,0,13.3,2.78c.38-.08.76-.18,1.14-.29,4.76-1.44,8.85-5.42,9.55-10.32l.42-3.33" class="cls-6"></path><path d="M180,97.9a10.15,10.15,0,0,1-1.29-5.27h0a15,15,0,0,1,.36-3.2c.65-3,2.24-6,5-7.23a5.57,5.57,0,0,1,2.38-.51,5.73,5.73,0,0,1,3.72,1.3h0a4.06,4.06,0,0,1,1.31,2.1,3.91,3.91,0,0,1,.1.58,4.43,4.43,0,0,1-4.73,4.53A6.3,6.3,0,0,0,188,92.55a8.45,8.45,0,0,0,7.29,3,9.84,9.84,0,0,0,2.78-.68A12.8,12.8,0,0,0,201.3,93a16.71,16.71,0,0,0,3-3.06" class="cls-6"></path><path d="M190.66,103.05h.18a47.21,47.21,0,0,0,6.15-.43l.39,0" class="cls-6"></path><path d="M183.78,117.48l-.35.17a10.8,10.8,0,0,1-3.32.93,8.28,8.28,0,0,1-8-3.67c2.38,0,3.42-3.38,2.22-5.42a5.26,5.26,0,0,0-2.18-2,5.37,5.37,0,0,0-3.95-.35,6,6,0,0,0-3.87,4.68,9.77,9.77,0,0,0-.16,3.37,8.82,8.82,0,0,0,.53,2.11,13.88,13.88,0,0,0,7.53,7.54h0a13.63,13.63,0,0,0,1.66.59,16,16,0,0,0,3.22.59l.93,0a19.13,19.13,0,0,0,8.25-1.72,21.12,21.12,0,0,0,2.76-1.51,20.47,20.47,0,0,0,2.63-2" class="cls-6"></path><path d="M152.35,181.64l-3.67,1h0l-3.39.91a5.21,5.21,0,0,1-2.89.2,4.44,4.44,0,0,1-1.65-1.18,8.25,8.25,0,0,1-2.76-5.49c0-2.1,1.59-4.3,3.69-4.28a1,1,0,0,1,.46.13c.3.17.51.47.27.68" class="cls-6"></path><path d="M142.83,172.94a.57.57,0,0,0-.7,0,1.56,1.56,0,0,0-.66.85,4.54,4.54,0,0,0,3.42,5.44,5.48,5.48,0,0,0,5.86-3.2,6.91,6.91,0,0,0-1-6.81,8.33,8.33,0,0,0-3.23-2.52,9.71,9.71,0,0,0-3.83-.85,12.38,12.38,0,0,0-7.5,2.64,12.73,12.73,0,0,0-3.86,4.58,10.3,10.3,0,0,0-.75,2.1,12.41,12.41,0,0,0-.26,3.44,17,17,0,0,0,3.64,9.58,16.3,16.3,0,0,0,2.85,2.84,17,17,0,0,0,13.65,3.19l.26-.06h0a30.73,30.73,0,0,0,9.81-4.62" class="cls-6"></path><path d="M99.36,181.45a.85.85,0,0,0-.06.17c-1.32,3.6.84,6.87,3.81,8.82a11.4,11.4,0,0,0,4.39,1.76,11.64,11.64,0,0,0,7-1.1c.26-.13.5-.26.75-.41a11.3,11.3,0,0,0,2.23-1.73" class="cls-6"></path><path d="M115.9,200.74a51.8,51.8,0,0,1-9.4-.59h0c-1-.18-2-.41-3-.69-6.08-1.77-9.56-5.32-11.39-10.48a26.52,26.52,0,0,1-1.17-4.76,10.28,10.28,0,0,1,0-4.65A6.25,6.25,0,0,1,91.7,178h0a8.55,8.55,0,0,1,1.82-2c2.56-2.06,6.34-2.83,9.21-1.22s4.08,5.9,2,8.41a3.67,3.67,0,0,1-3.57,1.34,2.51,2.51,0,0,1-1.83-2.91" class="cls-6"></path></g><circle r="130" cy="140.42" cx="142.89" class="cls-7"></circle></svg>