<?xml version="1.0" encoding="utf-8"?>
<!-- Generator: Adobe Illustrator 24.0.0, SVG Export Plug-In . SVG Version: 6.00 Build 0)  -->
<svg version="1.1" id="图层_1" xmlns="http://www.w3.org/2000/svg" xmlns:xlink="http://www.w3.org/1999/xlink" x="0px" y="0px"
	 viewBox="0 0 1024 1024" style="enable-background:new 0 0 1024 1024;" xml:space="preserve">
<style type="text/css">
	.st0{clip-path:url(#SVGID_2_);fill:#50B0DD;}
	.st1{clip-path:url(#SVGID_2_);}
	.st2{fill:#3389AA;}
	.st3{fill:#FFFFFF;}
	.st4{fill:#28120E;}
	.st5{fill:#EA523C;}
</style>
<g>
	<defs>
		<polygon id="SVGID_1_" points="928,800.67 111.15,799.59 111.15,332.66 928,333.75 		"/>
	</defs>
	<clipPath id="SVGID_2_">
		<use xlink:href="#SVGID_1_"  style="overflow:visible;"/>
	</clipPath>
	<polygon class="st0" points="108.97,430.62 120.94,423 144.79,410.68 168.83,407.76 195.88,415.29 208.01,433.88 214.55,454.56 
		204.75,476.33 218.94,492.57 249.19,512.13 285.29,519.87 327.74,523.13 369.1,518.78 424.61,508.98 476.85,495.92 502.97,498.1 
		519.3,506.8 536.71,530.75 557.87,509.36 596.33,483.77 640.04,473.21 684.31,474.13 718.81,490.18 736.98,516.6 741.33,513.34 
		752.22,482.86 790.37,456.05 828.41,439.32 851.8,387.25 864.53,367.15 894.41,351.28 928,351.28 928.54,800.67 111.15,801.76 	"/>
	<g class="st1">
		<path class="st2" d="M98.89,443.94c16.08-7.7,32.52-15.81,50.34-18.4c15.36-2.24,33.77-0.61,42.02,14.44
			c6.88,12.55,2.62,27.66-9.77,34.76c-5.05,2.89-12.93,5.2-18.63,2.67c-1.78-0.79-1.7-1.92,0.5-3.5c3.22-2.31,8.68-1.64,12.37-1.58
			c10.5,0.18,10.52-16.28,0-16.33c-10.09-0.04-20.91,1.29-27.15,10.22c-5.3,7.59-4.38,17.69,2.91,23.61
			c14.44,11.73,38.18,3.33,49.23-9.21c12.33-13.99,13.89-34.44,4.18-50.36c-10.47-17.17-30.64-21.93-49.51-19.76
			c-22.33,2.57-45.54,11.03-60.06,28.78C93.17,441.89,95.77,445.43,98.89,443.94L98.89,443.94z"/>
	</g>
	<g class="st1">
		<path class="st2" d="M172.42,494.03c-9.69-0.53-8.84,15.17-8.28,21.31c0.84,9.12,3.21,21.98,10.89,27.78
			c3.03,2.29,7.69,1,10.22-1.32c0.16-0.14,0.31-0.29,0.47-0.43c4.46-4.09,2.19-12.08-3.57-13.51c2.65,0.66,2.43,1.64,0.77-1.29
			c-0.62-1.09-1.21-2.2-1.75-3.34c-1.35-2.84-2.34-5.8-3.16-8.83c-1.26-4.67-2.81-10.72-1.92-15.57
			C176.54,496.33,175.04,494.17,172.42,494.03L172.42,494.03z"/>
	</g>
	<g class="st1">
		<path class="st2" d="M110.75,599.65c3.22-3.34,7.57-5.5,11.28-8.26c3.6-2.67,6.97-5.62,10.67-8.16c7.02-4.83,14.66-8.84,22.57-12
			c7.98-3.19,16.29-5.64,24.69-7.44c8.23-1.77,17.61-2.82,22.28,5.68c7.16,13.03,2.25,33.69-13.19,37.92
			c-3.76,1.03-14.87,1-15.32-3.76c-0.61-6.47,16.12-9.31,20.07-9.97c4.65-0.78,7.25-6.52,6.09-10.73c-1.35-4.91-6.07-6.9-10.73-6.09
			c-9.69,1.68-20.48,5.32-27.32,12.79c-7.32,7.99-7.43,19.47-0.06,27.48c13.78,14.99,39.43,9.38,51.19-5.11
			c12.57-15.49,13.56-40.58,0.08-55.94c-14.55-16.56-39.62-7.33-56.7-0.31c-10.12,4.16-19.75,9.22-28.51,15.8
			c-4.45,3.35-8.88,6.92-12.44,11.24c-3.62,4.39-5.12,9.59-7.67,14.53C106.73,599.2,109.17,601.3,110.75,599.65L110.75,599.65z"/>
	</g>
	<g class="st1">
		<path class="st2" d="M106.02,668.62c16.74-4.97,33.91-11.25,51.44-6.2c16.3,4.69,28.36,17.43,36.43,31.86
			c8.71,15.57,11.16,33.87,23.69,47.24c12.39,13.22,29.33,23.46,45.45,31.43c14.75,7.29,39.84,12.25,45.03,30.37
			c2.15,7.49,10.45,8.54,15.95,4.21c9.35-7.37,4.37-19.39-2.18-26.52c-3.69,4.78-7.38,9.57-11.07,14.35
			c1.75,1.09,3.05,2.38,3.93,4.31c1.01,2.22-0.24,4.79,2.37,0.82c2.1-3.21,1.33-2.19-1.36-2.3c-6.54-0.25-13.11-1.06-19.62-1.72
			c-13.28-1.35-26.46-3.44-39.53-6.16c2.11,3.72,4.22,7.44,6.33,11.15c0.12-0.36,0.24-0.72,0.35-1.08c-0.78,1.33-1.55,2.67-2.33,4
			c-1.93,2.35-1.48,0.12-0.89,0.59c0.89,0.71,5.1,1.06,6.23,1.3c3.46,0.74,6.91,1.48,10.37,2.22c6.84,1.47,14.08,3.67,21.02,1.62
			c12.95-3.83,15.91-24.68,1.08-28.15c-9.56-2.24-14.33,8.33-8.91,15.3c0.46,0.59,1.54,3.39,2.03,3.67
			c-0.86-0.5,2.61-2.51,4.23-1.59c-2.25,5.33-4.5,10.67-6.75,16c6.39,1.61,12.66,1.77,18.92-0.43c10.16-3.57,5.96-17.38-4.37-15.84
			c-3.32,0.5-6.69,0.25-9.9-0.61c-9.56-2.58-15.36,10.93-6.75,16c6.94,4.08,15.5,1.5,19.78-5.18c4.81-7.49,1.84-16.38-2.82-23.12
			c-3.45,4.48-6.89,8.97-10.34,13.45c-3.22-1.44-4.27-3.34-3.15-5.69c1.65-1.08,1.91-1.52,0.78-1.32c-0.64-0.49-5.12-0.71-5.85-0.86
			c-5.55-1.1-11.11-2.2-16.65-3.34c-9.35-1.92-19.91-2.76-23.58,8.24c-1.49,4.46,1.72,10.17,6.33,11.15
			c20.67,4.42,41.8,7.84,62.94,8.78c9.12,0.4,18.97-3.57,18.97-14.19c0-9.52-6.39-17.44-13.65-22.8c-3.62-2.67-9.31-0.96-11.79,2.35
			c-2.94,3.93-2.18,8.31,0.71,12c3.03,3.86-0.17,1.5,1.61,0.11c5.32,1.4,10.63,2.81,15.95,4.21c-5.74-20.04-24.16-28.89-41.89-36.36
			c-17.62-7.42-35.31-17.11-49.7-29.83c-14.77-13.05-16.89-33.91-27.18-50.11c-10.02-15.77-24.48-28.77-42.43-34.64
			c-21.36-6.98-45.35-0.51-62.86,12.74C98.47,663.02,100.5,670.26,106.02,668.62L106.02,668.62z"/>
	</g>
	<g class="st1">
		<path class="st2" d="M220.97,565.09c3.54-3.33,8.71-3.95,13.25-5.11c5.37-1.37,11.34-2.86,16.88-1.79
			c12.37,2.38,12.66,18.01,12.67,27.86c0.01,25-0.9,51.41,12.31,73.72c12.3,20.77,33.73,32.68,57.94,28.63
			c13.3-2.23,25.63-8.45,37.8-13.99c13.18-6,26.34-12.03,39.53-18c7.82-3.54,23.01-9.63,24.64,3.61c0.36,2.94,0.96,12.09-0.94,13.73
			c-1.66,1.43-10.82,0.43-11.76-1.38c0,3.07,0,6.13,0,9.2c-0.6,0.96-0.33-0.2,1.35-0.3c1.84-0.12,3.67,0.11,5.51,0.21
			c4.48,0.25,8.93,0.23,13.12-1.64c8.39-3.75,12.56-12.51,7.97-20.88c-3.98-7.25-14.43-3.52-14.83,4.02
			c-0.04,0.69-5.91,0.27-7.29,0.18c-3.71-0.23-7.44-0.15-11.03,0.95c-8.55,2.63-15.09,11.24-9.2,19.58
			c7.56,10.71,30.04,11.97,39.15,2.84c5.91-5.92,6.31-15.35,6.24-23.24c-0.07-7.68-1.75-15.49-7.05-21.33
			c-11.97-13.19-30.32-7.87-44.21-1.59c-16.94,7.66-33.77,15.6-50.77,23.13c-13.83,6.13-30.15,11.77-44.36,3.68
			c-28.42-16.17-26.08-54.15-26.32-82.1c-0.15-17.36-6.67-38.28-26.41-41.55c-8.67-1.44-17.77,0.98-25.87,4
			c-6.47,2.41-12.58,7.28-13.59,14.48C215.27,565,218.48,567.43,220.97,565.09L220.97,565.09z"/>
	</g>
	<g class="st1">
		<path class="st2" d="M202.34,486.76c6.66,21.35,27.97,36.87,48.43,43.54c23.35,7.61,48.93,10.09,73.37,10.21
			c25.02,0.12,50.06-2.79,74.58-7.66c12.66-2.51,25.2-5.6,37.62-9.11c12.08-3.41,24.06-8.35,36.44-10.54
			c10.97-1.95,23.27,0.16,31.67,7.92c3.96,3.66,6.86,8.19,8.33,13.39c1.25,4.38,2.26,11.22-0.57,15.14
			c1.04-1.04,2.08-2.08,3.12-3.12c-2.35,1.5-5.98,0.78-8.51,0.04c-1.54-0.45-2.92-0.97-4.26-1.87c-0.72-0.38-1.36-0.88-1.9-1.5
			c-0.7-0.64-0.73-0.73-0.1-0.27c-0.38,1.41-0.76,2.83-1.15,4.24c0.35-0.83-0.54,0.09-0.65-0.12c-0.18-0.32,1.4,0.86,1.82,1.16
			c2.39,1.73,4.32,4.09,6.69,5.88c5.17,3.91,11.6,5.89,17.87,3.44c13.59-5.32,12.19-21.15,8.24-32.37
			c-4.02-11.42-9.45-22.91-20.08-29.56c-5.19-3.24-11.57-5.18-17.7-4.78c-3.13,0.2-5.98,0.94-8.86,2.12
			c-1.21,0.49-2.39,1.09-3.62,1.55c-0.52,0.19-1.03,0.38-1.55,0.57c-1.87,0.34-2.04,0.5-0.53,0.5c-9.99-5.13-18.84,10.03-8.81,15.07
			c4.04,2.03,7.97,2.7,12.44,1.64c4.02-0.96,7.6-3.85,11.74-4.24c8.27-0.78,14.14,7.32,17.38,13.75c1.85,3.68,3.32,7.63,4.56,11.56
			c0.64,2.02,1.59,4.33,1.33,6.49c-0.15,1.26-1.54,2.48-0.11,2.28c-2.42,0.35-6.9-5.3-8.6-6.63c-3.71-2.91-8.02-5.16-12.87-4.97
			c-8.55,0.33-16.19,7.74-14.11,16.64c1.92,8.23,10.38,14.24,18.11,16.55c7.58,2.26,18.9,2.06,24.45-4.35
			c5.53-6.39,4.98-17.66,3.51-25.4c-3.23-16.98-16.72-30.04-32.85-35.17c-19.04-6.07-37.25,1.17-55.37,6.8
			c-38.42,11.95-78.39,19.83-118.74,19.7c-22.02-0.07-44.58-2.17-65.8-8.29c-10.05-2.9-19.72-7.12-27.72-13.96
			c-7.62-6.51-13.72-14.77-22.26-20.09C204.86,481.34,201.45,483.92,202.34,486.76L202.34,486.76z"/>
	</g>
	<g class="st1">
		<path class="st2" d="M288.37,650.3c6.97,12.12,26,10.49,36.77,5.39c11.43-5.41,20.87-16.43,28.44-26.31
			c8.01-10.46,10.18-23.76,15.92-35.44c5.58-11.36,12.31-22.07,20.65-31.6c4.19-4.79,3.88-12.38-2.03-15.79
			c-11.51-6.62-23.13,6.72-27.3,16.41c-2.14,4.98-1.48,10.76,3.6,13.73c4.76,2.79,10.91,1.04,13.73-3.6
			c3.72-6.12,9.1-13.25,15.82-16.24c-1.66,0.45-3.31,0.9-4.97,1.35c-1.53-0.88-1.79-0.9-0.78-0.08c0.41,0.36,0.79,0.74,1.15,1.14
			c0.74,0.79,1.36,1.55,1.98,2.44c1.39,2,2.64,4.29,3.5,6.58c0.79,2.08,0.52,4.14,1.01,6.11c0.05,0.18-0.33,0.47-0.26,0.66
			c-0.02,0.07-0.05,0.13-0.07,0.2c-1.15,0.97,0.19,1.32,4.02,1.06c0.87,1.49,1.74,2.99,2.61,4.48c-0.12-0.4-0.25-0.79-0.37-1.19
			c0,1.8,0,3.6,0,5.39c0.07-0.4,0.14-0.8,0.21-1.21c-0.87,1.49-1.74,2.98-2.61,4.47c-1.34,0.49-1.25,0.43,0.27-0.18
			c0.65-0.22,1.27-0.51,1.86-0.88c1.36-0.79,2.72-1.78,3.84-2.9c2.24-2.23,4.01-5.21,4.92-8.24c1.77-5.92,0.37-12.4-3.54-17.11
			c-9.5-11.44-23.21-6.77-32.69,1.72c-3.92,3.51-3.57,10.19,0,13.76c4.01,4.01,9.71,3.37,13.76,0c0.75-0.62,3.9-2.04,4.21-2.69
			c0.91-0.21,1-0.26,0.27-0.15c-1.69-1.06-2.26-2.53-1.7-4.4c1.13-1.13,2.25-2.25,3.38-3.38c-0.27,0.21-0.55,0.42-0.82,0.62
			c2.42-0.32,4.83-0.63,7.25-0.95c-0.42-0.06-0.83-0.11-1.25-0.17c1.38,0.81,2.77,1.61,4.15,2.42c-0.29-0.34-0.57-0.68-0.86-1.02
			c0.81,1.38,1.61,2.76,2.42,4.15c0.09-0.05,0.18-0.1,0.27-0.15c0.51-5.05-4.68-9.39-9.39-9.39c-5.53,0-8.84,4.32-9.39,9.39
			c-0.83,7.71,6.02,15.14,14.05,12.93c7.14-1.97,10.03-10.5,8.34-17.08c-1.79-7-8.44-11.54-15.42-11.94
			c-7.58-0.44-13.57,3.6-19.27,8.06c4.59,4.59,9.18,9.18,13.76,13.76c0.99-0.84,2.47-1.53,3.38-2.43c1.6-1.58,0.25,0.67,0.42-0.38
			c-0.07,0.43-1.11-2.36-0.27-1.92c-0.08,0.12-0.15,0.24-0.23,0.35c1.35-0.85,0.75-0.64-1.81,0.62c-7.48,3.82-9.9,13.54-4.11,20
			c5.28,5.89,14.02,5.91,20.53,2.03c6.17-3.67,9.71-10.65,10.2-17.64c0.9-12.66-8.24-30.24-20.21-35.44
			c-7.91-3.43-14.52,1.43-20.38,6.32c-5.76,4.8-10.54,10.7-14.52,17.04c5.78,3.38,11.56,6.75,17.33,10.13
			c1.13-2.52,3.76-8.33,6.57-8.74c-2.58-0.34-5.16-0.68-7.74-1.01c0.33,0.19,0.67,0.38,1,0.58c-0.68-5.26-1.36-10.52-2.03-15.79
			c-7.61,8.7-14.51,18.14-19.95,28.35c-5.76,10.79-8.98,22.23-12.85,33.73c-1.78,5.3-5.15,9.58-8.73,13.78
			c-3.8,4.46-7.62,9.07-12.14,12.83c-4.09,3.4-8.73,6.02-14.1,6.45c-6.44,0.52-12.08-1.78-18.23,1.1
			C287.8,645.36,287.29,648.41,288.37,650.3L288.37,650.3z"/>
	</g>
	<g class="st1">
		<path class="st2" d="M357.28,698.14c0.74,18.14,19.2,31.32,34.97,36.68c20.48,6.95,43.04,3.32,62.5-4.98
			c19.89-8.49,37.08-21.77,54.04-34.96c8.03-6.24,15.91-12.38,22.48-20.2c5.7-6.79,11.05-13.56,20.19-15.45
			c8.44-1.74,17.36,1.4,22.88,8.04c6.38,7.66,7.51,18.78,8.93,28.28c1.55,10.37,19.33,10.34,20.92,0
			c1.58-10.33,1.18-20.29-1.66-30.39c-3.14-11.13-21.89-9.46-20.86,2.82c0.81,9.59,0.68,19.23-0.68,28.77
			c-0.04,0.29-1.24,6.17-1.08,6.24c3.5-2.06,3.86-2.56,1.08-1.5c-0.83,0.31-1.67,0.45-2.54,0.41c-1.48,0.11-2.94-0.03-4.37-0.44
			c-0.89-0.08-1.66-0.4-2.32-0.94c1.28,6.12,0.13,9.1-3.44,8.92c-1.31-0.05-1.15,0.08,0.48,0.4c0.51,0.53,1.12,0.92,1.84,1.17
			c1.81,1.08,3.73,2.05,5.71,2.77c4.39,1.59,8.83,1.73,13.22,0.16c8.97-3.19,15.05-13.1,11.43-22.37c-1.57-4.02-4.74-7.08-9.3-7.08
			c-3.87,0-8.69,2.96-9.3,7.08c0.2-1.38-0.33,2.58-0.6,1.99c0.72,1.58-1.23-0.3,0.74,0.18c1.88,0.46,0.43-0.29-0.29-0.8
			c-1.18-0.83-2.62-1.59-3.9-2.23c-5.72-2.86-12.87-3.87-18.68-0.62c-5.82,3.26-8.83,9.87-7.73,16.39
			c1.27,7.55,6.89,12.47,13.82,15.06c11.64,4.34,30.3,2.66,34.64-11.09c2.08-6.58,2.3-14.5,2.68-21.36
			c0.39-7.03,0.27-14.1-0.16-21.12c-6.95,0.94-13.9,1.88-20.86,2.82c1.59,6.2,2.12,12.6,1.22,18.98c6.97,0,13.94,0,20.92,0
			c-3.17-19.67-9.76-38.83-29.44-47.36c-19.4-8.41-39.76-1.51-53.11,14.02c-6.5,7.57-12.88,14.39-20.74,20.6
			c-8.45,6.68-16.94,13.34-25.78,19.5c-16.91,11.78-36.07,22.45-57.12,23.46c-10.51,0.51-20.75-1.36-29.96-6.56
			c-8.72-4.93-14.23-12.32-21.2-19.26C363.52,690.85,357.08,693.2,357.28,698.14L357.28,698.14z"/>
	</g>
	<g class="st1">
		<path class="st2" d="M313.73,739.38c7.56-0.34,14.44-3.3,21.92-3.89c7.28-0.57,14.78,0.5,21.26,3.94
			c6.51,3.45,11.39,8.43,15.02,14.81c4.59,8.06,8.83,15.34,16.84,20.5c15.88,10.24,35.94,9.06,53.98,10.3
			c13.59,0.93,31.69,4.38,35.57,19.79c3.41,13.54,24.63,7.77,20.96-5.78c-5.4-19.9-24.47-30.93-43.79-33.79
			c-10.84-1.61-21.73-1.48-32.64-2.27c-8.5-0.61-18.51-1.84-25.3-7.51c-3.19-2.67-4.84-6.55-6.83-10.09
			c-2.37-4.23-5.19-8.22-8.54-11.75c-6.45-6.79-14.85-11.9-23.8-14.64c-15.59-4.77-42.28-2.16-47.8,16.25
			C309.99,737.21,311.64,739.47,313.73,739.38L313.73,739.38z"/>
	</g>
	<g class="st1">
		<path class="st2" d="M505.94,746.57c-0.35,15.18,7.8,32.48,21.17,40.25c8.75,5.09,19.49,6.46,29.36,7.76
			c10.1,1.32,20.26,1.94,30.44,1.7c20.33-0.47,40.05-4.74,59.8-9.18c19-4.27,38.66-8.68,58.24-6.01c8.62,1.18,17.02,3.94,24.49,8.41
			c3.63,2.17,6.87,4.68,9.84,7.7c1.22,1.24,2.42,2.53,3.47,3.92c0.48,0.64,0.93,1.31,1.36,1.98c1.31,2.02,1.28,4.09,1.25,0.61
			c0.48-1.77,0.96-3.53,1.43-5.3c-0.11,0.21-0.21,0.43-0.32,0.64c2.98-1.71,5.97-3.42,8.95-5.13c-0.2-0.01-0.39-0.03-0.59-0.04
			c-9.92-0.74-14.3,14.82-5.18,19.11c0.18,0.08,0.36,0.17,0.54,0.25c4.36,2.05,8.95,1.74,12.56-1.62
			c14.71-13.69-13.87-35.96-24.61-41.82c-17.31-9.45-37.45-11.79-56.87-9.97c-20.77,1.94-40.68,7.87-60.98,12.3
			c-20.7,4.52-41.7,5.81-62.78,3.48c-9.67-1.07-20.04-1.97-27.09-9.31c-6.19-6.44-8.71-15.46-14.02-22.56
			C513.2,739.46,506.08,740.6,505.94,746.57L505.94,746.57z"/>
	</g>
	<g class="st1">
		<path class="st2" d="M645.5,724.44c5.24-1.12,9.07-4.6,13.53-7.35c5.05-3.11,10.16-4.79,16.07-5.4
			c5.36-0.56,10.66,0.01,15.86,1.36c5.56,1.45,8.2,4.5,12.5,8.02c9.3,7.6,21.29,7.99,32.6,5.77c6.08-1.19,11.98-3.28,18.12-4.21
			c6.04-0.91,12.21-0.62,18.24,0.15c5.69,0.73,10.61-5.4,10.61-10.61c0-6.12-4.87-10.16-10.61-10.61
			c-13.93-1.09-26.36,2.3-39.71,5.61c-4.63,1.15-10.07,2.26-14.7,0.43c-5.25-2.08-8.74-7.56-14.05-9.96
			c-10.88-4.92-25.52-5.77-36.83-1.76c-10.36,3.67-23.74,12.17-26.76,23.43C639.49,722.51,642.43,725.1,645.5,724.44L645.5,724.44z"
			/>
	</g>
	<g class="st1">
		<path class="st2" d="M936.03,645.35c-4.67-5.02-12.19-0.56-15.34,4.02c-4.48,6.51-4.98,16.24-5.71,23.87
			c-1.48,15.33,5.97,30.6,0.11,45.55c-2.43,6.2-6.52,10.55-12.11,14c-6.58,4.05-12.92,8.26-18.42,13.75
			c-10.58,10.55-18.16,24.04-21.61,38.57c-3.3,13.86,18.45,19.69,21.25,5.86c2.49-12.32,8.21-23.36,17.37-32.05
			c4.72-4.48,10.35-7.44,15.56-11.28c5.75-4.25,10.57-9.6,13.78-16.03c6.61-13.22,6.72-26.96,3.99-41.19
			c-1.48-7.71-1.98-15.41-1.68-23.27c0.13-3.47,0.29-6.95,0.5-10.42c0.21-3.5,1.05-4.63,2.82-7.54
			C937.28,647.95,936.98,646.37,936.03,645.35L936.03,645.35z"/>
	</g>
	<g class="st1">
		<path class="st2" d="M933.64,510.11c-4.01,0.68-7.31,1.02-10.56,3.59c-3.61,2.86-7.1,5.86-10.39,9.07
			c-6.03,5.89-11.94,12.6-16.14,19.93c-9.43,16.46-10.09,35.86-12.02,54.24c-1.7,16.19-4.6,32.95-13.4,46.95
			c-8.2,13.03-20.89,22.36-33.98,30.03c-7.88,4.61-16.09,8.52-24.2,12.7c-4.34,2.24-8.17,5.15-12.29,7.75
			c-1.79,1.13-3.66,2.35-5.24,3.76c-2.69,2.4-3.02,4.56-4.72,7.42c1.72-1.32,3.44-2.65,5.17-3.97c-9.4,2.52-13.89,12.72-14.52,21.9
			c-0.67,9.93,6.84,15.51,15.05,19.14c4.79,2.12,7.95,2.6,13.14,1.29c0.64-0.17,1.28-0.3,1.93-0.38c0.94-0.18,0.89-0.12-0.16,0.2
			c1.92,0.5,3.68,1.52,5.61,1.98c3.35,0.8,7.08-0.24,10.56,0.09c3.96,0.37,7.63-0.34,11.4-1.59c7.21-2.38,13.71-6.05,19.44-11.03
			c6.95-6.04,10.79-16.78,3.54-24.3c-6.52-6.77-17.76-4.44-25.03-0.2c-7.15,4.16-12.29,11.44-14.27,19.41
			c-3.26,13.13,16.48,18.59,20.27,5.59c0.66-2.26,1.68-3.94,3.55-5.46c0.69-0.56,1.91-1.37,2.73-1.73c0.43-0.32,0.93-0.49,1.52-0.51
			c2.43-0.4,1.93-0.6-1.48-0.6c-1.26-1.26-2.51-2.51-3.77-3.77c1.52-5.06,1.37-6.39-0.47-4c-0.36,0.35-0.72,0.71-1.08,1.06
			c-0.83,0.79-1.69,1.54-2.6,2.22c-2.07,1.54-4.51,2.97-6.88,3.99c-3.07,1.33-6.35,2.09-9.44,3.36c-3.01,1.23-5.41,0.56-8.67,1.13
			c-0.78,0.14-3.14,0.51-2.7,0.68c0.7,0.27-0.9-1.28-1.06-1.46c-2.49-2.87-5.76-3.72-8.98-5.52c-0.81-0.46-5.62-3.71-2.2-0.22
			c0.77,2.32,1.25,2.37,1.45,0.15c0.11-0.67,0.34-1.29,0.71-1.85c1.88-4.09,3.36-6.49,3.37-11.24c-0.84,2.04-1.69,4.08-2.53,6.11
			c0.43-0.37,0.86-0.73,1.3-1.1c-1.31,0.77-2.63,1.53-3.94,2.3c6.3-1.75,10.01-7.08,15-10.95c-1.37,0.8-2.73,1.59-4.1,2.39
			c7.49-2.75,14.53-6.8,21.61-10.49c6.7-3.5,13.32-7.2,19.64-11.34c12.91-8.46,24.74-18.66,33.29-31.63
			c8.93-13.55,13.11-29.61,15.36-45.51c2.38-16.85,1.96-34.66,7.9-50.8c3.03-8.25,7.78-16.29,13.05-23.29
			c2.52-3.34,5.3-6.51,8.18-9.54c3.52-3.71,4.64-6.92,6.48-11.56C939.14,511.7,936,509.7,933.64,510.11L933.64,510.11z"/>
	</g>
	<g class="st1">
		<path class="st2" d="M790.44,724.28c8.92-4.51,17.23-11.18,25.54-16.72c8.47-5.65,16.94-11.29,25.42-16.94
			c3.6-2.4,0.19-8.26-3.4-5.82c-8.71,5.93-17.42,11.86-26.13,17.8c-8.22,5.6-17.34,10.73-24.83,17.27
			C784.53,722.06,787.73,725.65,790.44,724.28L790.44,724.28z"/>
	</g>
	<g class="st1">
		<path class="st2" d="M801.42,701.68c-11.6,8.8-13.41,29.76-1.18,38.76c5.86,4.31,14.41,7.5,21.71,6.05
			c7.83-1.55,14.07-8.07,19.71-13.3c7.1-6.58-2-18-10.23-13.25c-6.19,3.58-12.83,7.61-20.2,7.68c-2.77,0.03-6.25-0.3-8.47-2.2
			c-2.72-2.32,0.24-5.4,0.78-8.34c0.78-4.29-3.39-8.05-7.49-5.76c-5.48,3.06-8.9,9.79-7.85,16.04c1.1,6.52,6.29,11.23,12.12,13.78
			c13.61,5.95,27.45-0.24,39.63-6.62c-3.41-4.42-6.82-8.84-10.23-13.25c-3.12,2.59-6.29,5.19-9.74,7.32
			c-2.93,1.81-5.72,0.84-8.83-0.52c-3.61-1.57-4.45-3.95-4.57-7.81c-0.12-3.77-0.18-8.56,1.32-12.07
			C809.51,704.45,805.71,698.43,801.42,701.68L801.42,701.68z"/>
	</g>
	<g class="st1">
		<path class="st2" d="M680.25,646.17c-0.83-13-18.57-13.88-24.29-3.71c-8.18,14.54,8.35,28.76,21.7,29.84
			c13.99,1.13,28.18-7.39,39.16-15.2c5.87-4.17,11.38-9.02,15.04-15.32c3.44-5.92,3.84-12.32,9.26-16.93
			c9.52-8.08,21.94-17.18,34.74-12.12c6.72,2.66,12.73,5.66,20.1,6.16c7.48,0.51,14.82-1.34,21.61-4.36
			c13.62-6.06,23.34-17.79,31.06-30.17c8.02-12.86,15.05-26.33,23-39.24c8.69-14.11,18.08-27.82,29.11-40.22
			c9.17-10.31,20.7-22.2,35.37-23.02c13.25-0.74,13.35-21.44,0-20.71c-26.09,1.41-44.88,21.63-60.01,40.93
			c-16.49,21.04-29.2,44.15-42.49,67.24c-5.71,9.92-12.16,20.04-22.4,25.78c-4.14,2.32-8.77,3.83-13.56,3.7
			c-6.21-0.17-11.66-3.74-17.36-5.78c-12.54-4.5-25.33-1.08-36.39,5.58c-11.45,6.89-22.43,14.95-26.98,27.91
			c-4.13,11.78-15.94,18.56-26.82,23.66c-4.69,2.2-11.51,4.3-16.63,2.12c-1.24-0.53-2.79-2.17-3.04-2.61
			c0.24,0.41-0.6,0.32-0.51,0.5c-0.23-0.46,1.51,1.05,0.58,0.02C673.71,653.8,680.56,651.05,680.25,646.17L680.25,646.17z"/>
	</g>
	<g class="st1">
		<path class="st2" d="M934.79,357.31c-5.97-13.88-29.04-8.55-39.61-4.21c-12.53,5.14-25.44,13.33-35.07,22.92
			c-10.98,10.94-14.25,27.56-19.6,41.61c-2.4,6.32-4.55,13.01-7.92,18.89c-2.86,5-8.1,7.01-13.19,9.17
			c-12.41,5.26-25.32,9.69-36.82,16.86c-11.83,7.37-20.66,17.35-28.3,28.89c-8.8,13.28-14.87,26.77-9.86,42.84
			c4.27,13.68,11.99,26.8,23.95,35.02c11.26,7.73,27.95,11.71,40.1,3.58c6.73-4.5,11.44-13.04,9.18-21.24
			c-2.41-8.74-13.42-13.91-21.2-8.36c-4.75,3.38-7.02,9.43-3.88,14.8c2.76,4.72,9.99,7.25,14.8,3.88c-0.23,0.1-0.46,0.2-0.69,0.3
			c-1.92,0-3.84,0-5.75,0c-1.03-0.75-2.06-1.51-3.09-2.26c-0.49-1.82-0.99-3.65-1.48-5.47c0.4,3.13,0.06,0.31,0.56-0.22
			c0.69-0.73-0.99,0.63-0.57,0.6c1.11-0.08-2.49,0.63-2.11,0.57c-3.25,0.51-6.86-0.38-10.35-1.91c-9.1-3.98-14.72-12.7-18.48-21.53
			c-1.91-4.49-3.44-9.3-2.46-14.18c1.04-5.16,4.12-9.77,6.91-14.13c5.4-8.42,11.38-16.54,19.73-22.27
			c8.01-5.5,16.94-9.45,25.89-13.13c9.62-3.96,20.96-7.19,28.51-14.72c7.57-7.55,10.8-19.1,14.51-28.83
			c2.12-5.57,4.17-11.18,6.12-16.82c1.84-5.3,3.21-11.02,6.36-15.74c6.07-9.09,17.98-16.45,27.55-21.28
			c5.51-2.78,11.49-4.56,17.64-5.21c5.94-0.63,11.77,0.26,17.13-2.75C935.42,361.78,935.66,359.33,934.79,357.31L934.79,357.31z"/>
	</g>
	<g class="st1">
		<path class="st2" d="M544.5,543.48c14.82-8.04,27.19-20.47,40.85-30.31c13.66-9.85,27.76-19.57,44.59-22.68
			c15.75-2.91,32.54-1.22,47.84,3.16c7.55,2.16,14.79,5.05,21.7,8.78c4.14,2.24,12.99,6.17,14.19,11.48
			c1.34,5.96-7.13,8.9-11.53,9.51c-1.83,0.25-5-0.41-6.71,0.22c3.05-1.12-1.08,0.14-0.82-0.08c-0.11,0.09,1.46,5.8,1.7,5.99
			c0.84,0.7,2.55-0.24,4.04-0.43c2.3-0.28,4.72-0.15,6.98,0.28c5.46,1.05,11.12-1.53,12.68-7.2c1.38-5.02-1.7-11.65-7.2-12.68
			c-11.89-2.21-28.62-1.29-35.07,10.85c-7.06,13.31,5.18,23.93,17.69,24.58c11.53,0.6,24.64-2.84,32.36-11.9
			c7.9-9.27,9.69-22.4,2.5-32.67c-6.59-9.42-17.79-14.8-28.08-19.19c-10.59-4.52-21.52-7.62-32.93-9.21
			c-24.08-3.35-49.87-0.86-71.13,11.58c-11.45,6.7-22.44,14.48-32.7,22.89c-10.57,8.66-21.33,18-27.66,30.32
			C535.56,541.12,540.08,545.88,544.5,543.48L544.5,543.48z"/>
	</g>
	<g class="st1">
		<path class="st2" d="M454.33,652.09c7.11-3.24,11.59-10.69,16.91-16.13c5.4-5.51,10.95-10.91,17.16-15.51
			c12.79-9.46,26.89-16.97,42.26-21.21c7.63-2.1,15.4-3.47,23.31-3.82c7.37-0.32,16.09-0.27,22.23,4.48
			c6.09,4.71,9.25,12.92,13.91,18.9c5.84,7.5,13.63,13.05,23.36,13.7c11.16,0.75,20.82-5.38,31.01-8.85
			c8.15-2.78,19.62-5.92,27.2-0.14c-1.25-1.25-2.49-2.49-3.74-3.74c0.08,0.04,0.17,0.08,0.25,0.12c3.48,12.93,23.4,7.47,20.07-5.53
			c-2.92-11.42-16.91-14.73-27.25-14.73c-11.04,0-21.52,3.68-31.53,7.98c-4.16,1.79-8.61,4.24-13.19,4.65
			c-4.19,0.37-6.95-1.85-9.63-4.79c-6.33-6.93-9.86-15.88-17.29-21.95c-15.34-12.52-37.67-10.18-55.75-6.27
			c-17.6,3.81-35.26,11.45-49.64,22.36c-7.97,6.04-15.56,12.82-21.85,20.63c-5.81,7.22-13.9,17.13-12.81,26.98
			C449.63,651.85,451.9,653.2,454.33,652.09L454.33,652.09z"/>
	</g>
	<g class="st1">
		<path class="st2" d="M758.18,753.38c4.15,4.07,5.47,9.44,7.48,14.72c2.14,5.65,4.89,11.15,8.97,15.67
			c8.52,9.42,23.34,12.65,35.22,8.69c11.65-3.89,6.66-22.42-5.1-18.5c-8.61,2.87-16.82,0.24-22.25-7.11
			c-5.66-7.66-10.09-15.92-18.82-20.59C759.23,743.86,754.39,749.67,758.18,753.38L758.18,753.38z"/>
	</g>
	<g class="st1">
		<path class="st3" d="M174.49,456.52c-8.76-1.42-17.32,1.43-22.87,8.62c-5.37,6.95-7.99,17.92-1.18,24.9
			c13.06,13.39,38.47,0.28,49.17-9.89c14.71-13.98,17.94-37.61,3.26-52.8c-14.32-14.82-37.6-16.89-56.64-12.19
			c-23.86,5.89-47.47,21.41-62.42,40.83c-3.62,4.7,3.13,9.67,7.47,7.47c17.76-9,31.81-23.81,50.75-30.8
			c15.97-5.89,38.52-8.74,51.36,5.25c13.63,14.85-0.87,33.76-15.44,40.49c-3.12,1.44-16.2,7.07-18.6,1.73
			c-1.4-3.12,2.69-8.15,4.65-10.11c2.83-2.83,6.62-4.77,10.5-5.62C178.26,463.55,178.5,457.17,174.49,456.52L174.49,456.52z"/>
	</g>
	<g class="st1">
		<path class="st3" d="M294.54,648.58c10.16,11.13,26.39,9.52,38.28,1.86c13.96-9,21.16-24.92,27.63-39.55
			c3.81-8.61,7.61-17.22,11.41-25.83c3.58-8.1,6.58-17.01,11.24-24.56c1.23-1.99,3.63-5.44,6.53-4.56c2.36,0.71,4.63,6.76,5.61,8.78
			c1.21,2.51,2.63,5.59,2.42,8.44c-0.26,3.45-0.83,0.27-1.15,1.34c0.08-0.28,3,1.62,0.39-0.31c1.46,3.58,2.91,7.15,4.37,10.73
			c-0.63,0.22-1.25,0.47-1.87,0.74c11.89-0.75,12.1-19.05,0-18.67c-7.94,0.25-14.5,5.05-16.45,12.88c-0.75,3.01-0.17,7.18,2.44,9.24
			c13.31,10.51,31.65-0.7,30.9-17.15c-0.36-7.99-4.57-15.78-9.03-22.25c-4.68-6.78-11.64-11.29-20.14-9.65
			c-16.78,3.24-22.05,24.21-27.9,37.62c-6.83,15.67-12.7,32.46-21.71,47.04c-8.27,13.38-23.78,23.54-40.05,18.83
			C294.47,642.68,292.58,646.43,294.54,648.58L294.54,648.58z"/>
	</g>
	<g class="st1">
		<path class="st3" d="M539.51,541.67c6.72-5.62,13.92-10.8,20.85-16.17c6.82-5.29,13.45-10.65,20.77-15.26
			c14.23-8.94,29.77-15.83,46.27-19.2c16.26-3.33,33.39-2.94,49.4,1.5c7.94,2.21,15.4,5.44,22.41,9.79
			c4.75,2.95,13.43,8.55,13.65,14.97c0.22,6.43-10.34,5.23-13.92,7.16c0.41-0.22-1.07,0.18-1.07,0.18c-0.01,0.02,5.01,4.3,2.89,3.47
			c0.7,0.27-1.14,0.45,0.05,0.35c1.08-0.09,3.79-1.54,4.82-2.03c2.74-1.3,4.47-3.35,6.19-5.81c2.35-3.36,0.82-9.26-2.89-11.03
			c-6.34-3.02-11.92-1.82-17.86,1.68c-4.95,2.91-8.71,7.5-9.85,13.18c-2.57,12.77,7.45,21.6,19.69,20.07
			c10.81-1.35,22.86-4.4,28.75-14.57c6.53-11.29,2.18-23.81-5.87-32.94c-7.67-8.7-19.1-14-29.78-17.96
			c-10.8-3.99-22.29-6.1-33.77-6.71c-23.48-1.23-46.85,4.56-67.71,15.18c-11.32,5.76-21.79,13.22-31.46,21.42
			c-10.35,8.77-17.81,18.69-24.85,30.18C534.92,541.27,537.77,543.12,539.51,541.67L539.51,541.67z"/>
	</g>
	<g class="st1">
		<path class="st3" d="M200.25,486.4c2.63,1.19,5.01,6.73,6.63,9.03c1.99,2.81,4.04,5.64,6.33,8.22
			c4.93,5.55,10.94,10.33,17.41,13.95c12.03,6.72,28.51,12.06,42.4,10.86c3.3-0.28,5.41-5.09,1.85-6.85
			c-6.72-3.32-14.13-4.56-21.31-6.55c-7.5-2.07-14.92-4.79-21.58-8.88c-6.42-3.94-11.75-9.35-16.96-14.75
			c-3.81-3.95-7.89-11.09-14.26-9.05C199.14,482.91,198.42,485.57,200.25,486.4L200.25,486.4z"/>
	</g>
	<g class="st1">
		<path class="st3" d="M936.57,367.95c-3.61-8.4-9.74-13.33-18.53-15.87c-8.38-2.42-17.58-1.09-25.5,2.26
			c-9.45,3.99-17.41,10.65-24.32,18.13c-6.92,7.49-13.82,15.8-18.67,24.79c-5.31,9.84-7.48,21.11-13.26,30.69
			c-4.66,7.73-11.61,14.12-19.65,18.21c-9.78,4.99-20.99,6.45-30.89,11.32c-7.77,3.82-14.87,9.55-20.42,16.19
			c-6.75,8.07-11.86,17.44-14.63,27.62c-2.9,10.67-2.7,20.56,2.07,30.57c2.65,5.56,10.24,2.23,10.65-2.88
			c1.21-15.34,3.07-30.54,12.64-43.2c4.52-5.98,10.31-10.93,16.93-14.42c8.37-4.42,18.19-5.43,26.95-8.9
			c17.51-6.94,29.48-20.54,36.11-37.92c3.51-9.21,6.38-18.08,11.63-26.52c4.78-7.68,10.23-15.16,16.65-21.55
			c6.29-6.25,14.17-11.7,23.27-12.38c8.31-0.62,18.02,1.48,23.7,7.94C934.02,375.15,937.95,371.17,936.57,367.95L936.57,367.95z"/>
	</g>
	<g class="st1">
		<path class="st3" d="M617.83,616.41c22.03-3.78,43.89-5.56,62.85,8.49c8.45,6.27,17.85-8.9,8.39-14.36
			c-21.58-12.46-54.32-17.33-73.87,1.35C613.09,613.91,615.34,616.84,617.83,616.41L617.83,616.41z"/>
	</g>
	<g class="st1">
		<path class="st3" d="M111.52,669.25c7.74-2.87,17.84-0.98,25.59,1.25c7.73,2.23,15.1,5.28,22.14,9.15
			c12.98,7.13,25.7,16.18,34.2,28.53c9.21,13.39,11.43,30.17,21.07,43.33c4.59,6.27,10.1,11.59,16.22,16.36
			c6.46,5.03,13.63,10.83,21.36,13.65c7.41,2.71,12.74-7.74,7.5-12.88c-6.03-5.9-14.36-9.54-20.9-14.95
			c-6.68-5.53-12.23-11.65-16.16-19.42c-3.93-7.76-6.38-16.17-10.16-24c-3.51-7.27-8.33-14.01-13.98-19.78
			c-11.25-11.51-25.78-20.08-40.53-26.27c-7.87-3.3-15.91-5.7-24.49-6.07c-9.07-0.39-15.84,2.51-23.89,6.23
			C106.78,665.65,108.7,670.29,111.52,669.25L111.52,669.25z"/>
	</g>
	<g class="st1">
		<path class="st3" d="M491.8,693.38c11.95-7.85,23.33-16.72,35.67-23.94c11.85-6.93,26.36-14.21,40.55-11.66
			c11.49,2.06,22.88,14.09,23.96,25.77c0.5,5.33-1.05,11.38-5.67,14.52c-2.01,1.36-4.64,2.21-7.08,1.9
			c-0.74-0.09-1.73-0.74-2.32-0.66c-0.26-0.13-0.51-0.29-0.74-0.47c0.81,1.99,0.1,3.65-2.11,4.99c11.17-2.69,6.4-19.41-4.72-17.12
			c-8.34,1.72-12.55,10.93-9.96,18.67c2.82,8.44,12.27,12.67,20.62,12.78c17.69,0.23,30.79-15.95,30.24-32.97
			c-0.55-16.77-12.48-32.63-27.26-40.03c-17.3-8.65-35.2-2.52-51.21,5.91c-17.52,9.22-33.83,21.09-43.73,38.53
			C486.73,691.91,489.42,694.94,491.8,693.38L491.8,693.38z"/>
	</g>
	<g class="st1">
		<path class="st3" d="M646.06,716.17c10.9-3.55,21.24-12.55,33.36-10.21c10.78,2.08,19.45,10.9,29.98,14.15
			c10.7,3.3,22.46,3.23,33.15-0.06c5.5-1.69,10.67-4.2,16.03-6.25c5.89-2.25,10.88-2.89,17.1-3.11c9.97-0.35,9.99-15.17,0-15.51
			c-11.86-0.41-23.35,6.93-34.24,10.69c-11.58,4-24.01,3.84-35.15-1.53c-10.35-4.99-19.47-11.84-31.6-10.75
			c-12,1.08-24.32,7.84-31.71,17.31C641.23,713.13,642.73,717.26,646.06,716.17L646.06,716.17z"/>
	</g>
	<g class="st1">
		<path class="st3" d="M191.19,582.66c-1.49-6.9-9.55-8.11-15.17-5.58c-6.91,3.11-12.32,10.87-15.53,17.49
			c-3.44,7.08-4.89,15.23,1.13,21.37c5.4,5.5,13.2,9.99,20.87,11.02c34.54,4.63,53.98-50.06,28.44-70.94
			c-13.7-11.2-38.25-11.58-48.59,4.19c-2.09,3.19,1.35,6.37,4.49,5.85c11.89-1.97,24.2-8.5,35.2,0.09
			c10.02,7.83,7.89,24.39,2.93,34.58c-5.78,11.86-18.06,17.05-29.62,9.89c-2.42-1.5-5.65-2.93-5.65-6.01
			c0.01-2.91,2.13-6.23,3.56-8.64c2.99-5.02,7.44-11.28,13.99-9.34C189.7,587.34,191.69,584.97,191.19,582.66L191.19,582.66z"/>
	</g>
	<g class="st1">
		<path class="st3" d="M311.21,742.27c17.42,0.23,38.92-1.6,53.13,10.52c6.18,5.27,8.55,12.44,11.46,19.73
			c2.89,7.26,6.54,13.84,12.91,18.59c13.53,10.1,30.68,7.74,46.41,6.75c8.05-0.51,17.13-0.88,24.21,3.67
			c2.69,1.73,5.19,4.1,6.57,7.03c1.57,3.32,0.96,7.06,1.46,10.64c0.98,6.95,10.23,6.22,13.43,1.76c5.2-7.26,1.45-17.93-3.38-24.36
			c-5.54-7.37-13.65-12.24-22.7-13.87c-10.5-1.88-20.87-0.21-31.36,0.72c-8.2,0.73-17.37,1.04-24.93-2.78
			c-8.03-4.05-10.4-13.2-13.77-20.84c-3.63-8.25-9.04-14.97-16.66-19.87c-17.57-11.3-38.38-9.39-57.8-5.3
			C305.81,735.58,306.92,742.22,311.21,742.27L311.21,742.27z"/>
	</g>
	<g class="st1">
		<path class="st3" d="M473.36,643.81c8.57-9.6,19.4-17.53,31.04-23.02c5.59-2.63,11.38-4.8,17.38-6.28
			c6.53-1.61,13.27-1.53,19.76-3.01c5.73-1.3,6.24-11.2,0-12.1c-13.78-2-30.46,4.16-42.12,11.21
			c-12.54,7.57-22.34,17.79-29.43,30.59C468.85,643.27,471.68,645.69,473.36,643.81L473.36,643.81z"/>
	</g>
	<g class="st1">
		<path class="st3" d="M435.55,545.83c8.03,8.61,7.97,25.21,5.56,35.97c-1.29,5.76-3.86,11.14-8.11,15.3
			c-4.38,4.29-10.14,5.21-14.79,8.71c-3.59,2.7-2.98,7.48,1.19,9.14c7.34,2.92,16.36-2.68,21.61-7.55
			c6.29-5.84,10.43-13.92,12.14-22.28c2.99-14.64,0.89-36.31-13.83-44.17C436.2,539.27,433.11,543.21,435.55,545.83L435.55,545.83z"
			/>
	</g>
	<g class="st1">
		<path class="st3" d="M582.27,548.23c8.74-4.94,18.48-8.46,28.42-10c9.02-1.4,18.25-1.9,25.95,3.65c7.79,5.62,15.23-7.3,7.52-12.86
			c-9.6-6.93-23.14-6.11-34.07-3.42c-12.07,2.97-22.79,8.94-32.09,17.11C574.94,545.4,578.86,550.16,582.27,548.23L582.27,548.23z"
			/>
	</g>
	<g class="st1">
		<path class="st3" d="M655.32,553.59c2.84,14.15,16.71,22.61,29.25,27.23c11.59,4.27,34.52,10.62,42.45-2.98
			c2.03-3.49-0.53-8.35-4.71-8.21c-6.02,0.19-11.46,2.28-17.62,1.8c-5.58-0.43-11.24-1.76-16.6-3.36
			c-11.08-3.31-20.15-8.84-28.08-17.2C657.97,548.7,654.8,550.99,655.32,553.59L655.32,553.59z"/>
	</g>
	<g class="st1">
		<path class="st3" d="M746.92,665.35c8.77-9.14,21.61-14.54,34.29-14.77c14.05-0.26,25.93,9.25,40.06,7.33
			c30.49-4.15,46.14-39.96,55.46-65.32c3.63-9.87-12.17-14.16-15.74-4.34c-4.98,13.71-11.42,27.94-20.45,39.52
			c-8.85,11.34-20.41,17.15-34.5,12.65c-24.31-7.76-49.99-1.13-64.34,20.92C739.65,664.5,744.33,668.05,746.92,665.35L746.92,665.35
			z"/>
	</g>
	<g class="st1">
		<path class="st3" d="M757.81,744.87c-5.61,11.08,4,26.84,11.94,34.29c10.25,9.63,26.22,14.58,40.06,11.65
			c9.1-1.92,7.18-16.9-2.21-16.34c-10.58,0.64-19.73-0.32-28.38-7.13c-3.63-2.85-6.65-6.56-9.04-10.49
			c-2.51-4.12-3.7-9.01-6.84-12.71C761.91,742.49,758.78,742.95,757.81,744.87L757.81,744.87z"/>
	</g>
	<g class="st1">
		<path class="st3" d="M523.52,710.66c-3.74,3.43-1.63,10.7-0.16,14.87c1.99,5.63,5.37,10.93,9.34,15.36
			c8.38,9.37,20.15,14.72,32.51,16.11c13.56,1.52,27.17-1.73,40.36-4.51c6.54-1.38,13.12-2.68,19.8-3.12
			c5.25-0.34,11.96-1.46,15.78,2.56c4.46,4.68,13.08,1.17,12.89-5.34c-0.75-26.31-57.83-6.47-71.25-4.33
			c-12.28,1.95-25.15,1.26-35.59-6.11c-4.59-3.24-8.65-7.64-11.56-12.43c-1.47-2.41-2.93-4.92-4.13-7.47
			c-1.15-2.45-1.72-4.9-4.39-6.05C525.83,709.65,524.58,709.69,523.52,710.66L523.52,710.66z"/>
	</g>
	<g class="st1">
		<path class="st3" d="M234.04,625.78c-2.12,18.27,7.18,37.01,18.14,51.06c11.58,14.84,27.44,26.74,45.47,32.49
			c9.82,3.13,13.97-12.21,4.24-15.4c-15.49-5.07-29.03-13.59-39.86-25.86c-11.13-12.61-16.72-27.6-22.69-43.01
			C238.22,622.15,234.39,622.72,234.04,625.78L234.04,625.78z"/>
	</g>
	<g class="st1">
		<path class="st3" d="M934.55,421.75c-8.37-17.22-29.54-13.68-42.79-4.7c-14.43,9.78-22.85,23.76-28.68,39.85
			c-2.55,7.02-4.84,14.24-8.92,20.56c-4.67,7.21-11.55,8.45-18.51,12.68c-14.56,8.84-14.55,28.77-10.23,43.35
			c2.9,9.79,16.75,5.61,15.05-4.15c-1.04-5.98-2.82-11.94-2.04-18.09c0.93-7.3,6-9.3,12.01-12.26
			c11.95-5.88,17.93-17.34,22.18-29.38c4.48-12.68,7.84-25.22,17.31-35.32c9.41-10.04,27.68-21,40.06-9.03
			C932.44,427.65,935.97,424.67,934.55,421.75L934.55,421.75z"/>
	</g>
	<g class="st1">
		<path class="st3" d="M298.03,569.55c6.36-2.64,13.1-3.82,19.98-2.98c3.28,0.4,6.71,1.29,9.78,2.54c3.16,1.29,5.8,3.55,9.21,4.08
			c6.98,1.08,11.3-6.02,6.75-11.6c-5.11-6.27-17.35-7.34-24.9-6.97c-8.55,0.42-16.72,2.95-23.93,7.56
			C291.29,564.5,293.61,571.38,298.03,569.55L298.03,569.55z"/>
	</g>
	<g class="st1">
		<path class="st3" d="M133.35,721.55c18.66,0.8,32.57,21.64,41.48,35.7c5.28,8.34,9.72,17.15,12.22,26.74
			c1.31,5.02,2.08,10.11,2.28,15.29c0.2,5.23-1.18,10.61,3.33,14.37c2.12,1.76,5.4,2.74,7.91,1.02c5.87-4.02,5.16-9.94,4.52-16.37
			c-0.62-6.2-1.72-12.35-3.59-18.3c-3.62-11.53-9.63-22.14-16.75-31.86c-6.43-8.77-13.6-17.13-22.28-23.75
			c-8.8-6.7-18.17-9.44-29.13-8.36C129.87,716.38,129.74,721.39,133.35,721.55L133.35,721.55z"/>
	</g>
	<g class="st1">
		<path class="st3" d="M940.28,531.45c-9.73-8.72-22.95-2.68-31.07,5.27c-9.68,9.48-15.03,22.49-18.14,35.46
			c-3.75,15.65-3.57,31.95-6.57,47.73c-2.48,13.07-7.31,25.03-14.77,36.07c-13.93,20.61-34.35,34.85-58.06,41.79
			c-11.35,3.32-24.37,8.7-26.55,21.82c-2.52,15.15,11.19,26.32,24.89,28.05c14.04,1.78,37.89-0.77,42.16-17.33
			c1.87-7.26-1.45-15.04-8.61-17.71c-6.25-2.34-14.38-0.33-17.22,6.17c-1.7,3.89-1.11,8.34,2.8,10.68c3.3,1.98,8.98,1.05,10.68-2.8
			c-0.83,1.89-2.42-0.52-2.69-0.4c-0.77,0.35-2.1,2.69-3.58,3.36c-4.54,2.05-10.91,2.44-15.81,2.62c-4.98,0.18-10.52-0.16-14.3-3.81
			c-2.38-2.31-3.82-5.53-1.75-8.49c4.32-6.18,16.43-7.28,22.98-9.68c9.07-3.33,17.74-7.74,25.66-13.29
			c15.64-10.95,28.48-25.5,36.89-42.68c10.06-20.54,11.74-42.03,14.19-64.43c1.28-11.74,3.16-24.04,8.46-34.73
			c4.38-8.84,14.98-24.48,27-19.27C939.55,537.01,942.87,533.77,940.28,531.45L940.28,531.45z"/>
	</g>
	<g class="st1">
		<path class="st3" d="M940.8,651.16c-0.58-6.64-7.75-8.99-13.16-5.73c-7.39,4.44-9.83,16.01-10.4,23.88
			c-0.75,10.36,2.54,20.05,4.94,29.96c2.14,8.82,2.61,17.28-4.16,24.16c-5.71,5.8-13.28,9.28-20.08,13.58
			c-7.63,4.83-14.84,10.62-20.86,17.37c-6.02,6.76-10.94,14.33-14.11,22.84c-2.76,7.42-6.03,19.38,0.2,25.72
			c3.21,3.27,7.81,1.96,10.26-1.32c2.53-3.4,1.85-7.45,2.33-11.43c0.37-3.01,1.18-6,2.22-8.84c2.36-6.47,6.37-12.41,10.95-17.51
			c10-11.11,23.15-16.98,34.63-26.16c12.55-10.03,15.93-23.92,12.13-39.23c-1.99-8.04-5.45-15.85-6.05-24.18
			c-0.32-4.37-0.12-8.99,0.71-13.3c0.35-1.84,2.71-12.87,6.45-8.16C938.03,654.38,940.97,653.11,940.8,651.16L940.8,651.16z"/>
	</g>
	<g class="st1">
		<path class="st4" d="M96.8,457.01c0.93-10.97,8.78-19.26,16.75-26.09c7.9-6.76,17.1-12.13,26.83-15.79
			c18.71-7.04,41.01-8.76,56.24,6.28c12.53,12.38,17.06,31.5,8.93,47.53c-7.56,14.91-24.92,27.02-42.19,24.15
			c-9.37-1.56-17.66-8.53-14.44-18.82c3.73-11.91,16.92-15.55,28.01-16.25c5.71-0.36,5.75-9.29,0-8.93
			c-12.27,0.76-25.28,4.2-32.73,14.78c-6.12,8.71-6.95,20.71,0.26,29.05c14.74,17.06,42.71,9.11,57.05-3.95
			c17.02-15.49,21.84-40.04,10.95-60.45c-5.26-9.85-13.78-18.07-24.02-22.58c-12.02-5.3-25.54-4.71-38.08-1.67
			c-13.95,3.39-26.97,10.01-38.09,19.06c-10.26,8.36-19.44,19.74-18.84,33.66C93.53,459.2,96.62,459.15,96.8,457.01L96.8,457.01z"/>
	</g>
	<g class="st1">
		<path class="st4" d="M94.98,618.6c7.36-19,21.83-36.24,38.05-48.35c15.7-11.72,35.76-21.07,55.69-21.04
			c10.6,0.02,21.21,3.36,26.79,13.02c5.25,9.1,6.16,21.75,4.52,31.96c-3.43,21.46-27.22,33.84-47.64,28.24
			c-12.49-3.42-17.89-15.43-11.2-26.8c6.68-11.36,20.93-13.81,33.03-13.35c5.61,0.22,5.62-8.58,0-8.72
			c-13.22-0.34-27.84,2.68-36.8,13.24c-7.37,8.69-10.25,21.99-3.95,32.09c13.17,21.1,47.99,15.06,63.54,0.42
			c10.01-9.43,13.14-23.15,12.58-36.47c-0.53-12.75-4.03-26.23-14.51-34.42c-19.91-15.55-49.82-5.63-69.46,5.2
			c-12.45,6.87-23.75,16-33.02,26.78c-9.58,11.14-16.09,23.54-21.37,37.17C90.34,619.9,94.09,620.91,94.98,618.6L94.98,618.6z"/>
	</g>
	<g class="st1">
		<path class="st4" d="M164.67,498.38c-4.98,7.08-5.81,17.04-4.79,25.4c0.86,7.04,3.39,18.5,9.98,22.34
			c2.37,1.38,4.88-0.89,4.38-3.37c-0.66-3.33-3.13-6.11-4.51-9.22c-1.5-3.39-2.58-7-3.16-10.66c-1.26-7.96,0.44-15.15,1.86-22.9
			C168.88,497.65,166.05,496.43,164.67,498.38L164.67,498.38z"/>
	</g>
	<g class="st1">
		<path class="st4" d="M107.38,662.13c24.57-19.33,59.86-21.05,83.55,0.7c20.64,18.95,23.01,49.48,40.44,70.74
			c16.49,20.12,42.87,25.27,65.72,34.86c11.21,4.7,23.86,11.11,30.26,21.93c2.98,5.04,5.46,12.23,2.39,17.8
			c-3.77,6.86-14.01,7.14-20.82,7.66c-17.16,1.29-36.86,0.34-52.94-6.33c-3.22-1.33-7.25-3.48-7.93-7.28
			c-0.83-4.69,3.7-8.52,7.33-10.48c8.22-4.42,18.86-3.53,27.06,0.37c5.23,2.48,9.76-5.42,4.53-7.75
			c-14.06-6.28-36.11-6.25-44.97,8.81c-3.55,6.03-2.74,13.3,2.12,18.35c5.28,5.49,13.45,7.52,20.58,9.28
			c18.16,4.47,39.38,6.68,57.79,2.34c15.98-3.77,21.12-18.89,14.84-33.17c-12.92-29.39-52.7-33.26-78.12-46.15
			c-15.18-7.7-25.13-19.09-32.47-34.32c-7.2-14.94-12.29-31.07-22.71-44.23c-24.05-30.4-72.17-34.63-98.61-5.06
			C104.22,661.54,106.01,663.21,107.38,662.13L107.38,662.13z"/>
	</g>
	<g class="st1">
		<path class="st4" d="M220.24,556.82c11.36-8.39,25.87-15.85,40.14-10.65c6.47,2.36,12.11,7.09,14.62,13.62
			c2.95,7.7,2.01,16.57,2.28,24.65c0.54,16.2,2.04,33.02,6.33,48.71c3.56,13.05,10.06,25.54,21.18,33.67
			c26.16,19.13,55.05-3.45,78.12-16.4c12.13-6.81,25.01-12.3,39.18-11.6c12.49,0.62,25.12,6.95,28.62,19.79
			c3.87,14.22-4.93,28.88-20.18,29.71c-5.85,0.32-15.06-1.89-17.42-8.12c-1.63-4.29,1.97-7.88,5.75-9.27
			c4.68-1.73,10.26-0.64,15.02,0.14c6.06,1,8.61-8.34,2.55-9.25c-8.42-1.27-17.67-2.47-25.15,2.59c-5.5,3.72-9.32,10.45-7.52,17.17
			c3.83,14.27,22.68,18.64,35.17,14.82c14.08-4.31,22.79-17.77,22.02-32.35c-0.79-14.88-10.48-26.75-24.33-31.71
			c-34.88-12.48-62.8,17.19-92.43,29.37c-9.1,3.74-19.21,5.63-28.51,1.48c-7.8-3.48-13.85-10.02-17.95-17.39
			c-9.64-17.34-11.37-39.82-12.42-59.24c-0.53-9.83,0.42-20.38-3.4-29.67c-3.15-7.66-9.41-13.4-16.99-16.58
			c-16.9-7.09-35.79-0.1-46.8,13.76C216.99,555.47,218.48,558.12,220.24,556.82L220.24,556.82z"/>
	</g>
	<g class="st1">
		<path class="st4" d="M292.19,641.86c10.94,11.68,27.75,6.4,37.47-4.13c12.12-13.13,17.51-31.66,23.16-48.19
			c5.56-16.25,12.22-42.16,31.6-46.75c18.05-4.28,25.78,17.93,27.47,31.91c1.23,10.16-2.47,19.57-14.41,18.49
			c-5.07-0.46-10.39-3.34-11.54-8.67c-1.24-5.72,4.07-10.44,9.27-7.04c4.64,3.04,8.58-4.16,4.27-7.31
			c-7.27-5.33-18.12-1.29-21.11,6.99c-3.27,9.03,2.14,18.56,10.5,22.35c8.87,4.02,21.09,2.68,27.3-5.33
			c5.62-7.25,4.95-17.3,3.17-25.77c-3.64-17.39-14.96-38.76-36.22-33.46c-23.05,5.75-30.91,35.1-37.5,54.63
			c-4.42,13.08-8.74,26.64-16.52,38.19c-7.39,10.98-22.29,20.27-35.1,11.72C292.55,638.52,291.05,640.65,292.19,641.86
			L292.19,641.86z"/>
	</g>
	<g class="st1">
		<path class="st4" d="M207.85,481.66c8.09,24.29,37.96,35.07,60.5,40.52c32.44,7.85,66.55,8.89,99.49,3.86
			c33.11-5.06,64.07-18.3,96.79-24.93c12.89-2.61,26.92-3.81,39.64,0.27c14.65,4.7,22.29,17.07,25.58,31.49
			c1.95,8.54,2.98,17.78-4,24.32c-6.46,6.05-15.64,6.87-23.83,4.36c-7.81-2.39-17.81-8.34-16.32-17.88
			c1.35-8.64,10.79-12.11,18-8.01c5.38,3.05,10.23-5.25,4.84-8.28c-13.19-7.42-30.08-0.09-32.28,15.26
			c-2.43,16.93,15.17,27.94,29.91,29.8c15.05,1.9,31.68-6.77,34.55-22.64c2.78-15.4-4.12-35.7-15.06-46.72
			c-23.75-23.94-63.42-12.17-91.24-3.93c-19.23,5.69-38.3,12.08-57.99,16.06c-19.57,3.96-39.62,5.55-59.58,4.89
			c-20.85-0.69-42.24-3.54-62.19-9.84c-17.91-5.66-32.1-15.07-43.54-29.96C209.99,478.83,207.15,479.56,207.85,481.66L207.85,481.66
			z"/>
	</g>
	<g class="st1">
		<path class="st4" d="M449.77,642.14c18.37-29.47,48.57-52.38,82.36-60.7c9.71-2.39,19.98-3.92,29.96-2.45
			c9.47,1.4,18.04,5.88,25.52,11.73c7.04,5.51,13.15,12.08,19.23,18.59c6.38,6.84,12.01,6.01,19.89,2.11
			c17.34-8.58,45.16-16.75,57.77,3.92c3.2,5.24,11.56,0.36,8.24-4.82c-10.34-16.07-30.33-20.02-47.97-15.75
			c-5.07,1.23-9.94,3.08-14.71,5.16c-3.74,1.63-11.77,7.66-15.32,4.75c-3.64-2.98-6.64-7.08-9.99-10.39
			c-3.48-3.44-7.09-6.74-10.94-9.78c-7.23-5.71-15.31-10.47-24.3-12.75c-10.23-2.59-20.9-1.93-31.18-0.02
			c-18.51,3.43-36.44,11.13-51.77,22.03c-17.29,12.3-30.5,27.56-40.05,46.45C445.42,642.39,448.48,644.22,449.77,642.14
			L449.77,642.14z"/>
	</g>
	<g class="st1">
		<path class="st4" d="M364.18,693.8c11.53,22.11,37.11,31.42,61.04,29.32c28.7-2.52,53.12-20.47,72.71-40.41
			c18.25-18.58,38.84-47.11,68.65-41.57c12.48,2.32,24.09,9.95,30.61,20.92c7.5,12.62,9.2,33.04,2.01,46.2
			c-6.46,11.84-24.05,15.58-34.71,7.05c-5.56-4.45-9.87-14.24-5.17-20.76c3.35-4.65,12.04-6.03,15.4-0.72
			c3.23,5.1,11.41,0.33,8.11-4.74c-7.04-10.82-23.84-10.04-31.01,0.4c-8.5,12.36-0.77,29.78,11.53,36.2
			c12.02,6.28,27.58,4.36,37.73-4.63c12.73-11.28,13.47-32.08,10.36-47.58c-6.12-30.45-39.65-49.46-68.88-38.53
			c-15.32,5.73-27.19,17.34-38.18,29.05c-12.12,12.91-24.11,25.85-38.92,35.76c-15.75,10.54-33.78,17.76-53,16.43
			c-17.4-1.2-35.28-9.54-45.32-24.14C365.89,690.27,363.16,691.83,364.18,693.8L364.18,693.8z"/>
	</g>
	<g class="st1">
		<path class="st4" d="M513.64,743.05c-1.22,16.36,14.71,28.7,28.31,34.05c18.45,7.25,38.77,6.31,57.97,3.04
			c20.88-3.56,41.24-9.59,62.11-13.23c11.04-1.93,22.17-3.52,33.34-4.5c10.82-0.95,21.95-1.15,32.4,2.22
			c18.34,5.91,32.36,23.28,34.68,42.34c0.73,6.05,10.34,6.12,9.59,0c-1.99-16.41-10.22-31.28-23.27-41.52
			c-15.75-12.35-35.08-14.09-54.42-12.24c-21.4,2.04-42.56,6.02-63.43,11.1c-20.13,4.9-40.66,10.6-61.56,10.1
			c-21.03-0.5-46.13-8.87-50.47-32.06C518.32,739.21,513.85,740.22,513.64,743.05L513.64,743.05z"/>
	</g>
	<g class="st1">
		<path class="st4" d="M317.27,726.76c10.75-7.19,24.4-9.63,37-6.78c14.22,3.21,23.68,11.71,30.62,24.18
			c3.38,6.08,7.14,11.95,13.27,15.56c5.99,3.54,13.07,4.54,19.92,4.74c16.48,0.49,32.24-1.17,48.02,5.11
			c16.57,6.59,30.06,21.03,31.28,39.37c0.38,5.75,9.29,5.84,9.03,0c-0.7-15.82-9.49-30-22.02-39.35
			c-14.59-10.89-33.32-14.42-51.2-13.91c-8.36,0.24-17.15,1.47-25.36-0.66c-9.8-2.55-13.62-10.55-18.47-18.55
			c-7.24-11.94-18.85-20.2-32.58-22.97c-14.88-3.01-30.37,0.03-41.68,10.45C313.63,725.31,315.57,727.9,317.27,726.76L317.27,726.76
			z"/>
	</g>
	<g class="st1">
		<path class="st4" d="M930.76,503.77c-14.09,8.23-25.43,19.82-33.97,33.71c-9.37,15.24-13.59,32.11-15.61,49.72
			c-2.07,18.1-5.66,34.81-14.94,50.71c-8.22,14.08-19.61,26.37-33.22,35.37c-14.63,9.68-33.02,12.88-46.63,24.02
			c-12.53,10.26-18.3,28.03-7.23,41.54c20.09,24.5,70.89,20.87,87.93-5.46c4.56-7.05,5.76-16.17,1.07-23.49
			c-4.17-6.51-11.84-9.51-19.29-10.01c-15.86-1.06-36.01,11.75-31.4,29.67c1.61,6.26,11.34,3.6,9.69-2.67
			c-3.66-13.93,18.69-20.18,28.39-15.28c6.15,3.11,6.88,9.7,3.78,15.38c-3.57,6.55-10.31,10.75-16.99,13.59
			c-13.51,5.75-29.8,6.47-43.52,0.95c-5.86-2.36-11.91-6.26-14.8-12.09c-3.69-7.43-0.65-15.62,4.55-21.46
			c9.91-11.15,25.92-14.11,38.71-20.73c11.68-6.04,22.3-14.34,31.16-24.04c8.52-9.33,15.63-20.03,20.69-31.62
			c5.79-13.26,8.25-26.9,9.67-41.23c1.68-17,5.05-32.7,13.29-47.83c7.61-13.96,18.38-26.11,30.77-36.03
			C934.43,505.24,932.42,502.8,930.76,503.77L930.76,503.77z"/>
	</g>
	<g class="st1">
		<path class="st4" d="M933.78,625.44c-12.37,14.65-23.15,30.45-21.03,50.54c1.06,10.02,4.32,20.43,1.95,30.49
			c-1.65,7.02-5.9,12.86-10.88,17.93c-10.55,10.72-23.79,18.56-33.19,30.46c-5.51,6.97-9.19,15.06-11.58,23.59
			c-1.29,4.6-2.2,9.3-2.96,14.01c-0.71,4.4-1.92,9.28-1.4,13.72c0.56,4.88,6.78,5.93,8.57,1.16c1.65-4.39,1.62-9.5,2.38-14.11
			c0.78-4.7,1.76-9.38,3.13-13.95c2.47-8.23,6.4-15.67,12.26-22c9.88-10.68,22.72-18.21,32.19-29.31
			c4.45-5.21,8.13-11.08,9.94-17.74c2.33-8.56,1.09-17.31-0.32-25.9c-1.65-10-2.81-19.43,0.48-29.22c3.21-9.57,8.89-18.29,14.2-26.8
			C938.9,626.08,935.54,623.35,933.78,625.44L933.78,625.44z"/>
	</g>
	<g class="st1">
		<path class="st4" d="M643.51,714.75c7.05-11.1,19.44-18.83,32.72-19.22c6.46-0.19,12.97,1.26,18.71,4.23
			c5.53,2.86,9.61,7.34,14.49,11.07c9.52,7.29,19.4,6.04,29.45,0.46c5.74-3.19,11.02-7.05,17.48-8.7
			c7.07-1.81,14.21-1.09,21.02,1.38c5.67,2.05,8.2-7.08,2.5-9.05c-13.78-4.76-27.42-2.17-39.64,5.3
			c-5.55,3.39-12.08,8.68-19.03,7.52c-6.56-1.09-11.4-7.39-16.56-11.07c-21.89-15.61-52.87-8.09-64.87,15.88
			C638.52,715.04,642,717.12,643.51,714.75L643.51,714.75z"/>
	</g>
	<g class="st1">
		<path class="st4" d="M677.47,635c-8.73-10.9-23.72-2.77-26.73,8.7c-3.31,12.62,4.74,25.53,15.77,31.34
			c12.87,6.78,28.37,3.87,40.34-3.48c13.15-8.08,22.11-21.14,30.08-34.01c3.77-6.09,7.5-12.65,13.11-17.26
			c6.44-5.3,14.01-5.56,21.74-3.3c14.63,4.28,27.45,12.42,43.21,7.88c15.32-4.41,26.3-16.64,34.42-29.77
			c9.32-15.06,17.21-31.13,25.61-46.72c8.3-15.4,16.18-31.73,28.2-44.66c5.7-6.13,12.32-11.37,20.11-14.55
			c9.78-3.99,19.77-4.07,30.09-2.78c5.53,0.69,6.55-8.28,1.3-9.62c-28.77-7.33-53.84,11.49-69.14,34.01
			c-17.24,25.38-28.56,54.37-44.76,80.37c-7.67,12.31-19.16,25.12-34.7,26.05c-13.59,0.81-25.47-8.18-38.72-9.78
			c-12.68-1.53-22.58,4.96-29.94,14.81c-8.46,11.33-14.27,24.27-24.31,34.47c-11,11.17-29.28,20.17-44.38,11.46
			c-6.26-3.61-11.41-9.96-12.06-17.35c-0.83-9.32,8.82-21.35,18.1-13.14C676.65,639.31,678.97,636.87,677.47,635L677.47,635z"/>
	</g>
	<g class="st1">
		<path class="st4" d="M930.74,349.89c-29.25-11.96-64.43,2.99-80.18,29.39c-9.45,15.84-12.63,34.31-20.81,50.7
			c-4.83,9.67-13.88,12.08-23.32,15.7c-8.07,3.1-16.13,6.31-23.88,10.15c-15.03,7.45-28.99,17.9-36.93,33.02
			c-7.99,15.21-10,33.64-4.55,50.03c4.94,14.84,15.37,27.83,28.99,35.6c14.47,8.25,34.43,10.94,47.25-1.84
			c10.98-10.95,9.55-33.97-7.84-37.7c-7.04-1.51-15.04,1.33-19.21,7.27c-4.06,5.79-3.59,14.86,4.64,15.89
			c4.63,0.58,5.78-7.53,1.11-8.22c-1.29-0.19,3.83-5.39,4.32-5.66c2.45-1.32,5.5-1.74,8.18-0.91c6.45,2,8.91,10.19,7.29,16.15
			c-4.58,16.84-26.61,15.3-38.73,9.32c-24.97-12.32-36.5-41.78-27.65-67.93c9.45-27.9,38.06-38.97,63.19-48.8
			c5.85-2.29,12.24-4.29,17.07-8.45c5.18-4.46,7.79-10.99,10.28-17.18c5.47-13.58,8.82-28.05,15.78-41.02
			c14.31-26.7,44.94-37.78,73.84-31.34C932.37,354.69,933.27,350.93,930.74,349.89L930.74,349.89z"/>
	</g>
	<g class="st1">
		<path class="st4" d="M536.9,536.72c25.64-35.07,66.09-58.22,109.63-60.9c21.29-1.31,45.22,1.69,63.86,12.7
			c10.51,6.2,19.17,16.41,19.36,29.14c0.15,10.59-6.68,18.72-16.66,21.54c-10.14,2.87-23.85,1.27-32.42-5.23
			c-5.74-4.36-4.18-12.19,0.7-16.59c5.84-5.27,14.99-4.91,22.2-3.72c5.6,0.92,7.98-7.67,2.36-8.56
			c-13.36-2.12-29.51-0.61-35.84,13.3c-5.99,13.18,2.87,22.99,14.85,27.58c22.48,8.63,54.77-0.41,53.65-29.12
			c-1.19-30.69-34.48-44.25-60.44-48.26c-26.31-4.07-53.41-0.59-77.97,9.62c-27.51,11.43-51.67,30.49-66.27,56.74
			C532.8,536.96,535.61,538.49,536.9,536.72L536.9,536.72z"/>
	</g>
	<g class="st1">
		<path class="st5" d="M-49.3,647.7c0.07,0,0.07-0.11,0-0.11C-49.37,647.59-49.37,647.7-49.3,647.7L-49.3,647.7z"/>
	</g>
	<g class="st1">
		<g>
			<path class="st2" d="M2946.47,1404.02c7.66,0,7.67-11.91,0-11.91C2938.81,1392.11,2938.79,1404.02,2946.47,1404.02
				L2946.47,1404.02z"/>
		</g>
	</g>
	<g class="st1">
		<path class="st2" d="M483.86,650.01c7.98-4.73,16.22-7.73,25.19-9.97c8.77-2.19,17.48-1.98,26.27-3.54
			c7.49-1.33,4.82-11.66-1.67-12.33c-9.27-0.96-20.45,2.68-28.9,6.23c-8.82,3.7-16.93,9.12-24.35,15.12
			C477.84,647.59,481.13,651.63,483.86,650.01L483.86,650.01z"/>
	</g>
	<g class="st1">
		<path class="st2" d="M123.08,456.47c-7.47,14.86-11.43,30.49-11.6,47.15c-0.11,10.8,0.78,36.01,17,35.26
			c5.45-0.25,10.31-6.59,6.73-11.73c-2.7-3.87-5.58-5.49-6.86-10.28c-1.56-5.86-2.03-12.09-2.18-18.13
			c-0.33-13.03,1.53-26.27,5.31-38.73C132.95,455.1,125.44,451.76,123.08,456.47L123.08,456.47z"/>
	</g>
</g>
</svg>
