<svg xml:space="preserve" style="enable-background:new 0 0 1024 1024;" viewBox="0 0 1024 1024" y="0px" x="0px" xmlns:xlink="http://www.w3.org/1999/xlink" xmlns="http://www.w3.org/2000/svg" id="图层_1" version="1.1">
<style type="text/css">
	.st0{fill:#B4E191;stroke:#000000;stroke-width:8.5039;stroke-miterlimit:10;}
	.st1{fill:#A7D8E3;stroke:#000000;stroke-width:8.5039;stroke-miterlimit:10;}
	.st2{fill:#F4E363;stroke:#000000;stroke-width:8.5039;stroke-miterlimit:10;}
	.st3{fill:none;stroke:#000000;stroke-width:8.5039;stroke-miterlimit:10;}
	.st4{fill:#F3F0E7;stroke:#000000;stroke-width:8.5039;stroke-miterlimit:10;}
	.st5{fill:#0075BF;}
	.st6{fill:#F3F0E7;}
	.st7{fill:#F36560;stroke:#000000;stroke-width:8.5039;stroke-miterlimit:10;}
	.st8{fill:#4AAEE9;stroke:#000000;stroke-width:8.5039;stroke-miterlimit:10;}
	.st9{fill:#F4E363;}
	.st10{fill:#EE6F4F;}
	.st11{fill:#B4E191;}
	.st12{fill:#A7D8E3;}
	.st13{fill:none;stroke:#000000;stroke-width:8.5039;stroke-linejoin:round;stroke-miterlimit:10;}
	.st14{fill:#F4E265;stroke:#000000;stroke-width:8.5039;stroke-miterlimit:10;}
	.st15{fill:#97D9ED;stroke:#000000;stroke-width:8.5039;stroke-miterlimit:10;}
	.st16{fill:#D19870;stroke:#000000;stroke-width:8.5039;stroke-miterlimit:10;}
	.st17{fill:#F3F0E7;stroke:#231815;stroke-width:8.5039;stroke-miterlimit:10;}
	.st18{fill:#F2ABB3;stroke:#000000;stroke-width:8.5039;stroke-miterlimit:10;}
</style>
<g>
	<ellipse ry="258.1" rx="496.95" cy="517.59" cx="511.45" class="st15"></ellipse>
	<g>
		<path d="M1008.24,515.89c-0.22-6.6-0.73-13.18-1.47-19.73c-0.14-1.4-0.32-2.81-0.5-4.23
			c-0.01-0.06-0.01-0.12-0.02-0.19c0,0,0,0,0,0c-0.05-0.34-0.09-0.67-0.13-1.01c-0.2-1.41-1.17-2.22-2.35-2.54
			c-0.33-2.75-0.71-5.49-1.26-8.21c-0.87-4.33-1.67-8.77-3.21-12.93c-1.52-4.07-3.83-7.4-6.59-10.64
			c-1.22-4.06-2.84-8.01-4.96-11.69c-2.58-4.5-6.07-8.1-9.2-12.18c-2.85-3.7-4.8-8.15-7.26-12.11c-1.39-2.24-2.84-4.44-4.34-6.6
			c-1.23-1.77-2.43-3.87-4.6-4.57c-4.07-1.31-8.61,4.21-11.21,6.69c-3.6,3.43-5.56,7.96-8.55,11.85c-6.54,8.5-12.8,17.02-18.7,26
			c-0.8,1.21-0.77,2.4-0.28,3.36c-2.66,6.74-5.94,13.14-9.58,19.41c-1.78,3.07-3.5,6.18-4.79,9.5c-1.29,3.34-1.82,6.85-2.58,10.32
			c-3.08,14.08-14.29,25.45-15.13,40.22c-0.21,3.67,4.03,4.57,6.27,2.74c0.72-0.24,1.39-0.7,1.94-1.44
			c3.59-4.88,7.57-9.57,10.09-15.1c1.19-2.62,3.25-4.48,4.83-6.86c1.67-2.53,2.95-5.34,4.39-8c2.63-4.87,5.13-10.04,8.75-14.27
			c2.86-3.34,6.01-6.5,8.14-10.36c1.06-0.21,2.02-0.88,2.74-1.81c1.28-1.67,2.64-3.24,4.23-4.62c1.09-0.95,2.13-1.85,2.71-3.22
			c0.59,0.11,1.45,0.02,1.95,0.09c1.85,0.26,3.77,0.62,5.42,1.52c3.32,1.81,3.71,5.35,4.03,8.78c0.43,4.67,0.82,9.34,1.23,14.01
			c0.05,0.56,0.26,1.1,0.55,1.59c0.31,9.85,0.62,19.69,0.93,29.54c0.04,1.41,0.71,2.39,1.63,2.99l-0.13,3.7
			c-0.06,1.76,0.88,2.87,2.12,3.36c0.3,1.67,0.72,3.32,1.4,4.93c1.15,2.73,2.84,5.11,5.23,6.89c1,0.74,2.1,1.26,3.22,1.69
			c1.72,0.76,3.69,1.14,5.82,1.34c0.8,0.07,1.56-0.21,2.18-0.68c1.9,0.2,3.79,0.16,5.56-0.28c2.67-0.67,5.12-2.55,7.44-3.96
			c1.71-1.04,3.41-2.1,5.11-3.16c0.72-0.38,1.42-0.82,2.1-1.3c0.12-0.07,0.23-0.14,0.35-0.22c-0.01-0.01-0.01-0.02-0.02-0.02
			c0.26-0.19,0.53-0.36,0.79-0.57c1.14-0.91,1.38-2.14,1.09-3.28c1.28-0.2,2.49-0.99,3.04-2.53
			C1009.14,531.16,1008.48,523.15,1008.24,515.89z" class="st6"></path>
		<path d="M588.77,362.66c-1.35-2.55-3.17-4.89-5.33-6.81c-0.36-0.32-0.74-0.6-1.11-0.9c0.16-1.26-0.07-2.55-0.88-3.65
			c-2.72-3.73-6.19-6.53-10.15-8.32c-0.25-1.59-1.14-3.11-2.85-4.22c-8.6-5.6-13.44-15.24-23.54-18.89
			c-10.42-3.76-24.99-0.51-34.93,3.55c-10.38,4.24-19.52,13.62-27.58,21.23c-8.58,8.11-16.29,17.31-21.21,28.11
			c-0.25,0.54-0.4,1.08-0.5,1.61c-1.33,0.42-2.52,1.27-3.35,2.68c-1.57,2.69-0.88,7.3,2.28,8.68c0.19,0.08,0.33,0.15,0.46,0.22
			c0.01,0.02,0.04,0.07,0.04,0.08c0.03,0.08,0.03,0.09,0.07,0.2c0.11,0.37,0.19,0.73,0.27,1.11c0.08,0.86,0.08,1.72,0.07,2.58
			c-0.05,3.78-0.79,7.45-1.64,11.12c-1.91,8.15-4.02,16.26-6.03,24.38c-0.83,3.32,1.07,6.88,4.43,7.81
			c3.25,0.89,6.98-1.09,7.81-4.43c0.94-3.8,1.95-7.6,2.93-11.41c1.75-0.73,3.11-2.3,3.91-4.22c6.04-14.54,14.09-28.34,23.42-41.06
			c3.68-1.44,7.57-2.39,11.43-3.19c2.24-0.46,4.54-1.02,6.81-1.28c1.57-0.18,2.83,1.02,4.15,1.94c7.2,4.96,5.68,14.03,4.87,21.65
			c-0.58,5.4-0.93,11.26,4.96,13.84c3.78,1.65,9.07,1.69,13.04,0.67c10.96-2.81,10.32-15.95,10.04-24.98
			c-0.19-6.03-1.02-12-2.16-17.91c-0.34-1.75-0.68-3.51-0.94-5.27c0.51-0.28,1-0.59,1.51-0.86c0.64-0.33,1.28-0.65,1.93-0.96
			c0.27-0.13,0.54-0.25,0.81-0.37c0.06-0.02,0.19-0.07,0.5-0.2c1.35-0.48,2.7-0.94,4.09-1.28c0.58-0.14,1.17-0.25,1.76-0.36
			c0.06-0.01,0.08-0.01,0.13-0.02c0.37-0.04,0.75-0.07,1.12-0.09c0.69-0.04,1.38-0.05,2.07-0.03c0.19,0.01,1.17,0.1,1.37,0.1
			c1.08,0.18,2.16,0.46,3.19,0.84c0.08,0.08,1.27,0.63,1.44,0.73c0.36,0.21,0.7,0.45,1.04,0.69c0.06,0.09,1.04,0.92,1.17,1.06
			c0.19,0.19,1.59,1.95,0.79,0.85c1.72,2.36,4.76,3.87,7.57,2.83c0.33,0.44,0.67,0.87,1,1.31c0.35,0.46,0.69,0.81,1.26,0.97
			c0.51,0.14,1.18,0.08,1.63-0.21c0.19-0.12,0.36-0.3,0.51-0.49c1,1.03,2.02,2.04,2.98,3.11c0.7,0.79,1.99,0.78,2.78,0.17
			C589.08,364.73,589.27,363.6,588.77,362.66z" class="st6"></path>
		<path d="M371.05,366.03c-2.2-3.51-5.38-5.7-8.17-8.66c-2.81-2.97-4.85-6.57-6.71-10.19
			c-4.01-7.84-7.36-15.99-11.53-23.76c-6.46-12.05-13.76-25.1-23.64-35.09c-0.31-0.85-0.83-1.67-1.67-2.43
			c-8.93-8.13-17.72-18.18-28.56-23.79c-11.5-5.95-23.95-10.35-36.94-10.92c-23.23-1.03-48.64,1.82-68.37,15.04
			c-1.1,0.74-1.83,1.66-2.28,2.65c-27.57,16.01-51.65,37.2-71.27,62.34c-0.06,0.05-0.12,0.1-0.17,0.16
			c0.01,0.01,0.02,0.01,0.03,0.02c-0.33,0.43-0.69,0.83-1.02,1.26c-0.14,0.18-0.22,0.35-0.33,0.53c-2.65,2.5-5.3,5.01-7.94,7.51
			c-2.73,2.58-2.3,5.86-0.47,8.11c-0.07,0.19-0.16,0.35-0.22,0.56c-2.18,7.82-3.67,15.76-4.53,23.84c-0.7,6.59-2.21,15.29,0.39,21.6
			c2.72,6.62,9.98,8.12,15.83,4.49c6.1-3.79,11.19-10.52,16.07-15.73c10.7-11.41,20.89-23.29,31.27-34.99
			c4.71-5.31,9.48-12.41,15.38-16.44c3.06-2.09,6.54-2.19,9.97-1.37c3.78,9.66-2.17,19.9-6.04,28.63c-1.42,3.21-0.9,6.71,2.28,8.68
			c7.91,4.92,17.14,0.93,22.32-5.91c5.69-7.52,9.47-16.89,13.85-25.21c4.64-8.81,9.26-17.62,13.91-26.42
			c1.05-1.99,2.14-4.06,3.34-6.05c0.55-0.01,1.11-0.07,1.71-0.23c4.1-1.12,8.83-2.72,13.1-1.56c0.22,0.06,0.39,0.17,0.6,0.25
			c0.03,0.06,0.04,0.12,0.07,0.18c2.99,6.02,5.23,12.35,6.77,18.9c0.7,2.98,1.28,5.99,1.63,9.03c0.41,3.57,0.23,7.38,1.61,10.75
			c1.45,3.52,4.48,6.22,8.33,6.73c4.3,0.57,7.27-1.88,9.89-4.93c2.29-2.66,4.47-5.42,6.58-8.23c0.95-1.27,1.81-2.64,2.82-3.85
			c1.11-1.32,1.77-0.95-0.24-1.24c1.14,0.16,2.25,0.04,3.3-0.22c2.89,5.38,5.83,10.73,8.9,16c4.61,7.93,9.3,15.55,16.71,21.17
			c14,10.62,33.02,13.31,49.67,8.15C371.05,374.18,373.29,369.61,371.05,366.03z" class="st6"></path>
		<path d="M40.37,436.56c0,0,96.28-187.25,202.48-187.25S379.8,423.99,413.34,423.99s55.9-106.67,119.25-106.67
			s202.16,309.3,287.87,301.84c73.49-6.39,74.66-166.19,140.62-211.63" class="st3"></path>
		<path d="M102.8,341.67c-9.94,27.82-11.34,84.23,21.5,49.03s57.29-70.95,61.49-58.31s-19.81,38.49,5.82,37.79
			c25.62-0.7,36.1-72.67,54.97-67.08c18.87,5.59,5.59,44.72,20.96,46.12s18.48-19.68,25.66-16.83c7.18,2.85,17.43,62.9,81.48,40.22" class="st3"></path>
		<path d="M453.56,383.32c17.31-2.66-7.48,43.82,2.82,50.98c10.3,7.15,26.37-70.4,55.71-65.51
			c29.35,4.89-10.48,38.91,22.36,38.32c32.84-0.59,3.49-42.72,17.47-51.35c13.97-8.63,47.46,18.82,47.46,18.82" class="st3"></path>
		<path d="M891.26,534.03c5.12,31.8,36.56-53.45,56.82-59.74c20.26-6.29-3.49,82.25,30.74,80.6
			c11.83-0.57,21.07-7.93,28.1-17.31" class="st3"></path>
	</g>
	<path d="M25.7,462.84c-7.34,17.65-11.2,35.97-11.2,54.75c0,142.55,222.49,258.1,496.95,258.1
		s496.95-115.56,496.95-258.1s-222.49-258.1-496.95-258.1c-63.16,0-123.57,6.12-179.15,17.28" class="st3"></path>
</g>
</svg>
